<svg width="35" height="41" viewBox="0 0 35 41" fill="none" xmlns="http://www.w3.org/2000/svg">
<path d="M28.7643 21.6341C28.7451 18.3706 30.2237 15.911 33.2097 14.0975C31.5396 11.7049 29.0131 10.389 25.6826 10.1354C22.5292 9.88652 19.0791 11.9729 17.8158 11.9729C16.4808 11.9729 13.4278 10.2215 11.0257 10.2215C6.06826 10.298 0.799805 14.174 0.799805 22.06C0.799805 24.3903 1.22568 26.7973 2.07744 29.276C3.21631 32.5395 7.32197 40.5354 11.6047 40.4062C13.8441 40.3536 15.428 38.8176 18.3422 38.8176C21.1702 38.8176 22.6345 40.4062 25.1323 40.4062C29.4533 40.344 33.1666 33.0754 34.248 29.8023C28.4532 27.07 28.7643 21.8016 28.7643 21.6341ZM23.7351 7.03936C26.1611 4.15869 25.941 1.53643 25.8692 0.59375C23.7255 0.718164 21.2468 2.05322 19.8352 3.69453C18.28 5.45547 17.366 7.63271 17.5622 10.0875C19.8782 10.2646 21.9933 9.07305 23.7351 7.03936Z" fill="#1B1B1B"/>
</svg>
