<svg width="122" height="122" viewBox="0 0 122 122" fill="none" xmlns="http://www.w3.org/2000/svg">
<path d="M61 122C94.6894 122 122 94.6894 122 61C122 27.3106 94.6894 0 61 0C27.3106 0 0 27.3106 0 61C0 94.6894 27.3106 122 61 122Z" fill="url(#paint0_linear_166_2872)"/>
<path d="M81.6635 89.8382C81.7375 91.4454 81.2442 93.0274 80.2699 94.3077C79.4613 95.4088 78.4717 96.3647 77.3433 97.1347C75.2762 98.5428 73.0027 99.6208 70.6042 100.33C65.9771 101.686 61.1557 102.258 56.3397 102.022C51.577 101.819 46.86 101.006 42.3041 99.6034C39.9358 98.8735 37.686 97.8039 35.6248 96.4279C34.5289 95.6804 33.5437 94.7824 32.6982 93.7602C31.7615 92.6289 31.1339 91.2742 30.8766 89.8282C30.6407 88.3119 30.8843 86.7598 31.5734 85.3886C32.2703 84.0812 33.3229 82.9976 34.6095 82.263C36.8535 81.074 39.3154 80.3527 41.8462 80.1427C46.5235 79.7156 51.2316 79.7523 55.9017 80.2522C60.4409 80.6504 64.99 80.7798 69.6785 81.2476C72.1585 81.4463 74.5928 82.0272 76.8954 82.9697C78.2283 83.5726 79.3836 84.5085 80.25 85.6873C81.0794 86.9218 81.5671 88.354 81.6635 89.8382ZM77.841 90.1169C77.8419 89.2828 77.6056 88.4655 77.1597 87.7606C76.7138 87.0556 76.0766 86.4919 75.3226 86.1352C73.401 85.2409 71.3406 84.682 69.2305 84.4828C64.8208 83.8955 60.192 83.7561 55.6031 83.348C51.152 82.9327 46.671 82.9561 42.2245 83.4177C40.1765 83.6114 38.1889 84.2175 36.3813 85.1995C35.6652 85.6115 35.0816 86.2192 34.699 86.9514C34.3756 87.6543 34.2749 88.4393 34.4104 89.2011C34.6592 90.7042 36.0329 92.1874 37.7152 93.2724C39.5076 94.3814 41.4389 95.2483 43.4588 95.8506C47.6921 97.0816 52.0629 97.7772 56.4691 97.9211C60.8329 98.1634 65.2065 97.6756 69.4097 96.4777C71.4169 95.9087 73.3265 95.0395 75.0737 93.8996C76.746 92.8344 77.9505 91.2517 77.841 90.1169Z" fill="#4C685F"/>
<defs>
<linearGradient id="paint0_linear_166_2872" x1="17.9078" y1="24.8559" x2="96.4572" y2="90.7435" gradientUnits="userSpaceOnUse">
<stop offset="0.05" stop-color="#FBF7A5"/>
<stop offset="0.98" stop-color="#FFC876"/>
</linearGradient>
</defs>
</svg>
