<svg width="123" height="122" viewBox="0 0 123 122" fill="none" xmlns="http://www.w3.org/2000/svg">
<path d="M61.5554 121.193C95.0176 121.193 122.144 94.0665 122.144 60.6043C122.144 27.1421 95.0176 0.015625 61.5554 0.015625C28.0933 0.015625 0.966797 27.1421 0.966797 60.6043C0.966797 94.0665 28.0933 121.193 61.5554 121.193Z" fill="url(#paint0_linear_166_2856)"/>
<path d="M39.4876 73.7936C41.5626 73.7936 43.2447 72.1114 43.2447 70.0364C43.2447 67.9614 41.5626 66.2793 39.4876 66.2793C37.4126 66.2793 35.7305 67.9614 35.7305 70.0364C35.7305 72.1114 37.4126 73.7936 39.4876 73.7936Z" fill="#4C685F"/>
<path d="M75.972 80.5865C78.047 80.5865 79.7291 78.9044 79.7291 76.8294C79.7291 74.7544 78.047 73.0723 75.972 73.0723C73.897 73.0723 72.2148 74.7544 72.2148 76.8294C72.2148 78.9044 73.897 80.5865 75.972 80.5865Z" fill="#4C685F"/>
<path d="M32.2205 79.7656C33.1863 82.1314 34.4169 84.3802 35.8887 86.4691C37.3362 88.5532 39.0478 90.4409 40.9806 92.085C41.9437 92.8833 42.954 93.6229 44.006 94.2997C45.0613 94.9534 46.154 95.5443 47.2787 96.0695C49.6011 97.0939 52.0764 97.7286 54.6051 97.9481C57.1399 98.2595 59.7032 98.2595 62.238 97.9481C64.7231 97.6079 67.1449 96.9051 69.426 95.8619C74.0037 93.7757 77.9685 90.3844 81.5872 86.5976C81.8927 86.2475 82.3248 86.0332 82.7883 86.0017C83.2519 85.9701 83.7089 86.124 84.059 86.4295C84.4091 86.735 84.6235 87.1671 84.655 87.6306C84.6865 88.0942 84.5326 88.5513 84.2271 88.9013C80.7682 93.4555 76.2649 97.1111 71.0969 99.5597C68.4383 100.752 65.6091 101.519 62.7126 101.834C59.8665 102.136 56.994 102.086 54.1602 101.685C52.7661 101.508 51.3819 101.27 49.9482 100.954C48.5294 100.627 47.1352 100.2 45.7758 99.6784C43.0548 98.5959 40.5549 97.0243 38.4 95.0413C36.2712 93.1027 34.436 90.8645 32.9522 88.3971C31.4429 85.9593 30.2878 83.3194 29.5213 80.5565C29.4438 80.2144 29.4962 79.8556 29.6684 79.55C29.8406 79.2443 30.1203 79.0136 30.4531 78.9026C30.7859 78.7917 31.1481 78.8085 31.4693 78.9497C31.7904 79.0909 32.0476 79.3464 32.1909 79.6667L32.2205 79.7656Z" fill="#4C685F"/>
<defs>
<linearGradient id="paint0_linear_166_2856" x1="11.2495" y1="23.9031" x2="104.377" y2="91.8477" gradientUnits="userSpaceOnUse">
<stop stop-color="#BFFFBA"/>
<stop offset="0.98" stop-color="#7FEFCD"/>
</linearGradient>
</defs>
</svg>
