<svg width="128" height="128" viewBox="0 0 128 128" fill="none" xmlns="http://www.w3.org/2000/svg">
<path d="M63.6766 127.353C98.8441 127.353 127.353 98.8441 127.353 63.6765C127.353 28.509 98.8441 0 63.6766 0C28.509 0 0 28.509 0 63.6765C0 98.8441 28.509 127.353 63.6766 127.353Z" fill="url(#paint0_linear_166_2886)"/>
<path d="M92.2609 73.2443C94.2117 73.2443 95.7932 71.6629 95.7932 69.712C95.7932 67.7612 94.2117 66.1797 92.2609 66.1797C90.31 66.1797 88.7285 67.7612 88.7285 69.712C88.7285 71.6629 90.31 73.2443 92.2609 73.2443Z" fill="white"/>
<path d="M60.5762 87.1329C62.5038 87.1329 64.0664 85.5703 64.0664 83.6426C64.0664 81.715 62.5038 80.1523 60.5762 80.1523C58.6486 80.1523 57.0859 81.715 57.0859 83.6426C57.0859 85.5703 58.6486 87.1329 60.5762 87.1329Z" fill="white"/>
<path d="M100.986 81.1187C101.185 85.316 100.056 89.4694 97.7584 92.9877C95.4435 96.5317 92.1128 99.2944 88.2021 100.914C84.3419 102.516 80.114 103.018 75.9862 102.365C73.9849 102.097 72.0136 101.64 70.099 100.999C68.0906 100.368 66.2184 99.3658 64.5797 98.0445C64.4276 97.9197 64.302 97.7658 64.2104 97.5917C64.1188 97.4176 64.063 97.2269 64.0463 97.0309C64.0296 96.8349 64.0525 96.6375 64.1134 96.4505C64.1743 96.2634 64.2721 96.0905 64.401 95.9419C64.6334 95.6708 64.9554 95.4921 65.3083 95.4381C65.6613 95.3841 66.022 95.4584 66.3249 95.6475L66.3879 95.7001C67.8552 96.5669 69.4526 97.1917 71.1187 97.5503C72.8446 97.9734 74.6029 98.2512 76.3752 98.3809C78.1096 98.5136 79.8531 98.4713 81.579 98.2547C83.266 98.016 84.9157 97.5639 86.4885 96.9091C88.0503 96.2386 89.5228 95.3769 90.8724 94.3439C92.2045 93.2872 93.3889 92.0567 94.3942 90.6854C96.4047 87.8753 97.5684 84.5483 97.7478 81.0977C97.7805 80.6949 97.9635 80.3192 98.2606 80.0452C98.5577 79.7712 98.947 79.6191 99.3511 79.6191C99.7552 79.6191 100.144 79.7712 100.441 80.0452C100.739 80.3192 100.922 80.6949 100.954 81.0977L100.986 81.1187Z" fill="white"/>
<defs>
<linearGradient id="paint0_linear_166_2886" x1="19.7693" y1="39.5205" x2="126.076" y2="99.1166" gradientUnits="userSpaceOnUse">
<stop offset="0.05" stop-color="#AEB6FF"/>
<stop offset="0.823003" stop-color="#8E8AFF"/>
</linearGradient>
</defs>
</svg>
