<svg width="122" height="123" viewBox="0 0 122 123" fill="none" xmlns="http://www.w3.org/2000/svg">
<path d="M61 122.709C94.6894 122.709 122 95.3984 122 61.709C122 28.0196 94.6894 0.708984 61 0.708984C27.3106 0.708984 0 28.0196 0 61.709C0 95.3984 27.3106 122.709 61 122.709Z" fill="url(#paint0_linear_166_2902)"/>
<path d="M83.9327 87.9454C85.8015 87.9454 87.3165 86.4304 87.3165 84.5616C87.3165 82.6927 85.8015 81.1777 83.9327 81.1777C82.0638 81.1777 80.5488 82.6927 80.5488 84.5616C80.5488 86.4304 82.0638 87.9454 83.9327 87.9454Z" fill="white"/>
<path d="M38.0272 83.3414C39.8738 83.3414 41.3708 81.8445 41.3708 79.9979C41.3708 78.1513 39.8738 76.6543 38.0272 76.6543C36.1805 76.6543 34.6836 78.1513 34.6836 79.9979C34.6836 81.8445 36.1805 83.3414 38.0272 83.3414Z" fill="white"/>
<path d="M49.2379 88.167C51.1451 87.9729 53.0613 87.8788 54.9784 87.8851C56.8818 87.8851 58.7852 87.8851 60.6886 88.016C64.507 88.1763 68.3132 88.5528 72.089 89.1439C72.4111 89.196 72.7028 89.3647 72.9086 89.6179C73.1144 89.8711 73.2199 90.1912 73.2049 90.5171C73.19 90.8431 73.0557 91.1522 72.8276 91.3855C72.5996 91.6189 72.2937 91.7602 71.9681 91.7826C68.1562 92.0325 64.3331 92.0661 60.5174 91.8833C58.614 91.8128 56.7106 91.6818 54.8172 91.5106C52.9239 91.3394 51.0205 91.0977 49.1271 90.715C48.8235 90.6565 48.5511 90.4908 48.3595 90.2482C48.1678 90.0055 48.0698 89.7021 48.0832 89.3932C48.0967 89.0844 48.2207 88.7906 48.4326 88.5655C48.6446 88.3404 48.9304 88.199 49.2379 88.167Z" fill="white"/>
<defs>
<linearGradient id="paint0_linear_166_2902" x1="17.7552" y1="25.5138" x2="106.199" y2="99.5356" gradientUnits="userSpaceOnUse">
<stop stop-color="#FFCCAF"/>
<stop offset="0.98" stop-color="#FA4671"/>
</linearGradient>
</defs>
</svg>
