<svg width="120" height="110" viewBox="0 0 120 110" fill="none" xmlns="http://www.w3.org/2000/svg">
<g opacity="0.1" clip-path="url(#clip0_541_1269)">
<path d="M53.7477 109.901H48.4954C48.2327 109.901 47.9736 109.839 47.7393 109.72C47.505 109.601 47.302 109.428 47.147 109.215C46.9919 109.003 46.8891 108.757 46.8469 108.497C46.8047 108.237 46.8243 107.971 46.9041 107.72C51.7524 92.5741 48.3181 77.1556 48.2852 77.0152C48.2362 76.8015 48.2297 76.5802 48.266 76.364C48.3024 76.1478 48.3809 75.9408 48.4971 75.755C48.6133 75.5692 48.7648 75.4081 48.9432 75.281C49.1215 75.1538 49.3231 75.0631 49.5364 75.0141C49.7497 74.965 49.9706 74.9585 50.1864 74.9949C50.4022 75.0313 50.6088 75.11 50.7943 75.2264C50.9797 75.3428 51.1405 75.4947 51.2674 75.6733C51.3943 75.852 51.4849 76.0539 51.5339 76.2676C51.6781 76.8996 54.9021 91.2937 50.7093 106.559H53.7477C54.19 106.559 54.6142 106.735 54.927 107.049C55.2397 107.362 55.4153 107.787 55.4153 108.23C55.4153 108.673 55.2397 109.098 54.927 109.412C54.6142 109.725 54.19 109.901 53.7477 109.901V109.901Z" fill="#4C685F"/>
<path d="M78.3684 101.433H78.2695C78.0503 101.423 77.8354 101.368 77.6373 101.274C77.4393 101.179 77.262 101.045 77.1161 100.881C76.9702 100.717 76.8586 100.525 76.7876 100.317C76.7166 100.109 76.6878 99.8889 76.7029 99.6695L76.8884 96.452C76.9478 95.4919 77.2993 94.5731 77.8956 93.8192C78.4919 93.0652 79.3043 92.5124 80.2237 92.2349C83.4847 91.2602 88.7907 90.653 89.0133 90.6282H89.0916C90.7943 90.5126 95.6261 89.7361 97.4896 87.5594C97.7548 87.2666 97.955 86.9209 98.0772 86.545C98.1994 86.1692 98.2408 85.7716 98.1987 85.3786C97.737 79.9142 85.542 78.419 81.2956 78.324C80.8533 78.319 80.4311 78.1383 80.1218 77.8215C79.8125 77.5047 79.6416 77.0778 79.6465 76.6347C79.6514 76.1916 79.8319 75.7686 80.1481 75.4587C80.4643 75.1489 80.8904 74.9776 81.3327 74.9825H81.3698C84.5245 75.0977 87.6604 75.5224 90.7324 76.2505C95.4076 77.407 101.072 79.8811 101.513 85.0977C101.589 85.9333 101.495 86.7756 101.236 87.5737C100.978 88.3717 100.56 89.1088 100.009 89.7402C98.6398 91.3345 96.3971 92.5282 93.3421 93.2923C92.0302 93.6205 90.6944 93.8442 89.3473 93.9614C88.902 94.0109 84.0207 94.5892 81.1719 95.4442C80.9083 95.5247 80.6753 95.6835 80.5038 95.8996C80.3322 96.1157 80.2302 96.3789 80.2113 96.6544L80.0217 99.8719C79.9984 100.295 79.8139 100.693 79.5062 100.983C79.1986 101.274 78.7913 101.435 78.3684 101.433V101.433Z" fill="#4C685F"/>
<path d="M11.6961 73.1901C10.0985 73.1876 8.50781 72.9794 6.9632 72.5705C3.16207 71.5214 0.779122 69.2663 0.140102 66.0818C-0.923556 60.9561 3.80519 56.9703 7.97325 54.5169C10.7106 52.9429 13.5951 51.6411 16.5856 50.6303C17.0065 50.4944 17.4641 50.5317 17.8577 50.7338C18.2512 50.936 18.5484 51.2865 18.684 51.7083C18.8196 52.13 18.7825 52.5884 18.5807 52.9827C18.3789 53.377 18.029 53.6748 17.608 53.8106C13.576 55.1117 2.30868 60.035 3.42181 65.3962C4.39889 70.1254 11.9393 69.8404 12.0176 69.8363C12.4594 69.8149 12.8915 69.9702 13.2189 70.2681C13.5464 70.5659 13.7423 70.9818 13.7636 71.4244C13.7849 71.8669 13.6299 72.2998 13.3326 72.6279C13.0353 72.9559 12.6202 73.1522 12.1784 73.1736C12.1496 73.186 11.9847 73.1901 11.6961 73.1901Z" fill="#4C685F"/>
<path d="M107.697 70.0886C107.425 70.0886 107.26 70.0886 107.236 70.0886C106.794 70.0673 106.379 69.871 106.081 69.5429C105.784 69.2149 105.629 68.782 105.651 68.3394C105.672 67.8969 105.868 67.4809 106.195 67.1831C106.523 66.8853 106.955 66.7299 107.396 66.7513C107.471 66.7513 115.011 67.0404 115.988 62.3112C117.101 56.9418 105.834 52.0267 101.802 50.7256C101.381 50.5898 101.031 50.292 100.829 49.8977C100.628 49.5035 100.59 49.045 100.726 48.6233C100.861 48.2016 101.159 47.8511 101.552 47.6489C101.946 47.4467 102.403 47.4095 102.824 47.5453C105.815 48.5562 108.699 49.8579 111.437 51.4319C115.588 53.873 120.317 57.8629 119.27 62.9969C118.61 66.1896 116.248 68.4323 112.447 69.4814C110.897 69.889 109.3 70.0931 107.697 70.0886V70.0886Z" fill="#4C685F"/>
<path d="M59.0289 83.4708C84.1318 83.4708 104.482 65.3171 104.482 42.9234C104.482 20.5297 84.1318 2.37598 59.0289 2.37598C33.926 2.37598 13.576 20.5297 13.576 42.9234C13.576 65.3171 33.926 83.4708 59.0289 83.4708Z" fill="#4C685F"/>
<path d="M67.3279 49.6804C67.0877 49.6802 66.8528 49.6098 66.6518 49.478L62.3683 46.6942C62.09 46.5135 61.8948 46.2294 61.8256 45.9044C61.7564 45.5795 61.8188 45.2403 61.9993 44.9615C62.1797 44.6827 62.4633 44.4872 62.7877 44.4179C63.112 44.3485 63.4505 44.4111 63.7288 44.5919L66.961 46.6942L69.0594 43.456C69.2398 43.1772 69.5235 42.9817 69.8478 42.9123C70.1721 42.843 70.5106 42.9056 70.7889 43.0864C71.0672 43.2671 71.2624 43.5512 71.3316 43.8761C71.4008 44.2011 71.3383 44.5403 71.1579 44.819L68.3792 49.1105C68.2663 49.2867 68.1107 49.4314 67.9269 49.5311C67.743 49.6308 67.5369 49.6822 67.3279 49.6804V49.6804Z" fill="#4C685F"/>
<path d="M53.8425 44.6414C55.047 44.6414 56.0234 43.6631 56.0234 42.4564C56.0234 41.2497 55.047 40.2715 53.8425 40.2715C52.6381 40.2715 51.6616 41.2497 51.6616 42.4564C51.6616 43.6631 52.6381 44.6414 53.8425 44.6414Z" fill="#4C685F"/>
<path d="M75.9898 42.4568C77.1942 42.4568 78.1707 41.4786 78.1707 40.2719C78.1707 39.0651 77.1942 38.0869 75.9898 38.0869C74.7853 38.0869 73.8088 39.0651 73.8088 40.2719C73.8088 41.4786 74.7853 42.4568 75.9898 42.4568Z" fill="#4C685F"/>
</g>
<g clip-path="url(#clip1_541_1269)">
<path d="M54.3417 107.525H49.0894C48.8267 107.525 48.5676 107.463 48.3333 107.344C48.099 107.225 47.896 107.052 47.741 106.839C47.5859 106.627 47.4831 106.381 47.4409 106.121C47.3987 105.861 47.4182 105.595 47.498 105.344C52.3464 90.1982 48.9121 74.7797 48.8791 74.6392C48.8301 74.4255 48.8237 74.2042 48.86 73.988C48.8964 73.7718 48.9749 73.5649 49.0911 73.379C49.2073 73.1932 49.3588 73.0321 49.5372 72.905C49.7155 72.7779 49.9171 72.6872 50.1304 72.6381C50.3437 72.589 50.5646 72.5825 50.7804 72.6189C50.9962 72.6553 51.2028 72.734 51.3883 72.8504C51.5737 72.9668 51.7345 73.1187 51.8614 73.2973C51.9883 73.476 52.0788 73.6779 52.1278 73.8916C52.2721 74.5236 55.4961 88.9178 51.3033 104.183H54.3417C54.784 104.183 55.2082 104.359 55.521 104.673C55.8337 104.986 56.0093 105.411 56.0093 105.854C56.0093 106.297 55.8337 106.722 55.521 107.036C55.2082 107.349 54.784 107.525 54.3417 107.525V107.525Z" fill="#B4FFC6"/>
<path d="M78.9624 99.0572H78.8635C78.6443 99.0467 78.4294 98.9925 78.2313 98.8977C78.0333 98.8029 77.856 98.6695 77.7101 98.5052C77.5642 98.341 77.4526 98.1492 77.3816 97.9411C77.3106 97.7331 77.2818 97.5129 77.2969 97.2935L77.4824 94.076C77.5418 93.1159 77.8933 92.1971 78.4896 91.4432C79.0859 90.6893 79.8983 90.1364 80.8177 89.8589C84.0787 88.8842 89.3847 88.277 89.6073 88.2522H89.6856C91.3883 88.1366 96.2201 87.3601 98.0836 85.1834C98.3488 84.8906 98.549 84.5449 98.6712 84.1691C98.7934 83.7932 98.8348 83.3957 98.7927 83.0026C98.331 77.5382 86.136 76.043 81.8896 75.948C81.4473 75.9431 81.0251 75.7623 80.7158 75.4455C80.4065 75.1287 80.2356 74.7018 80.2405 74.2587C80.2454 73.8156 80.4259 73.3926 80.7421 73.0828C81.0583 72.7729 81.4844 72.6016 81.9266 72.6065H81.9638C85.1185 72.7217 88.2544 73.1464 91.3264 73.8746C96.0016 75.0311 101.666 77.5051 102.107 82.7217C102.183 83.5573 102.089 84.3997 101.83 85.1977C101.572 85.9957 101.154 86.7328 100.603 87.3642C99.2338 88.9585 96.9911 90.1522 93.9361 90.9163C92.6242 91.2445 91.2884 91.4682 89.9413 91.5854C89.496 91.635 84.6147 92.2132 81.7659 93.0682C81.5023 93.1487 81.2693 93.3075 81.0978 93.5236C80.9262 93.7397 80.8242 94.0029 80.8053 94.2784L80.6157 97.4959C80.5924 97.9188 80.4079 98.3167 80.1002 98.6073C79.7925 98.8978 79.3852 99.0589 78.9624 99.0572V99.0572Z" fill="#B4FFC6"/>
<path d="M12.2901 70.8141C10.6925 70.8116 9.1018 70.6034 7.5572 70.1946C3.75606 69.1455 1.37312 66.8903 0.734096 63.7058C-0.329562 58.5801 4.39918 54.5943 8.56724 52.1409C11.3045 50.5669 14.1891 49.2652 17.1796 48.2543C17.6005 48.1184 18.0581 48.1557 18.4517 48.3579C18.8452 48.56 19.1424 48.9105 19.278 49.3323C19.4136 49.754 19.3764 50.2125 19.1747 50.6067C18.9729 51.001 18.623 51.2988 18.202 51.4346C14.17 52.7357 2.90267 57.659 4.0158 63.0202C4.99289 67.7494 12.5333 67.4644 12.6116 67.4603C13.0534 67.4389 13.4855 67.5943 13.8129 67.8921C14.1404 68.1899 14.3363 68.6058 14.3576 69.0484C14.3789 69.491 14.2239 69.9239 13.9266 70.2519C13.6293 70.5799 13.2142 70.7762 12.7724 70.7976C12.7436 70.81 12.5786 70.8141 12.2901 70.8141Z" fill="#B4FFC6"/>
<path d="M108.291 67.7126C108.019 67.7126 107.854 67.7126 107.83 67.7126C107.388 67.6913 106.973 67.495 106.675 67.167C106.378 66.8389 106.223 66.406 106.245 65.9635C106.266 65.5209 106.462 65.1049 106.789 64.8071C107.117 64.5093 107.549 64.354 107.99 64.3753C108.065 64.3753 115.605 64.6645 116.582 59.9352C117.695 54.5658 106.428 49.6507 102.396 48.3497C101.975 48.2138 101.625 47.916 101.423 47.5218C101.222 47.1275 101.184 46.6691 101.32 46.2473C101.455 45.8256 101.753 45.4751 102.146 45.2729C102.54 45.0708 102.997 45.0335 103.418 45.1693C106.409 46.1802 109.293 47.482 112.031 49.056C116.182 51.497 120.911 55.4869 119.864 60.6209C119.204 63.8136 116.842 66.0564 113.041 67.1055C111.491 67.513 109.894 67.7171 108.291 67.7126V67.7126Z" fill="#B4FFC6"/>
<path d="M59.6229 81.0948C84.7258 81.0948 105.076 62.9411 105.076 40.5474C105.076 18.1537 84.7258 0 59.6229 0C34.52 0 14.17 18.1537 14.17 40.5474C14.17 62.9411 34.52 81.0948 59.6229 81.0948Z" fill="#B4FFC6"/>
<path d="M67.9219 47.3045C67.6817 47.3042 67.4468 47.2339 67.2458 47.1021L62.9622 44.3182C62.684 44.1375 62.4888 43.8534 62.4196 43.5285C62.3504 43.2035 62.4128 42.8643 62.5933 42.5855C62.7737 42.3068 63.0573 42.1112 63.3817 42.0419C63.706 41.9726 64.0445 42.0352 64.3228 42.2159L67.555 44.3182L69.6534 41.0801C69.8338 40.8013 70.1175 40.6057 70.4418 40.5364C70.7661 40.467 71.1046 40.5296 71.3829 40.7104C71.6612 40.8911 71.8564 41.1752 71.9256 41.5002C71.9948 41.8251 71.9323 42.1643 71.7519 42.4431L68.9732 46.7345C68.8603 46.9107 68.7047 47.0555 68.5209 47.1551C68.337 47.2548 68.1309 47.3062 67.9219 47.3045V47.3045Z" fill="#4C685F"/>
<path d="M54.4365 42.2654C55.641 42.2654 56.6174 41.2872 56.6174 40.0805C56.6174 38.8737 55.641 37.8955 54.4365 37.8955C53.232 37.8955 52.2556 38.8737 52.2556 40.0805C52.2556 41.2872 53.232 42.2654 54.4365 42.2654Z" fill="#4C685F"/>
<path d="M76.5837 40.0808C77.7882 40.0808 78.7647 39.1026 78.7647 37.8959C78.7647 36.6892 77.7882 35.7109 76.5837 35.7109C75.3793 35.7109 74.4028 36.6892 74.4028 37.8959C74.4028 39.1026 75.3793 40.0808 76.5837 40.0808Z" fill="#4C685F"/>
</g>
<defs>
<clipPath id="clip0_541_1269">
<rect width="119.406" height="107.525" fill="white" transform="translate(0 2.37598)"/>
</clipPath>
<clipPath id="clip1_541_1269">
<rect width="119.406" height="107.525" fill="white" transform="translate(0.593994)"/>
</clipPath>
</defs>
</svg>
