<svg width="74" height="90" viewBox="0 0 74 90" fill="none" xmlns="http://www.w3.org/2000/svg">
<g opacity="0.05" clip-path="url(#clip0_541_1288)">
<path d="M37.3003 73.5785C56.9629 73.5785 72.9025 58.0015 72.9025 38.7863C72.9025 19.5711 56.9629 3.99414 37.3003 3.99414C17.6378 3.99414 1.69812 19.5711 1.69812 38.7863C1.69812 58.0015 17.6378 73.5785 37.3003 73.5785Z" fill="#4C685F"/>
<path d="M19.7219 69.0343C18.8077 68.5264 17.9168 67.9818 17.0625 67.4004C16.8763 70.471 17.1556 76.5554 20.4399 85.7437C19.4427 87.2373 19.0271 87.8988 19.0105 87.9289C18.9071 88.08 18.8352 88.2507 18.7993 88.4306C18.7633 88.6105 18.764 88.7958 18.8014 88.9754C18.8387 89.155 18.912 89.3252 19.0167 89.4755C19.1213 89.6258 19.2552 89.7532 19.4103 89.85C19.5654 89.9469 19.7383 90.0111 19.9187 90.0387C20.0992 90.0664 20.2834 90.057 20.4601 90.0111C20.6369 89.9652 20.8025 89.8837 20.947 89.7716C21.0915 89.6595 21.2119 89.5191 21.3009 89.3589C21.3009 89.3589 21.8095 88.5403 23.0594 86.686C23.1817 86.508 23.2593 86.3028 23.2853 86.088C23.3114 85.8733 23.2852 85.6554 23.2089 85.453C20.3501 77.678 19.7385 72.2084 19.7219 69.0343Z" fill="#4C685F"/>
<path d="M56.8632 85.8002C58.758 76.4448 58.2262 70.4306 57.6178 67.3467C56.82 67.8913 55.9956 68.3992 55.1513 68.8803C55.6167 71.9475 55.8594 77.504 54.0842 85.9205C54.0406 86.1326 54.048 86.3521 54.1058 86.5608C54.1636 86.7694 54.2702 86.9612 54.4167 87.12C55.9192 88.7639 56.5341 89.4923 56.5375 89.499C56.77 89.7675 57.0982 89.9334 57.4513 89.9609C57.8044 89.9884 58.1541 89.8753 58.4249 89.646C58.6958 89.4167 58.8661 89.0896 58.8992 88.7352C58.9323 88.3808 58.8256 88.0275 58.6019 87.7515C58.5719 87.7281 58.0666 87.1334 56.8632 85.8002Z" fill="#4C685F"/>
<path d="M67.2215 15.935C67.3379 16.5498 67.5273 17.3884 67.77 18.4509C68.0126 19.5134 68.2985 20.7898 68.591 22.1764C71.4262 27.2469 72.9145 32.9658 72.9125 38.7823V38.8157C73.5374 31.6287 71.5196 22.731 70.4094 17.8428C70.1733 16.8104 69.9872 15.9918 69.8809 15.4238C69.2393 12.0324 68.1024 4.7519 68.0891 4.67839C68.0661 4.49911 68.0076 4.32625 67.9171 4.17005C67.8266 4.01386 67.7058 3.87749 67.562 3.76898C67.4181 3.66047 67.2541 3.58202 67.0796 3.53827C66.9051 3.49452 66.7237 3.48636 66.546 3.51427C66.3683 3.54217 66.198 3.60558 66.0451 3.70074C65.8921 3.79591 65.7598 3.92091 65.6557 4.06835C65.5517 4.2158 65.4781 4.38271 65.4393 4.55922C65.4005 4.73573 65.3972 4.91826 65.4297 5.09605C65.4264 5.17624 66.57 12.5002 67.2215 15.935Z" fill="#4C685F"/>
<path d="M6.20907 21.8121C6.60133 19.8341 7.00684 18.0432 7.33262 16.6131C7.57196 15.5506 7.76481 14.712 7.88116 14.0938C8.52938 10.6624 9.6762 3.3351 9.68618 3.26159C9.71332 2.92054 9.61127 2.58177 9.40042 2.31316C9.18958 2.04456 8.88556 1.86596 8.54924 1.81314C8.21293 1.76032 7.86912 1.83718 7.5868 2.02833C7.30448 2.21948 7.10447 2.51082 7.02681 2.84394C7.02681 2.91745 5.88 10.1946 5.23843 13.5893C5.12873 14.1573 4.94255 14.9726 4.70986 16.0084C3.76578 20.1515 2.1702 27.1747 2.0871 33.5966C2.7244 29.446 4.12201 25.4503 6.20907 21.8121V21.8121Z" fill="#4C685F"/>
<path d="M27.1183 39.7649C28.1078 39.7649 28.91 38.9586 28.91 37.964C28.91 36.9694 28.1078 36.1631 27.1183 36.1631C26.1287 36.1631 25.3265 36.9694 25.3265 37.964C25.3265 38.9586 26.1287 39.7649 27.1183 39.7649Z" fill="#4C685F"/>
<path d="M45.3083 41.6028C46.2979 41.6028 47.1001 40.7965 47.1001 39.8019C47.1001 38.8073 46.2979 38.001 45.3083 38.001C44.3188 38.001 43.5166 38.8073 43.5166 39.8019C43.5166 40.7965 44.3188 41.6028 45.3083 41.6028Z" fill="#4C685F"/>
<path d="M35.7413 46.9017C35.5855 46.9018 35.4317 46.8652 35.2925 46.7948C32.6332 45.4583 31.7656 40.1124 31.6758 39.4909C31.6512 39.341 31.6607 39.1874 31.7038 39.0418C31.7469 38.8961 31.8224 38.7622 31.9246 38.6502C32.0267 38.5382 32.1529 38.451 32.2935 38.3952C32.4341 38.3394 32.5855 38.3165 32.7362 38.3281L39.7835 38.7491C39.94 38.7548 40.0929 38.7974 40.23 38.8735C40.367 38.9496 40.4843 39.0571 40.5724 39.1872C40.6604 39.3174 40.7168 39.4665 40.7368 39.6226C40.7568 39.7787 40.74 39.9373 40.6877 40.0856C40.5015 40.667 38.8029 45.8158 36.1136 46.8483C35.9937 46.8886 35.8676 46.9067 35.7413 46.9017V46.9017ZM33.9197 40.4331C34.3019 42.0637 34.9767 43.9047 35.8045 44.6898C36.7153 43.9949 37.6594 42.2641 38.2976 40.6804L33.9197 40.4331Z" fill="#4C685F"/>
</g>
<g clip-path="url(#clip1_541_1288)">
<path d="M35.6022 71.8803C55.2648 71.8803 71.2044 56.3033 71.2044 37.0881C71.2044 17.8729 55.2648 2.2959 35.6022 2.2959C15.9396 2.2959 0 17.8729 0 37.0881C0 56.3033 15.9396 71.8803 35.6022 71.8803Z" fill="#C7C6FF"/>
<path d="M18.0237 67.336C17.1096 66.8281 16.2187 66.2835 15.3644 65.7021C15.1782 68.7727 15.4575 74.8571 18.7418 84.0455C17.7446 85.539 17.329 86.2006 17.3124 86.2306C17.2089 86.3818 17.1371 86.5525 17.1011 86.7324C17.0652 86.9123 17.0659 87.0976 17.1033 87.2772C17.1406 87.4568 17.2139 87.6269 17.3186 87.7772C17.4232 87.9276 17.5571 88.055 17.7122 88.1518C17.8672 88.2486 18.0402 88.3128 18.2206 88.3405C18.4011 88.3682 18.5853 88.3588 18.762 88.3129C18.9388 88.267 19.1044 88.1855 19.2489 88.0734C19.3934 87.9613 19.5138 87.8209 19.6027 87.6607C19.6027 87.6607 20.1114 86.8421 21.3613 84.9877C21.4836 84.8097 21.5611 84.6045 21.5872 84.3898C21.6132 84.175 21.587 83.9571 21.5108 83.7548C18.652 75.9798 18.0404 70.5102 18.0237 67.336Z" fill="#C7C6FF"/>
<path d="M55.1651 84.102C57.0599 74.7466 56.528 68.7324 55.9197 65.6484C55.1219 66.1931 54.2975 66.7009 53.4532 67.182C53.9186 70.2493 54.1612 75.8057 52.3861 84.2223C52.3425 84.4344 52.3499 84.6539 52.4077 84.8625C52.4655 85.0712 52.5721 85.2629 52.7185 85.4218C54.2211 87.0657 54.836 87.7941 54.8393 87.8007C55.0718 88.0692 55.4001 88.2351 55.7532 88.2626C56.1063 88.2901 56.4559 88.177 56.7268 87.9477C56.9977 87.7184 57.168 87.3913 57.2011 87.0369C57.2342 86.6825 57.1274 86.3292 56.9037 86.0533C56.8738 86.0299 56.3685 85.4352 55.1651 84.102Z" fill="#C7C6FF"/>
<path d="M65.5234 14.2367C65.6397 14.8515 65.8292 15.6902 66.0718 16.7527C66.3145 17.8152 66.6004 19.0915 66.8929 20.4781C69.7281 25.5487 71.2164 31.2676 71.2144 37.084V37.1174C71.8393 29.9305 69.8215 21.0328 68.7112 16.1446C68.4752 15.1121 68.2891 14.2935 68.1827 13.7255C67.5412 10.3342 66.4043 3.05366 66.391 2.98015C66.368 2.80086 66.3095 2.62801 66.219 2.47181C66.1285 2.31562 66.0077 2.17925 65.8638 2.07074C65.72 1.96222 65.556 1.88378 65.3815 1.84003C65.207 1.79628 65.0256 1.78812 64.8479 1.81603C64.6702 1.84393 64.4998 1.90734 64.3469 2.0025C64.194 2.09767 64.0617 2.22267 63.9576 2.37011C63.8536 2.51755 63.78 2.68447 63.7412 2.86097C63.7024 3.03748 63.6991 3.22002 63.7316 3.39781C63.7283 3.478 64.8718 10.802 65.5234 14.2367Z" fill="#C7C6FF"/>
<path d="M4.51095 20.1138C4.90321 18.1358 5.30872 16.3449 5.63449 14.9149C5.87384 13.8524 6.06669 13.0137 6.18304 12.3956C6.83126 8.96416 7.97808 1.63686 7.98806 1.56335C8.0152 1.2223 7.91315 0.883526 7.7023 0.614922C7.49146 0.346318 7.18744 0.167719 6.85112 0.114901C6.51481 0.0620821 6.17099 0.138937 5.88868 0.33009C5.60636 0.521243 5.40635 0.812579 5.32869 1.1457C5.32869 1.2192 4.18188 8.49638 3.54031 11.8911C3.43061 12.4591 3.24443 13.2743 3.01174 14.3101C2.06766 18.4532 0.472082 25.4765 0.388977 31.8983C1.02628 27.7478 2.42389 23.752 4.51095 20.1138V20.1138Z" fill="#C7C6FF"/>
<path d="M25.4202 38.0667C26.4097 38.0667 27.2119 37.2604 27.2119 36.2658C27.2119 35.2711 26.4097 34.4648 25.4202 34.4648C24.4306 34.4648 23.6284 35.2711 23.6284 36.2658C23.6284 37.2604 24.4306 38.0667 25.4202 38.0667Z" fill="#4C685F"/>
<path d="M43.6102 39.9046C44.5998 39.9046 45.402 39.0983 45.402 38.1037C45.402 37.109 44.5998 36.3027 43.6102 36.3027C42.6207 36.3027 41.8185 37.109 41.8185 38.1037C41.8185 39.0983 42.6207 39.9046 43.6102 39.9046Z" fill="#4C685F"/>
<path d="M34.0432 45.2035C33.8874 45.2036 33.7336 45.167 33.5944 45.0966C30.935 43.7601 30.0675 38.4141 29.9777 37.7927C29.9531 37.6428 29.9626 37.4892 30.0057 37.3435C30.0488 37.1979 30.1243 37.064 30.2265 36.952C30.3286 36.84 30.4548 36.7528 30.5954 36.697C30.736 36.6412 30.8874 36.6183 31.0381 36.6299L38.0854 37.0509C38.2419 37.0566 38.3948 37.0992 38.5318 37.1753C38.6689 37.2514 38.7862 37.3589 38.8742 37.489C38.9623 37.6191 39.0186 37.7683 39.0387 37.9243C39.0587 38.0804 39.0419 38.2391 38.9896 38.3874C38.8034 38.9688 37.1047 44.1176 34.4155 45.15C34.2956 45.1904 34.1695 45.2085 34.0432 45.2035V45.2035ZM32.2215 38.7349C32.6038 40.3654 33.2786 42.2064 34.1063 42.9916C35.0172 42.2966 35.9612 40.5659 36.5995 38.9821L32.2215 38.7349Z" fill="#4C685F"/>
</g>
<defs>
<clipPath id="clip0_541_1288">
<rect width="71.3208" height="88.3019" fill="white" transform="translate(1.69812 1.69824)"/>
</clipPath>
<clipPath id="clip1_541_1288">
<rect width="71.3208" height="88.3019" fill="white"/>
</clipPath>
</defs>
</svg>
