<svg width="225" height="289" viewBox="0 0 225 289" fill="none" xmlns="http://www.w3.org/2000/svg">
<path d="M210.233 192.424H210.306C213.579 192.334 216.711 191.065 219.127 188.849C221.542 186.633 223.081 183.618 223.46 180.358C223.839 177.097 223.034 173.809 221.192 171.095C219.349 168.381 216.593 166.424 213.428 165.581C206.657 163.776 199.854 162.319 193.069 160.963C186.283 159.606 179.519 158.417 172.81 157.266L152.908 153.931L148.051 153.076C146.449 152.783 144.818 152.523 143.236 152.213C141.654 151.904 140.052 151.615 138.501 151.295L136.142 150.839L133.839 150.349L132.691 150.102L132.111 149.977L131.501 149.838L129.055 149.278L124.157 148.217L114.426 146.03C111.231 145.255 107.974 144.594 104.824 143.794C101.619 143.098 98.5105 142.26 95.3745 141.52C93.8343 141.123 92.3009 140.702 90.7503 140.327L86.2128 139.089C83.233 138.24 80.2809 137.385 77.4016 136.432C74.5223 135.479 71.6465 134.491 68.5695 133.354C65.4925 132.217 62.1761 130.951 58.5753 129.786C55.1467 128.668 51.4309 128.827 48.1095 130.233C44.788 131.639 42.0836 134.198 40.4921 137.441C38.9006 140.684 38.5289 144.394 39.445 147.89C40.3611 151.385 42.5037 154.433 45.4798 156.473L45.851 156.727C48.4458 158.504 51.2106 160.396 54.3049 162.291C55.8244 163.254 57.4687 164.2 59.0956 165.146C60.7226 166.092 62.4398 166.996 64.1639 167.848C65.888 168.7 67.6051 169.531 69.3396 170.335C71.0741 171.138 72.8086 171.841 74.5431 172.595L79.7674 174.623C80.1872 174.779 80.6104 174.925 81.0336 175.075C80.9192 176.758 80.8359 178.378 80.7492 180.034C80.6763 182.082 80.5653 184.134 80.5271 186.179C80.4057 190.272 80.371 194.361 80.3641 198.454C80.3572 202.548 80.4265 206.644 80.5514 210.744L80.7492 216.896L81.044 223.062C81.2279 227.169 81.5054 231.293 81.8142 235.421C81.9807 237.487 82.1298 239.556 82.3137 241.622L82.9346 247.853C83.0456 248.897 83.1289 249.94 83.2815 250.983L83.677 254.113C83.9511 256.2 84.18 258.286 84.5373 260.411L85.0334 263.583C85.2068 264.647 85.3491 265.669 85.5711 266.764C85.977 268.917 86.4106 271.063 86.8477 273.205C87.6605 277.159 89.8561 280.692 93.0385 283.167C96.2209 285.642 100.181 286.895 104.204 286.7C108.226 286.506 112.048 284.877 114.978 282.107C117.908 279.338 119.755 275.609 120.185 271.595C121.375 261.343 124.441 248.719 135.403 248.925C147.125 249.144 153.321 249.317 159.978 251.425C166.385 253.452 180.261 264.417 190.033 278.87C192.133 282.331 195.403 284.92 199.248 286.168C203.092 287.415 207.256 287.238 210.98 285.668C214.705 284.097 217.744 281.239 219.544 277.612C221.343 273.985 221.784 269.831 220.786 265.906C220.217 263.635 219.638 261.364 219.027 259.093C218.392 256.913 217.698 254.788 217.025 252.632C216.679 251.54 216.332 250.51 215.957 249.477L214.85 246.368C214.479 245.325 214.122 244.282 213.733 243.273L212.554 240.248C209.432 232.152 206.022 224.342 202.424 216.663C198.827 208.985 195.115 201.424 191.161 193.989L190.325 192.438C196.968 192.55 203.594 192.602 210.233 192.424Z" fill="white"/>
<path d="M204.374 288.333C201.265 288.333 198.207 287.534 195.494 286.012C192.781 284.49 190.503 282.295 188.878 279.639C182.678 270.475 168.691 255.643 159.571 252.764C153.206 250.75 147.232 250.552 135.392 250.33C127.688 250.19 123.293 256.996 121.579 271.769L121.388 273.396H121.333C120.513 277.549 118.285 281.289 115.026 283.982C111.768 286.674 107.68 288.153 103.457 288.167C99.234 288.18 95.1368 286.728 91.8611 284.056C88.5854 281.385 86.3333 277.659 85.4874 273.511C85.0433 271.345 84.6166 269.223 84.2073 267.05C84.0408 266.236 83.9159 265.436 83.7945 264.661C83.7529 264.386 83.7078 264.111 83.6627 263.833L83.1666 260.654C82.896 259.062 82.6983 257.473 82.5075 255.932C82.4381 255.396 82.3722 254.861 82.3028 254.322L81.9039 251.192C81.8102 250.496 81.7443 249.801 81.6749 249.105C81.6402 248.758 81.6055 248.41 81.5674 248.041L80.9464 241.782C80.825 240.412 80.7175 239.055 80.5995 237.699C80.544 236.987 80.4874 236.272 80.4296 235.553C80.1763 232.159 79.8606 227.691 79.656 223.145L79.3611 216.987L79.1634 210.81C79.0315 206.484 78.9934 202.151 78.976 198.482C78.976 193.68 79.035 189.768 79.1426 186.158C79.1668 184.805 79.2223 183.425 79.2778 182.086C79.3079 181.39 79.3357 180.695 79.3611 179.999C79.427 178.705 79.4964 177.394 79.5797 176.049L79.2882 175.944L73.9946 173.886L72.2878 173.155C71.1326 172.661 69.9393 172.154 68.7564 171.618C67.1329 170.863 65.3082 170.018 63.5182 169.1C62.1097 168.405 60.7117 167.636 59.3554 166.896L58.3806 166.364L57.7423 165.953C56.3547 165.139 54.9046 164.301 53.5795 163.456C50.4261 161.512 47.5885 159.565 45.0839 157.85L44.6988 157.607C41.4448 155.38 39.1014 152.051 38.0986 148.231C37.0958 144.411 37.501 140.357 39.2398 136.812C40.9786 133.268 43.9342 130.471 47.5643 128.935C51.1944 127.399 55.2552 127.227 59.0015 128.451C62.3491 129.543 65.5267 130.725 68.3331 131.765L69.0512 132.033C71.6287 132.986 74.6849 134.095 77.8209 135.09C80.6585 136.029 83.5898 136.877 86.5905 137.736L91.1002 138.964C92.1409 139.214 93.1816 139.489 94.1772 139.753L95.7244 140.157C96.9351 140.442 98.1527 140.748 99.4085 141.054C101.271 141.516 103.2 141.993 105.125 142.42H105.167C106.902 142.862 108.73 143.272 110.488 143.669C111.876 143.985 113.337 144.309 114.755 144.653L124.469 146.837L129.36 147.908L134.14 148.979L136.44 149.469L138.761 149.922C140.024 150.182 141.324 150.429 142.577 150.669L143.482 150.84C144.45 151.027 145.453 151.187 146.424 151.372L148.283 151.695L153.14 152.551L173.031 155.886C181.225 157.277 187.483 158.431 193.332 159.589C199.375 160.796 206.514 162.291 213.778 164.225C217.251 165.166 220.271 167.326 222.288 170.312C224.305 173.298 225.185 176.911 224.768 180.493C224.35 184.075 222.663 187.388 220.014 189.827C217.364 192.267 213.929 193.671 210.333 193.784H210.226C204.065 193.948 197.998 193.913 192.655 193.836C196.631 201.348 200.332 208.818 203.666 216.051C207.548 224.328 210.871 232.072 213.83 239.699L215.006 242.724C215.27 243.42 215.516 244.115 215.755 244.776C215.88 245.124 216.009 245.496 216.137 245.85L217.247 248.98C217.594 249.975 217.983 251.046 218.333 252.194C218.52 252.795 218.715 253.404 218.905 254.009C219.384 255.525 219.88 257.093 220.341 258.672C220.983 261.047 221.569 263.374 222.114 265.534C222.787 268.236 222.836 271.057 222.258 273.782C221.681 276.507 220.491 279.064 218.78 281.259C217.068 283.454 214.881 285.229 212.383 286.449C209.885 287.669 207.142 288.303 204.363 288.301L204.374 288.333ZM135.153 247.534H135.448C147.558 247.763 153.678 247.965 160.425 250.097C167.71 252.406 181.825 264.202 191.212 278.088L191.243 278.143C193.18 281.301 196.18 283.66 199.701 284.793C203.222 285.926 207.032 285.758 210.44 284.32C213.848 282.882 216.631 280.268 218.283 276.951C219.936 273.635 220.35 269.835 219.45 266.239C218.909 264.09 218.326 261.781 217.698 259.455C217.254 257.935 216.761 256.381 216.286 254.878C216.095 254.266 215.901 253.658 215.71 253.042C215.363 251.943 215.017 250.91 214.67 249.944L213.563 246.835C213.431 246.487 213.303 246.115 213.174 245.75C212.942 245.092 212.699 244.411 212.453 243.771L211.28 240.749C208.342 233.168 205.036 225.482 201.186 217.251C197.789 209.889 194.015 202.297 189.956 194.647C189.766 194.299 189.568 193.92 189.37 193.555L187.983 191.009L190.355 191.051C196.218 191.148 203.156 191.225 210.209 191.051H210.313C213.249 190.962 216.056 189.817 218.219 187.825C220.383 185.832 221.759 183.126 222.096 180.2C222.432 177.275 221.708 174.325 220.054 171.891C218.4 169.457 215.927 167.701 213.088 166.944C205.91 165.032 198.813 163.547 192.815 162.35C186.98 161.178 180.743 160.041 172.566 158.65L152.672 155.315L147.791 154.456C147.173 154.342 146.559 154.237 145.945 154.129C144.96 153.959 143.94 153.782 142.951 153.59L142.053 153.42C140.783 153.18 139.469 152.93 138.199 152.665L135.868 152.213L131.181 151.201L128.753 150.641L123.865 149.57L114.127 147.379C112.709 147.032 111.269 146.712 109.881 146.399C108.112 146.002 106.281 145.592 104.508 145.143C102.555 144.709 100.616 144.229 98.7424 143.752C97.5144 143.446 96.2898 143.144 95.0584 142.855L93.473 142.445C92.4774 142.184 91.4471 141.913 90.4307 141.666H90.3925L85.8412 140.417C82.792 139.548 79.8329 138.679 76.9571 137.74C73.7864 136.731 70.6886 135.611 68.0834 134.648L67.3583 134.377C64.4444 133.295 61.4298 132.172 58.1377 131.101C55.0272 130.088 51.657 130.234 48.6446 131.51C45.6322 132.786 43.1795 135.108 41.7361 138.05C40.2926 140.992 39.9551 144.356 40.7853 147.527C41.6155 150.698 43.5579 153.463 46.2564 155.315L46.6276 155.569C49.1044 157.266 51.9109 159.189 55.026 161.109C56.3269 161.937 57.7457 162.761 59.1195 163.543L59.7682 163.922L60.6979 164.43C62.023 165.157 63.3967 165.908 64.7705 166.586C66.5293 167.49 68.3297 168.325 69.915 169.059C71.0598 169.577 72.2392 170.081 73.384 170.568L75.0873 171.309L80.2908 173.329C80.5544 173.426 80.8424 173.531 81.1338 173.632L82.5214 174.122L82.4485 175.165C82.334 176.855 82.2473 178.504 82.1641 180.1C82.1432 180.775 82.112 181.474 82.0843 182.186C82.0288 183.511 81.9698 184.878 81.9455 186.21C81.8414 189.809 81.7894 193.697 81.7825 198.465C81.7998 202.106 81.838 206.415 81.9663 210.71L82.1675 216.858L82.4416 222.985C82.6463 227.506 82.9585 231.94 83.2117 235.306C83.2672 236.016 83.3227 236.731 83.3782 237.452C83.4857 238.798 83.5898 240.144 83.7251 241.49L84.3461 247.704C84.3842 248.052 84.4189 248.42 84.4571 248.782C84.5195 249.439 84.5854 250.117 84.6722 250.778L85.0711 253.908C85.1405 254.444 85.2098 254.986 85.2758 255.525C85.4665 257.038 85.6608 258.599 85.921 260.147L86.4205 263.336C86.4656 263.61 86.5107 263.892 86.5523 264.17C86.6772 264.949 86.7917 265.687 86.9478 266.455C87.3572 268.629 87.7838 270.739 88.2209 272.896C88.9634 276.53 90.9778 279.778 93.9001 282.053C96.8225 284.329 100.46 285.481 104.156 285.303C107.852 285.125 111.363 283.628 114.054 281.082C116.746 278.536 118.44 275.11 118.831 271.421L118.963 270.173H118.984C119.813 263.35 122.436 247.534 135.153 247.534Z" fill="#C9C9C9"/>
<path d="M180.15 135.653C187.348 135.653 193.183 129.803 193.183 122.588C193.183 115.372 187.348 109.522 180.15 109.522C172.952 109.522 167.117 115.372 167.117 122.588C167.117 129.803 172.952 135.653 180.15 135.653Z" fill="#F7E5CB"/>
<path d="M94.1776 135.653C101.376 135.653 107.211 129.803 107.211 122.588C107.211 115.372 101.376 109.522 94.1776 109.522C86.9796 109.522 81.1445 115.372 81.1445 122.588C81.1445 129.803 86.9796 135.653 94.1776 135.653Z" fill="#F7E5CB"/>
<path d="M154.544 166.981C155.138 159.362 146.591 152.478 135.454 151.605C124.316 150.732 114.806 156.201 114.212 163.82C113.617 171.439 122.164 178.323 133.302 179.196C144.439 180.068 153.95 174.6 154.544 166.981Z" fill="#E8E7E6"/>
<path d="M179.266 61.9457C179.627 61.3751 179.848 60.7268 179.911 60.0539C180.671 52.285 178.929 40.0857 171.745 37.7105C167.742 36.389 161.088 39.644 153.786 48.4493C141.364 44.869 128.231 44.5588 115.654 47.5486C108.651 39.4215 102.323 36.4203 98.4586 37.7105C91.5206 40.0057 89.6577 51.4643 90.2232 59.2436C74.4635 70.7788 64.3652 88.5353 64.3652 108.462C64.3652 143.237 95.1006 171.406 133.017 171.406C170.933 171.406 201.665 143.237 201.665 108.462C201.665 90.0341 193.034 73.4495 179.266 61.9457Z" fill="white"/>
<path d="M133.02 172.797C94.3992 172.797 62.9805 143.933 62.9805 108.462C62.9805 88.9876 72.378 70.8625 88.7933 58.5727C88.4464 51.6385 89.9554 39.0601 98.0278 36.3928C102.697 34.8452 109.437 38.4341 116.153 46.0048C128.42 43.2319 141.178 43.5281 153.303 46.8672C160.289 38.688 167.307 34.7792 172.181 36.3928C180.309 39.0775 182.085 52.0975 181.294 60.1898C181.256 60.6071 181.194 60.9479 181.128 61.3096C181.107 61.4162 181.086 61.5322 181.065 61.6574C195.254 73.801 203.055 90.396 203.055 108.476C203.052 143.937 171.633 172.797 133.02 172.797ZM100.39 38.8027C99.8818 38.8001 99.3761 38.8776 98.8916 39.0322C95.5336 40.1451 93.754 43.9009 92.8521 46.829C91.7524 50.4213 91.2979 54.9109 91.6067 59.1431L91.6622 59.9116L91.0447 60.3672C74.9728 72.1318 65.7557 89.6588 65.7557 108.462C65.7557 142.403 95.936 170.015 133.02 170.015C170.103 170.015 200.28 142.403 200.28 108.462C200.28 90.9698 192.614 74.9208 178.689 63.2744L178.106 62.7876L178.2 62.0295C178.266 61.5252 178.335 61.1427 178.398 60.8054C178.46 60.468 178.505 60.2211 178.533 59.9186C179.258 52.48 177.492 41.0805 171.314 39.0322C166.731 37.5195 159.582 43.64 154.854 49.3398L154.274 50.0353L153.4 49.7849C141.21 46.2691 128.322 45.9637 115.98 48.8981L115.158 49.0929L114.606 48.453C110.572 43.7791 104.706 38.8027 100.39 38.8027Z" fill="#C9C9C9"/>
<path d="M116.792 112.451C119.089 112.451 120.951 110.584 120.951 108.281C120.951 105.978 119.089 104.111 116.792 104.111C114.495 104.111 112.633 105.978 112.633 108.281C112.633 110.584 114.495 112.451 116.792 112.451Z" fill="black"/>
<path d="M150.826 112.451C153.123 112.451 154.986 110.584 154.986 108.281C154.986 105.978 153.123 104.111 150.826 104.111C148.529 104.111 146.667 105.978 146.667 108.281C146.667 110.584 148.529 112.451 150.826 112.451Z" fill="black"/>
<path d="M137.574 112.451C136.551 112.36 134.307 112.409 133.807 112.409C133.308 112.409 131.063 112.36 130.04 112.451C128.944 112.548 127.143 113.842 127.806 115.928C128.468 118.015 132.121 118.846 133.301 118.846H134.314C135.493 118.846 139.153 117.994 139.808 115.928C140.464 113.863 138.671 112.548 137.574 112.451Z" fill="black"/>
<path d="M99.4022 55.808C99.1387 55.8959 98.8588 55.9234 98.5833 55.8882C98.3078 55.8531 98.0437 55.7564 97.8105 55.6051C97.5774 55.4538 97.3811 55.2519 97.2363 55.0144C97.0915 54.7768 97.0018 54.5096 96.9739 54.2326C96.6513 50.922 97.6156 46.9958 100.852 45.9282C103.794 44.9544 107.19 47.4374 108.897 50.289C109.038 50.5282 109.125 50.7963 109.149 51.0733C109.174 51.3504 109.136 51.6294 109.038 51.8898C108.94 52.1502 108.786 52.3853 108.585 52.5777C108.385 52.7701 108.144 52.915 107.88 53.0016L99.4022 55.808Z" fill="#F2DBAD"/>
<path d="M170.801 55.808C171.065 55.8959 171.344 55.9234 171.62 55.8882C171.895 55.8531 172.16 55.7564 172.393 55.6051C172.626 55.4538 172.822 55.2519 172.967 55.0144C173.112 54.7768 173.201 54.5096 173.229 54.2326C173.552 50.922 172.584 46.9958 169.351 45.9282C166.406 44.9544 163.01 47.4374 161.306 50.289C161.165 50.528 161.078 50.7958 161.054 51.0727C161.029 51.3496 161.067 51.6285 161.164 51.8888C161.261 52.1491 161.415 52.3843 161.615 52.5769C161.815 52.7695 162.056 52.9146 162.319 53.0016L170.801 55.808Z" fill="#F2DBAD"/>
<path d="M133.808 126.605C133.44 126.605 133.087 126.458 132.826 126.197C132.566 125.936 132.42 125.582 132.42 125.214V118.846C132.42 118.477 132.566 118.123 132.826 117.863C133.087 117.602 133.44 117.455 133.808 117.455C134.176 117.455 134.528 117.602 134.789 117.863C135.049 118.123 135.195 118.477 135.195 118.846V125.214C135.195 125.582 135.049 125.936 134.789 126.197C134.528 126.458 134.176 126.605 133.808 126.605Z" fill="black"/>
<path d="M136.981 126.928H130.633C130.265 126.928 129.912 126.781 129.652 126.521C129.392 126.26 129.246 125.906 129.246 125.537C129.246 125.168 129.392 124.814 129.652 124.553C129.912 124.293 130.265 124.146 130.633 124.146H136.981C137.349 124.146 137.702 124.293 137.963 124.553C138.223 124.814 138.369 125.168 138.369 125.537C138.369 125.906 138.223 126.26 137.963 126.521C137.702 126.781 137.349 126.928 136.981 126.928Z" fill="black"/>
<path d="M220.172 66.3204C220.172 83.2284 180.452 94.2036 134.515 94.2036C88.5788 94.2036 47.4434 83.2284 47.4434 66.3204C47.4434 49.4125 96.117 35.7178 134.515 35.7178C174.648 35.7108 220.172 49.4159 220.172 66.3204Z" fill="#F8CC81"/>
<path d="M179.619 52.7961H87.9961L91.3923 33.0678C94.5144 14.901 112.553 1.44971 133.822 1.44971C155.083 1.44971 173.136 14.901 176.251 33.0678L179.619 52.7961Z" fill="#F8CC81"/>
<path d="M66.1444 66.9432L68.8919 68.2056C69.8424 68.6322 70.8021 69.0472 71.7711 69.4506C72.7425 69.84 73.7173 70.2295 74.7094 70.5912C75.7015 70.9529 76.7006 71.3041 77.6997 71.6936L77.7586 71.7179C78.2142 71.895 78.5898 72.2324 78.815 72.667C79.0403 73.1017 79.0998 73.6037 78.9824 74.0792C78.865 74.5546 78.5788 74.9708 78.1773 75.2499C77.7758 75.5291 77.2865 75.6519 76.8012 75.5954C75.6354 75.4631 74.4814 75.241 73.3495 74.9312C72.2104 74.6323 71.0912 74.2618 69.9985 73.8219C68.9007 73.3795 67.8344 72.8624 66.807 72.2744C66.289 71.9822 65.7825 71.6635 65.2876 71.318C65.0413 71.1441 64.7984 70.9703 64.5556 70.7755C64.3128 70.5808 64.0942 70.4034 63.8028 70.1426C63.4495 69.8255 63.2212 69.3921 63.1592 68.9208C63.0971 68.4495 63.2055 67.9716 63.4646 67.5735C63.7238 67.1754 64.1166 66.8835 64.5719 66.7506C65.0272 66.6178 65.5149 66.6528 65.9467 66.8493L66.1444 66.9432Z" fill="#FFDDA6"/>
<path d="M72.2256 56.0619C72.4649 56.1801 72.7806 56.3888 73.0755 56.5418L73.9635 57.0634C74.5602 57.4112 75.1499 57.7589 75.7431 58.0719C76.3363 58.3849 76.9295 58.6979 77.5193 58.9969L79.2815 59.8281L79.4793 59.9185C79.8643 60.1004 80.1767 60.4074 80.3657 60.7897C80.5548 61.172 80.6093 61.6072 80.5205 62.0245C80.4317 62.4418 80.2048 62.8168 79.8766 63.0885C79.5484 63.3602 79.1382 63.5127 78.7126 63.5213C77.8276 63.538 76.944 63.4422 76.0831 63.2361C75.2519 63.038 74.4395 62.768 73.6548 62.4293C72.8909 62.101 72.1513 61.7186 71.4416 61.2852C71.0947 61.0696 70.7478 60.84 70.4009 60.5897C70.054 60.3393 69.7556 60.1063 69.3879 59.7759C68.9818 59.3947 68.7248 58.8807 68.6633 58.3264C68.6017 57.7721 68.7396 57.214 69.0522 56.7526C69.3647 56.2912 69.8314 55.9569 70.368 55.8099C70.9047 55.6628 71.4761 55.7127 71.9793 55.9506L72.2256 56.0619Z" fill="#FFDDA6"/>
<path d="M114.166 26.5231C113.55 26.5109 112.937 26.441 112.334 26.3145C111.747 26.1959 111.168 26.0414 110.6 25.852C109.457 25.4896 108.372 24.9687 107.373 24.3044C106.958 24.0166 106.65 23.5976 106.499 23.1142C106.348 22.6308 106.363 22.1107 106.54 21.6366C106.718 21.1625 107.049 20.7616 107.48 20.4976C107.912 20.2337 108.419 20.1219 108.921 20.18H109.011C109.558 20.2496 110.099 20.3577 110.631 20.5034C111.158 20.6356 111.672 20.7956 112.195 20.959C112.719 21.1225 113.236 21.3068 113.729 21.5119C114.231 21.7064 114.718 21.9389 115.186 22.2075L115.359 22.3118C115.785 22.5684 116.115 22.959 116.298 23.4229C116.48 23.8868 116.504 24.398 116.367 24.8772C116.23 25.3564 115.939 25.7768 115.539 26.0732C115.139 26.3695 114.653 26.5252 114.155 26.5162L114.166 26.5231Z" fill="#FFDDA6"/>
<path d="M104.505 32.2613C104.037 32.2425 103.573 32.1796 103.117 32.0735C102.68 31.9772 102.249 31.8541 101.827 31.7049C100.972 31.4141 100.162 31.0056 99.4193 30.4912C99.11 30.2664 98.8848 29.944 98.7799 29.5757C98.675 29.2074 98.6965 28.8144 98.8408 28.4598C98.9851 28.1051 99.2439 27.8092 99.5759 27.6196C99.9078 27.4299 100.294 27.3573 100.672 27.4136H100.713C101.525 27.5543 102.324 27.7649 103.1 28.043C103.482 28.1821 103.867 28.3212 104.241 28.4846C104.617 28.6369 104.981 28.8171 105.33 29.0237L105.459 29.1071C105.776 29.3063 106.019 29.6048 106.15 29.9564C106.28 30.3081 106.292 30.6931 106.182 31.0518C106.072 31.4106 105.847 31.7229 105.542 31.9403C105.237 32.1577 104.869 32.2681 104.494 32.2543L104.505 32.2613Z" fill="#FFDDA6"/>
<path d="M105.962 45.2082C105.175 45.0683 104.399 44.8696 103.641 44.6135C102.892 44.3701 102.157 44.0814 101.428 43.765C99.9285 43.1372 98.5155 42.3191 97.2237 41.3307C96.8159 41.0045 96.5347 40.5457 96.4286 40.0337C96.3225 39.5217 96.3982 38.9886 96.6426 38.5266C96.8871 38.0646 97.2848 37.7027 97.7672 37.5035C98.2495 37.3043 98.7861 37.2804 99.2842 37.4358L99.3918 37.4706C100.086 37.6862 100.748 37.9435 101.428 38.2113C102.108 38.4791 102.784 38.7642 103.468 39.0529C104.151 39.3415 104.828 39.651 105.497 39.9814C106.175 40.2999 106.834 40.6563 107.471 41.049L107.534 41.0873C107.972 41.3649 108.301 41.7861 108.464 42.2793C108.628 42.7725 108.616 43.3073 108.431 43.7928C108.246 44.2784 107.899 44.6846 107.449 44.9426C106.999 45.2007 106.473 45.2945 105.962 45.2082Z" fill="#FFDDA6"/>
<path d="M191.646 56.6216C191.095 57.1366 190.506 57.6086 189.884 58.0335C189.273 58.4613 188.638 58.8508 187.986 59.2194C186.67 59.9837 185.265 60.5818 183.803 60.9999C183.3 61.1326 182.768 61.0864 182.295 60.8694C181.823 60.6524 181.441 60.2779 181.213 59.8097C180.986 59.3416 180.927 58.8089 181.048 58.3023C181.168 57.7958 181.46 57.3468 181.874 57.032L181.95 56.9764C182.502 56.5556 183.081 56.1835 183.685 55.8148C184.288 55.4462 184.878 55.095 185.485 54.7437C186.092 54.3925 186.713 54.0482 187.348 53.7457C187.977 53.4199 188.624 53.1319 189.287 52.8832L189.356 52.8589C189.842 52.6882 190.371 52.6897 190.856 52.8631C191.341 53.0366 191.751 53.3715 192.019 53.8119C192.287 54.2523 192.396 54.7716 192.328 55.283C192.261 55.7944 192.02 56.2669 191.646 56.6216Z" fill="#E1A962"/>
<path d="M186.946 68.1115C186.316 68.527 185.656 68.8944 184.972 69.2104C184.302 69.5338 183.608 69.812 182.89 70.0694C181.466 70.603 179.982 70.9592 178.471 71.13C177.954 71.1774 177.436 71.0437 177.007 70.7515C176.577 70.4593 176.261 70.0268 176.114 69.5276C175.967 69.0285 175.997 68.4936 176.199 68.014C176.401 67.5345 176.762 67.14 177.222 66.8978L177.305 66.8561C177.919 66.5327 178.554 66.2614 179.196 65.9971C179.838 65.7328 180.49 65.4824 181.145 65.2355C181.801 64.9886 182.471 64.7626 183.147 64.5574C183.822 64.3433 184.509 64.168 185.204 64.0323H185.274C185.782 63.9412 186.306 64.028 186.758 64.2782C187.21 64.5283 187.562 64.9266 187.756 65.4063C187.95 65.886 187.974 66.4179 187.823 66.913C187.672 67.408 187.356 67.8361 186.928 68.1254L186.946 68.1115Z" fill="#E1A962"/>
<path d="M183.501 79.3895C182.701 79.767 181.874 80.0843 181.028 80.3389C180.188 80.6001 179.336 80.8171 178.474 80.9892C177.597 81.1663 176.709 81.2929 175.817 81.3682C174.875 81.4523 173.926 81.4395 172.986 81.33C172.467 81.2612 171.988 81.0113 171.634 80.624C171.28 80.2367 171.073 79.7369 171.05 79.212C171.027 78.6872 171.189 78.171 171.507 77.7539C171.826 77.3368 172.281 77.0454 172.792 76.9309L172.934 76.8996C174.339 76.5935 175.897 76.2805 177.461 75.9502C178.245 75.7937 179.036 75.6268 179.838 75.4911C180.639 75.3555 181.461 75.2094 182.249 75.1434H182.335C182.859 75.0947 183.383 75.2324 183.815 75.5323C184.247 75.8322 184.561 76.2752 184.7 76.7835C184.839 77.2918 184.795 77.833 184.576 78.3121C184.356 78.7911 183.976 79.1775 183.501 79.4034V79.3895Z" fill="#E1A962"/>
<path d="M202.425 61.1667C202.021 61.6327 201.575 62.0599 201.093 62.443C200.629 62.8204 200.142 63.1688 199.636 63.4863C198.628 64.1364 197.533 64.641 196.385 64.9851C195.9 65.1168 195.385 65.0833 194.921 64.8898C194.457 64.6963 194.07 64.3538 193.821 63.9161C193.572 63.4784 193.475 62.9702 193.546 62.4713C193.616 61.9725 193.85 61.5111 194.21 61.1598L194.276 61.0972C194.679 60.7203 195.108 60.3717 195.559 60.0539C196 59.7305 196.451 59.4314 196.909 59.1358C197.367 58.8402 197.832 58.5655 198.314 58.3117C198.782 58.043 199.271 57.8105 199.774 57.6161L199.965 57.5501C200.435 57.3868 200.945 57.383 201.416 57.5394C201.888 57.6957 202.295 58.0034 202.575 58.415C202.855 58.8266 202.992 59.3191 202.965 59.8165C202.938 60.3138 202.748 60.7884 202.425 61.1667Z" fill="#E1A962"/>
<path d="M199.493 72.8933C199.023 73.2901 198.516 73.6395 197.977 73.9366C197.461 74.2345 196.927 74.5005 196.378 74.733C195.28 75.2137 194.121 75.539 192.933 75.6997C192.432 75.7561 191.926 75.643 191.495 75.3786C191.065 75.1141 190.735 74.7132 190.557 74.2395C190.38 73.7657 190.365 73.2461 190.515 72.763C190.665 72.2798 190.972 71.8606 191.386 71.5719L191.459 71.5197C191.918 71.2133 192.396 70.9379 192.892 70.6955C193.377 70.4451 193.87 70.2225 194.37 70C194.869 69.7774 195.369 69.5827 195.886 69.4053C196.39 69.217 196.909 69.0681 197.436 68.9602L197.634 68.9254C198.123 68.8365 198.628 68.9121 199.071 69.1405C199.513 69.3689 199.868 69.7373 200.08 70.1884C200.291 70.6396 200.349 71.1482 200.243 71.6355C200.137 72.1227 199.873 72.5612 199.493 72.8829V72.8933Z" fill="#E1A962"/>
<path d="M165.081 28.7838C164.523 29.0381 163.942 29.2384 163.346 29.3819C162.768 29.527 162.182 29.6362 161.591 29.7088C160.404 29.8757 159.201 29.8757 158.014 29.7088C157.509 29.6332 157.044 29.3888 156.695 29.0151C156.346 28.6415 156.133 28.1606 156.091 27.6504C156.049 27.1402 156.18 26.6308 156.463 26.2046C156.746 25.7785 157.164 25.4606 157.65 25.3027L157.737 25.2714C158.262 25.1028 158.797 24.968 159.339 24.868C159.874 24.7637 160.411 24.6837 160.949 24.6072C161.487 24.5307 162.024 24.482 162.569 24.4507C163.106 24.409 163.645 24.409 164.182 24.4507L164.383 24.4681C164.877 24.5197 165.34 24.733 165.701 25.0749C166.062 25.4168 166.3 25.8683 166.379 26.3596C166.458 26.8509 166.373 27.3546 166.138 27.7928C165.903 28.231 165.53 28.5793 165.077 28.7838H165.081Z" fill="#E1A962"/>
<path d="M170.01 37.4708C169.396 37.8215 168.759 38.1283 168.102 38.3889C167.453 38.6602 166.794 38.8932 166.121 39.1088C165.448 39.3244 164.772 39.5087 164.067 39.6582C163.351 39.8199 162.622 39.9234 161.889 39.9677C161.467 39.9831 161.053 39.8498 160.719 39.5911C160.385 39.3324 160.151 38.9646 160.059 38.5514C159.968 38.1383 160.023 37.706 160.216 37.3295C160.409 36.9529 160.727 36.656 161.115 36.4902L161.174 36.4658C162.347 35.9894 163.603 35.5651 164.872 35.1548C165.507 34.9531 166.149 34.7548 166.798 34.581C167.445 34.3939 168.101 34.2407 168.764 34.1219H168.803C169.222 34.0504 169.652 34.129 170.019 34.3438C170.386 34.5586 170.666 34.8959 170.81 35.2968C170.954 35.6977 170.953 36.1365 170.807 36.5365C170.66 36.9365 170.378 37.2722 170.01 37.4847V37.4708Z" fill="#E1A962"/>
<path d="M167.391 49.0024C166.866 49.3246 166.312 49.5959 165.736 49.8127C165.18 50.0286 164.611 50.2109 164.033 50.3587C162.876 50.6679 161.681 50.8142 160.484 50.7934C159.978 50.7761 159.493 50.5896 159.105 50.2636C158.718 49.9377 158.45 49.4911 158.345 48.995C158.24 48.4989 158.304 47.9818 158.526 47.5262C158.748 47.0706 159.116 46.7027 159.571 46.4812L159.655 46.4429C160.153 46.2071 160.666 46.006 161.192 45.8413C161.708 45.6674 162.232 45.5214 162.756 45.3788C163.28 45.2362 163.797 45.118 164.345 45.031C164.872 44.9208 165.406 44.8522 165.944 44.8258H166.145C166.642 44.814 167.128 44.9662 167.529 45.2589C167.931 45.5517 168.225 45.9687 168.367 46.4457C168.508 46.9227 168.49 47.4331 168.313 47.8983C168.137 48.3635 167.813 48.7576 167.391 49.0198V49.0024Z" fill="#E1A962"/>
<path d="M133.807 64.6652C116.462 64.6652 103.238 60.7112 95.2042 57.3971C95.0273 57.324 94.8664 57.2167 94.7307 57.0813C94.5951 56.9459 94.4874 56.785 94.4138 56.6079C94.3402 56.4308 94.3021 56.2409 94.3018 56.049C94.3014 55.8571 94.3387 55.6671 94.4116 55.4896C94.4845 55.3122 94.5915 55.1509 94.7266 55.015C94.8616 54.879 95.0221 54.7711 95.1988 54.6973C95.3755 54.6235 95.5649 54.5853 95.7563 54.5849C95.9477 54.5845 96.1373 54.6219 96.3143 54.695C104.106 57.9118 116.934 61.744 133.807 61.744C150.247 61.744 159.35 60.0366 171.273 54.7124C171.448 54.6292 171.638 54.5821 171.832 54.5736C172.026 54.5652 172.22 54.5957 172.402 54.6633C172.584 54.7309 172.75 54.8342 172.892 54.9673C173.033 55.1003 173.147 55.2604 173.226 55.438C173.305 55.6157 173.348 55.8074 173.352 56.0019C173.356 56.1964 173.321 56.3897 173.25 56.5706C173.179 56.7515 173.072 56.9162 172.936 57.0552C172.8 57.1941 172.638 57.3044 172.459 57.3797C160.106 62.8951 150.712 64.6652 133.807 64.6652Z" fill="#E1A962"/>
<path d="M134.515 95.6646C111.363 95.6646 89.6333 92.9452 73.329 88.014C55.4428 82.5889 45.9863 75.0948 45.9863 66.3313C45.9863 60.7393 50.4232 55.4082 59.1685 50.4805C66.5471 46.3074 76.7599 42.6246 88.7522 39.7626L89.9386 32.8318C91.5101 23.6753 96.8281 15.3118 104.914 9.28513C112.949 3.29674 123.21 0 133.804 0C144.399 0 154.66 3.29674 162.694 9.28513C170.78 15.3118 176.098 23.6753 177.67 32.8318L178.783 39.3383C205.633 45.5771 221.626 55.6412 221.626 66.3313C221.626 75.1156 212.419 82.6098 194.997 88.0105C179.05 92.9417 157.567 95.6646 134.515 95.6646ZM133.822 2.91073C123.848 2.91073 114.208 6.0023 106.67 11.6047C99.187 17.1688 94.2714 24.889 92.8283 33.3013L91.2985 42.1517L90.3584 42.3708C78.2169 45.2015 67.9347 48.8808 60.5978 53.0122C52.9452 57.3244 48.9003 61.9252 48.9003 66.3174C48.9003 81.1353 86.5078 92.7469 134.515 92.7469C157.286 92.7469 178.461 90.0727 194.141 85.211C209.987 80.2972 218.705 73.589 218.705 66.3208C218.705 60.562 212.395 55.7212 207.101 52.6748C199.733 48.4322 189.388 44.7286 177.184 41.9569L176.234 41.7413L174.79 33.3152C173.347 24.9029 168.432 17.1966 160.949 11.6186C153.421 6.00229 143.774 2.91073 133.808 2.91073H133.822Z" fill="#E1A962"/>
<path d="M81.4982 88.8482C81.4007 87.7754 81.1203 86.7273 80.6691 85.7497L80.5928 85.5966L73.4987 72.3818C73.1491 71.7302 72.5556 71.2445 71.8487 71.0316C71.1419 70.8187 70.3796 70.8959 69.7296 71.2464C69.0796 71.5969 68.5951 72.1919 68.3827 72.9005C68.1703 73.609 68.2474 74.3732 68.597 75.0248L73.9393 84.9707L62.5991 86.7964L56.9307 75.15C56.6087 74.485 56.0364 73.9755 55.3396 73.7335C54.6429 73.4916 53.8788 73.537 53.2154 73.8598C52.5521 74.1826 52.0438 74.7564 51.8025 75.4549C51.5611 76.1533 51.6064 76.9193 51.9284 77.5843L56.8405 87.7075L42.8258 89.9575L41.0045 78.5198C40.9469 78.1581 40.8188 77.8113 40.6275 77.4993C40.4361 77.1872 40.1854 76.916 39.8895 76.7011C39.5936 76.4862 39.2584 76.3318 38.9031 76.2468C38.5477 76.1617 38.1791 76.1477 37.8182 76.2054C37.4574 76.2632 37.1115 76.3917 36.8002 76.5834C36.489 76.7752 36.2184 77.0266 36.004 77.3232C35.7897 77.6198 35.6357 77.9558 35.5508 78.3121C35.466 78.6684 35.452 79.0379 35.5096 79.3996L37.3309 90.8373L23.3161 93.0804L24.8528 81.9278C24.9536 81.1946 24.7596 80.4512 24.3137 79.8613C23.8677 79.2715 23.2063 78.8833 22.4748 78.7823C21.7434 78.6813 21.0019 78.8758 20.4135 79.3228C19.825 79.7699 19.4379 80.433 19.3371 81.1662L17.5679 94.0019L6.22082 95.8172L8.20509 84.689C8.33481 83.9604 8.17049 83.2099 7.74828 82.6027C7.32606 81.9956 6.68053 81.5814 5.9537 81.4514C5.22687 81.3213 4.47828 81.4861 3.87261 81.9093C3.26693 82.3326 2.85379 82.9797 2.72406 83.7083L0.0876179 98.488C0.0876179 98.5437 0.087618 98.5993 0.0633349 98.6549C-0.0608154 99.7247 -0.00215858 100.808 0.236785 101.858C0.4071 103.581 1.16849 105.191 2.39104 106.413C3.27531 107.278 4.32149 107.959 5.46936 108.417C6.61722 108.875 7.84407 109.1 9.07928 109.081C9.39149 109.081 9.7037 109.06 10.0194 109.032C10.2691 109.015 10.5189 108.983 10.7687 108.945L39.4816 104.348L68.3021 285.296C68.4048 285.952 68.7382 286.55 69.2421 286.981C69.746 287.412 70.3871 287.649 71.0496 287.647C71.1971 287.648 71.3445 287.636 71.4902 287.613C71.8517 287.556 72.1985 287.428 72.5105 287.236C72.8226 287.045 73.0938 286.793 73.3085 286.496C73.5233 286.199 73.6773 285.863 73.7617 285.506C73.8461 285.149 73.8593 284.779 73.8005 284.417L44.98 103.464L57.2256 101.503L73.6999 98.8671C76.881 98.3593 79.566 96.4815 80.8773 93.8489C81.6547 92.3041 81.8742 90.5369 81.4982 88.8482Z" fill="black"/>
</svg>
