<svg width="132" height="181" viewBox="0 0 132 181" fill="none" xmlns="http://www.w3.org/2000/svg">
<path d="M93.4181 149.592H93.3689H93.3904L93.4765 149.614L93.6886 149.664C93.8424 149.698 93.9961 149.73 94.1837 149.758C94.525 149.814 94.8847 149.865 95.2475 149.89C95.975 149.951 96.7062 149.951 97.4336 149.89C98.8708 149.772 100.277 149.401 101.591 148.795C104.204 147.606 106.44 145.431 108.226 142.595C110.434 139.113 112.709 135.658 115.15 132.242C116.38 130.541 117.647 128.85 119.018 127.172C119.713 126.331 120.414 125.496 121.198 124.662C121.584 124.243 122 123.816 122.447 123.378C122.68 123.156 122.902 122.939 123.181 122.698L123.381 122.522L123.624 122.324L123.747 122.224L123.898 122.108L124.073 121.976L124.19 121.894L124.411 121.747C124.97 121.398 125.591 121.166 126.238 121.062C126.885 120.958 127.546 120.985 128.182 121.142C128.819 121.299 129.419 121.582 129.949 121.975C130.478 122.369 130.926 122.865 131.268 123.435C131.61 124.005 131.838 124.638 131.939 125.299C132.041 125.959 132.015 126.633 131.861 127.283C131.707 127.932 131.43 128.545 131.044 129.085C130.659 129.625 130.173 130.083 129.614 130.431C129.663 130.403 129.709 130.372 129.755 130.34L129.798 130.312L129.823 130.293L129.798 130.315L129.749 130.353L129.666 130.428C129.565 130.513 129.423 130.648 129.291 130.773C129.02 131.04 128.728 131.335 128.433 131.658C127.843 132.286 127.24 132.998 126.647 133.71C125.46 135.156 124.298 136.706 123.151 138.272C120.872 141.434 118.68 144.735 116.543 148.086C115.243 150.157 113.694 152.055 111.931 153.733C111.488 154.172 110.987 154.564 110.514 154.988L109.757 155.565C109.505 155.76 109.247 155.942 108.979 156.117C107.921 156.842 106.802 157.472 105.637 158C103.303 159.066 100.807 159.715 98.2577 159.92C96.9961 160.027 95.7281 160.027 94.4666 159.92C93.8352 159.87 93.2008 159.789 92.5633 159.678C92.2558 159.625 91.9176 159.559 91.5855 159.484C91.4195 159.449 91.2504 159.409 91.0721 159.362L90.7953 159.286L90.6354 159.242L90.4141 159.173C89.1717 158.766 88.1389 157.871 87.543 156.686C86.947 155.502 86.8368 154.124 87.2363 152.856C87.6359 151.588 88.5126 150.535 89.6737 149.926C90.8347 149.318 92.1849 149.206 93.4273 149.614L93.4181 149.592Z" fill="#E8BB89"/>
<path d="M101.473 127.332C100.134 119.9 93.5721 109.137 90.2024 106.255L90.0182 108.042C84.4592 91.2173 74.4907 80 63.1167 80C52.1863 80 42.5643 90.3443 36.8836 106.064C34.4477 104.027 30.6376 100.808 28.3922 98.7018C25.0412 95.5728 20.7846 94.7781 18.0582 97.3376C16.1095 99.1649 14.8228 103.026 17.6054 109.284C20.388 115.542 28.6514 123.677 32.3428 125.529C31.8071 129.958 31.5442 134.416 31.5558 138.878C31.5558 148.799 32.8737 158.143 35.1972 166.344H37.7424C35.7362 166.349 33.8137 167.15 32.3948 168.571C30.9759 169.992 30.1758 171.918 30.1692 173.928C30.1692 175.364 30.4003 176.832 31.2716 177.855C33.5295 180.508 36.9367 181.112 41.1746 180.984C41.1746 180.984 51.6866 179.77 58.8382 177.267C61.7707 176.24 63.0012 174.451 63.0012 172.26C63.0012 174.451 64.2285 176.24 67.161 177.267C74.3158 179.77 84.8277 180.984 84.8277 180.984C89.0625 181.112 92.4697 180.508 94.7308 177.855C95.599 176.832 95.8301 175.352 95.8301 173.928C95.8243 171.918 95.0248 169.993 93.6064 168.571C92.188 167.15 90.2659 166.349 88.2599 166.344H91.0706C93.3379 158.346 94.6433 149.259 94.7058 139.616C95.8488 140.417 96.9418 140.599 98.0817 140.157C101.558 138.809 102.816 134.779 101.473 127.332Z" fill="#F7F0D2"/>
<path d="M66.8998 108C160.306 105.606 113.043 25.6022 113.043 25.6022C113.043 25.6022 109.693 16.9677 103.299 3.44884C99.9917 -2.09343 94.7551 0.29078 91.4915 2.05779C87.2817 4.33548 83.0316 7.25856 78.068 12.5001C78.068 12.5001 72.6545 11.3314 62.5008 11.5602C52.347 11.3314 46.9336 12.5001 46.9336 12.5001C41.9699 7.25856 37.7198 4.33548 33.5069 2.05779C30.2464 0.29078 25.0098 -2.09343 21.6997 3.44884C15.309 16.9677 11.9555 25.6022 11.9555 25.6022C11.9555 25.6022 -35.3046 105.616 58.1018 108" fill="#F7F0D2"/>
<path d="M66.8998 108C160.306 105.606 113.043 25.6022 113.043 25.6022C113.043 25.6022 109.693 16.9677 103.299 3.44884C99.9917 -2.09343 94.7551 0.29078 91.4915 2.05779C87.2817 4.33548 83.0316 7.25856 78.068 12.5001C78.068 12.5001 72.6545 11.3314 62.5008 11.5602C52.347 11.3314 46.9336 12.5001 46.9336 12.5001C41.9699 7.25856 37.7198 4.33548 33.5069 2.05779C30.2464 0.29078 25.0098 -2.09343 21.6997 3.44884C15.309 16.9677 11.9555 25.6022 11.9555 25.6022C11.9555 25.6022 -35.3046 105.616 58.1018 108" fill="#F7F0D2"/>
<path d="M20.051 20.0342C20.8525 18.0247 22.4649 14.1185 24.8325 8.95968C26.6585 5.81026 29.5428 7.166 31.3317 8.1675C33.6769 9.46325 35.8295 11.1054 37.7225 13.043C37.8327 13.1531 37.9142 13.2906 37.9594 13.4424C38.0047 13.5942 38.0122 13.7555 37.9813 13.9112C37.9504 14.0669 37.882 14.2118 37.7827 14.3326C37.6833 14.4533 37.5561 14.5459 37.413 14.6016C34.0087 15.8897 25.0058 19.3322 20.9083 20.9552C20.7857 21.0032 20.6524 21.0129 20.5246 20.9831C20.3969 20.9532 20.2803 20.8852 20.1892 20.7874C20.0981 20.6895 20.0365 20.5661 20.0119 20.4323C19.9874 20.2984 20.0009 20.1601 20.051 20.0342Z" fill="#FFFCF3"/>
<path d="M20.6118 22C20.3466 21.9996 20.0856 21.9314 19.8519 21.8014C19.6181 21.6714 19.4189 21.4836 19.2716 21.2546C19.1244 21.0256 19.0338 20.7625 19.0078 20.4884C18.9818 20.2144 19.0212 19.938 19.1226 19.6835C19.889 17.7747 21.534 13.7823 23.9548 8.51205L23.9984 8.43116C26.4067 4.28352 30.46 6.53852 31.7872 7.2794C34.2283 8.62461 36.4688 10.3301 38.4389 12.3426C38.6631 12.5682 38.8286 12.8492 38.9197 13.1593C39.0108 13.4694 39.0246 13.7984 38.9599 14.1156C38.8951 14.4328 38.7539 14.7277 38.5494 14.9727C38.3449 15.2177 38.084 15.4048 37.7908 15.5165C34.155 16.8979 25.257 20.2853 21.185 21.8965C21.0013 21.9657 20.8073 22.0008 20.6118 22ZM25.6247 9.39529C23.4438 14.122 21.9141 17.807 21.0822 19.8582C25.3567 18.1791 33.6098 15.0344 37.1116 13.7112C35.2768 11.8376 33.1919 10.2479 30.9211 8.99087C28.6312 7.72264 26.8709 7.30852 25.6247 9.39529Z" fill="#FFFCF3"/>
<path d="M104.949 20.0342C104.144 18.0247 102.535 14.1185 100.167 8.95968C98.3415 5.81026 95.454 7.166 93.6683 8.1675C91.323 9.46313 89.1704 11.1053 87.2775 13.043C87.1673 13.1531 87.0858 13.2906 87.0405 13.4424C86.9953 13.5942 86.9878 13.7555 87.0187 13.9112C87.0496 14.0669 87.1179 14.2118 87.2173 14.3326C87.3167 14.4533 87.4439 14.5459 87.5869 14.6016C90.9913 15.8897 99.9942 19.3322 104.092 20.9552C104.214 21.0032 104.348 21.0129 104.475 20.9831C104.603 20.9532 104.72 20.8852 104.811 20.7874C104.902 20.6895 104.964 20.5661 104.988 20.4323C105.013 20.2984 104.999 20.1601 104.949 20.0342Z" fill="#FFFCF3"/>
<path d="M104.391 22C104.195 21.9998 104.001 21.9636 103.818 21.8932C99.742 20.2756 90.8458 16.8947 87.2094 15.5132C86.9162 15.4016 86.6551 15.2145 86.4506 14.9695C86.2461 14.7244 86.1049 14.4295 86.0401 14.1124C85.9753 13.7952 85.9892 13.4662 86.0803 13.1561C86.1715 12.846 86.3369 12.565 86.5612 12.3394C88.5299 10.3285 90.7686 8.62415 93.2077 7.2794C94.5414 6.53852 98.5953 4.28352 100.998 8.43117L101.041 8.51205C103.469 13.7888 105.111 17.7779 105.877 19.6835C105.979 19.938 106.018 20.2144 105.992 20.4885C105.966 20.7625 105.876 21.0256 105.728 21.2546C105.581 21.4836 105.382 21.6714 105.148 21.8014C104.914 21.9315 104.653 21.9996 104.388 22H104.391ZM87.8886 13.7047C91.3942 15.0344 99.6485 18.1759 103.924 19.8518C103.092 17.8006 101.556 14.1188 99.3774 9.38881C98.3086 7.57705 96.8192 7.46705 94.0802 8.9844C91.8096 10.2424 89.7245 11.832 87.8886 13.7047Z" fill="#FFFCF3"/>
<path d="M47.5 57C49.433 57 51 55.433 51 53.5C51 51.567 49.433 50 47.5 50C45.567 50 44 51.567 44 53.5C44 55.433 45.567 57 47.5 57Z" fill="#3A3123"/>
<path d="M47.5034 58C46.6132 58.0007 45.7429 57.7373 45.0024 57.2433C44.2619 56.7492 43.6846 56.0467 43.3435 55.2244C43.0024 54.4022 42.9128 53.4973 43.0861 52.6242C43.2593 51.751 43.6876 50.9489 44.3168 50.3192C44.946 49.6895 45.7478 49.2606 46.6208 49.0867C47.4938 48.9128 48.3988 49.0017 49.2213 49.3422C50.0437 49.6827 50.7468 50.2595 51.2414 50.9996C51.736 51.7397 52 52.6099 52 53.5C51.9991 54.6926 51.5252 55.8362 50.6822 56.6798C49.8392 57.5234 48.696 57.9982 47.5034 58ZM47.5034 51.0504C47.018 51.0497 46.5432 51.1931 46.1393 51.4624C45.7354 51.7317 45.4205 52.1147 45.2344 52.5631C45.0483 53.0115 44.9995 53.505 45.094 53.9811C45.1885 54.4573 45.4222 54.8947 45.7655 55.2379C46.1087 55.5812 46.5461 55.8149 47.0223 55.9095C47.4984 56.004 47.9919 55.9551 48.4403 55.769C48.8886 55.583 49.2717 55.268 49.541 54.8641C49.8103 54.4602 49.9537 53.9855 49.953 53.5C49.9521 52.8506 49.6937 52.2281 49.2345 51.7689C48.7753 51.3097 48.1528 51.0513 47.5034 51.0504Z" fill="#3A3123"/>
<path d="M74 57C75.6569 57 77 55.433 77 53.5C77 51.567 75.6569 50 74 50C72.3431 50 71 51.567 71 53.5C71 55.433 72.3431 57 74 57Z" fill="#3A3123"/>
<path d="M74.0031 58C73.2118 58.0007 72.4381 57.7373 71.78 57.2433C71.1218 56.7492 70.6086 56.0467 70.3054 55.2244C70.0022 54.4022 69.9225 53.4973 70.0765 52.6242C70.2305 51.751 70.6112 50.9489 71.1705 50.3192C71.7298 49.6895 72.4425 49.2606 73.2185 49.0867C73.9946 48.9128 74.799 49.0017 75.5301 49.3422C76.2611 49.6827 76.886 50.2595 77.3257 50.9996C77.7653 51.7397 78 52.6099 78 53.5C77.9992 54.6926 77.5779 55.8362 76.8286 56.6798C76.0793 57.5234 75.0631 57.9982 74.0031 58ZM74.0031 51.0504C73.5715 51.0497 73.1495 51.1931 72.7905 51.4624C72.4315 51.7317 72.1515 52.1147 71.9861 52.5631C71.8207 53.0115 71.7773 53.505 71.8613 53.9811C71.9454 54.4573 72.1531 54.8947 72.4582 55.2379C72.7633 55.5812 73.1521 55.8149 73.5754 55.9095C73.9986 56.004 74.4373 55.9551 74.8358 55.769C75.2344 55.583 75.5749 55.268 75.8142 54.8641C76.0536 54.4602 76.181 53.9855 76.1804 53.5C76.1796 52.8506 75.95 52.2281 75.5418 51.7689C75.1337 51.3097 74.5803 51.0513 74.0031 51.0504Z" fill="#3A3123"/>
<path d="M61.001 57.6986C61.001 57.6986 60.7886 66 66.5613 66C69.8708 66 70.9264 64.1574 70.9993 62.3921C71.012 61.6285 70.8417 60.8732 70.5032 60.1914C70.1647 59.5095 69.668 58.9215 69.0561 58.4782C67.2397 57.1059 64.5451 56.3714 61.001 57.6986Z" fill="white"/>
<path d="M66.5675 66.998C65.8012 67.0186 65.039 66.8775 64.3292 66.5836C63.6194 66.2896 62.9774 65.8493 62.4437 65.2904C59.8864 62.6444 59.9983 57.8233 60.0015 57.635L60.0207 56.9857L60.6281 56.7584C64.0005 55.4922 67.2068 55.8201 69.6587 57.6772C70.4004 58.2189 71.0011 58.936 71.4088 59.7664C71.8165 60.5967 72.0189 61.5155 71.9986 62.4431C71.9571 63.5015 71.436 66.998 66.5675 66.998ZM61.9355 58.3525C62.0058 59.6186 62.3255 62.3814 63.8215 63.9365C64.177 64.307 64.6051 64.5976 65.0781 64.7894C65.5511 64.9812 66.0585 65.0701 66.5675 65.0501C68.8275 65.0501 70.0103 64.1411 70.0838 62.349C70.0911 61.7378 69.9517 61.134 69.6777 60.5898C69.4037 60.0457 69.0032 59.5775 68.511 59.2258C67.2515 58.2615 65.097 57.372 61.9355 58.3525Z" fill="#3A3123"/>
<path d="M60.999 57.6986C60.999 57.6986 61.2146 66 55.4402 66C52.1296 66 51.0705 64.1574 51.0007 62.3921C50.9874 61.6287 51.1571 60.8735 51.4952 60.1917C51.8333 59.5098 52.3297 58.9217 52.9414 58.4782C54.7521 57.1059 57.4537 56.3714 60.999 57.6986Z" fill="white"/>
<path d="M55.4434 66.9987C50.5648 66.9987 50.043 63.5061 50.0014 62.4359C49.9809 61.5089 50.1838 60.5908 50.5927 59.7612C51.0016 58.9317 51.6041 58.2157 52.3479 57.6753C54.8 55.8203 58.0108 55.4928 61.388 56.7576L61.9995 56.9846V57.6331C61.9995 57.8342 62.0987 62.6369 59.5538 65.2799C59.0232 65.8387 58.3839 66.28 57.6765 66.5758C56.969 66.8717 56.2086 67.0156 55.4434 66.9987ZM57.4442 57.938C56.0233 57.9176 54.6356 58.3737 53.4971 59.2351C53.0042 59.5867 52.603 60.0543 52.3281 60.5977C52.0532 61.1412 51.9128 61.7442 51.9189 62.3548C51.9926 64.1449 53.177 65.0529 55.4402 65.0529C55.9499 65.0724 56.4579 64.9836 56.9315 64.792C57.4051 64.6004 57.8339 64.3103 58.1901 63.9406C59.6882 62.3872 60.0083 59.6275 60.0756 58.3628C59.2201 58.0882 58.3288 57.945 57.4314 57.938H57.4442Z" fill="#3A3123"/>
<path d="M35.2786 58.4524C36.1312 58.2892 36.9916 58.1742 37.8559 58.1078C38.7085 58.0355 39.561 58.0079 40.4136 58.001C41.2662 57.9941 42.1286 58.0217 42.9844 58.0906C43.8505 58.1495 44.7123 58.2645 45.565 58.4352C46.2572 58.4859 46.902 58.8246 47.3574 59.3768C47.8129 59.929 48.0418 60.6494 47.9937 61.3796C47.9456 62.1097 47.6245 62.7898 47.1011 63.2703C46.5776 63.7507 45.8946 63.9921 45.2024 63.9414H45.1273C44.3433 63.9862 43.5658 63.9897 42.7786 64H40.4169H38.0421C37.2581 64 36.4349 63.9828 35.6934 63.9414H35.5954C34.9338 63.9367 34.2985 63.6673 33.8178 63.1878C33.337 62.7082 33.0466 62.0542 33.0051 61.3576C32.9637 60.661 33.1743 59.9738 33.5944 59.4346C34.0145 58.8954 34.6129 58.5444 35.2688 58.4524H35.2786Z" fill="#EFC3B9"/>
<path d="M85.4556 63.9412C84.7521 63.9827 83.9776 63.9931 83.237 64H80.9936H78.7626C78.0189 64 77.2845 64 76.5439 63.9412H76.473C75.8461 63.9425 75.2424 63.6766 74.7842 63.1977C74.3259 62.7187 74.0476 62.0624 74.0056 61.362C73.9635 60.6617 74.161 59.9696 74.5579 59.4263C74.9548 58.883 75.5215 58.5291 76.1428 58.4364C76.9472 58.2651 77.7603 58.1497 78.5775 58.0909C79.389 58.0218 80.1975 57.9941 81.006 58.001C81.8145 58.0079 82.6198 58.0356 83.4221 58.1082C84.2386 58.1745 85.0514 58.2898 85.8568 58.4537C86.4764 58.546 87.0417 58.898 87.4385 59.4388C87.8354 59.9795 88.0343 60.6687 87.9951 61.3673C87.956 62.0659 87.6816 62.7218 87.2275 63.2027C86.7734 63.6836 86.1732 63.9538 85.5482 63.9585L85.4556 63.9412Z" fill="#EFC3B9"/>
<path d="M63.5138 174C63.1197 174 62.7417 173.836 62.463 173.545C62.1843 173.253 62.0277 172.858 62.0277 172.446V159.142C62.0277 158.682 62.0277 158.315 61.3916 157.414C61.0201 156.988 58.8414 154.445 57.8843 152.813L57.8397 152.735C57.3136 151.706 57.061 150.099 57.0164 149.785C56.958 149.377 57.0569 148.962 57.2913 148.63C57.5257 148.299 57.8764 148.078 58.2662 148.017C58.656 147.956 59.0531 148.06 59.37 148.305C59.6868 148.55 59.8977 148.917 59.956 149.324C60.0457 149.977 60.2083 150.617 60.4405 151.23C61.1895 152.474 62.9967 154.65 63.6387 155.381C63.6714 155.418 63.7011 155.455 63.7308 155.496C64.786 156.969 65 157.983 65 159.142V172.461C64.9961 172.871 64.8378 173.262 64.5595 173.55C64.2812 173.838 63.9054 174 63.5138 174Z" fill="#E8BB89"/>
<path d="M39.4556 109C39.0984 108.999 38.7525 108.876 38.4768 108.65C38.168 108.408 31.2084 102.708 27.7379 99.4912C24.9188 96.8792 21.5842 96.3267 19.6297 98.1468C19.4831 98.291 19.309 98.4045 19.1176 98.4807C18.9261 98.5568 18.7213 98.5941 18.5152 98.5903C18.309 98.5865 18.1057 98.5417 17.9173 98.4585C17.7288 98.3753 17.5591 98.2555 17.418 98.106C17.2769 97.9565 17.1674 97.7805 17.0959 97.5883C17.0244 97.396 16.9923 97.1915 17.0016 96.9867C17.0109 96.782 17.0613 96.5812 17.15 96.3961C17.2386 96.2111 17.3637 96.0455 17.5177 95.9093C20.7134 92.9321 25.7803 93.4815 29.8437 97.2445C33.2401 100.397 40.3664 106.219 40.4375 106.281C40.683 106.482 40.8602 106.753 40.9446 107.058C41.029 107.363 41.0167 107.686 40.9092 107.984C40.8018 108.281 40.6045 108.539 40.3443 108.721C40.0841 108.903 39.7737 109 39.4556 109Z" fill="#E8BB89"/>
<path d="M95.3861 141C95.0519 141 94.726 140.898 94.4533 140.709C93.1234 139.784 91.7741 138.248 90.2053 135.866C87.623 131.939 87.0258 131.264 87 131.239C87.0257 131.27 87.055 131.297 87.0872 131.321L89.2822 129C89.676 129.361 90.8961 131.09 92.9136 134.146C94.2338 136.148 95.3474 137.45 96.319 138.124C96.5984 138.319 96.8077 138.595 96.9165 138.914C97.0252 139.232 97.0279 139.577 96.924 139.897C96.8201 140.217 96.6151 140.496 96.3386 140.695C96.0622 140.893 95.7286 141 95.3861 141Z" fill="#E8BB89"/>
<path d="M120.25 126C119.957 126.357 119.668 126.713 119.384 127.069C119.253 127.232 119.128 127.389 119 127.563C121.213 128.445 124.684 130.339 126.747 134L126.949 133.74C127.299 133.307 127.65 132.88 128 132.456C125.845 128.965 122.599 127.02 120.25 126Z" fill="white"/>
<path d="M117.176 129C116.778 129.526 116.389 130.056 116 130.585C118.265 131.489 121.748 133.385 123.794 137C124.192 136.455 124.596 135.912 125 135.377C122.812 131.943 119.551 130.021 117.176 129Z" fill="white"/>
<path d="M67.4872 109.994H58.6899C54.725 109.886 50.9053 109.63 47.3388 109.231C46.9401 109.175 46.5781 108.957 46.3296 108.625C46.0812 108.292 45.9661 107.871 46.0087 107.451C46.0514 107.03 46.2485 106.644 46.558 106.374C46.8676 106.104 47.2652 105.972 47.6662 106.005C51.1462 106.395 54.8733 106.654 58.7486 106.748H67.4656C69.8248 106.683 72.1376 106.567 74.3393 106.398C74.542 106.382 74.7457 106.409 74.9387 106.476C75.1316 106.543 75.3102 106.65 75.464 106.789C75.6178 106.929 75.744 107.099 75.8352 107.29C75.9265 107.481 75.9811 107.689 75.9959 107.902C76.0107 108.115 75.9854 108.329 75.9215 108.532C75.8576 108.735 75.7563 108.922 75.6234 109.084C75.4905 109.246 75.3286 109.378 75.1469 109.474C74.9653 109.57 74.7674 109.627 74.5647 109.643C72.3074 109.815 69.9328 109.935 67.5274 110L67.4872 109.994Z" fill="#E8BB89"/>
</svg>
