<svg width="136" height="270" viewBox="0 0 136 270" fill="none" xmlns="http://www.w3.org/2000/svg">
<path d="M68.4711 123H68.5276C87.1781 123 94.4368 114.727 120.12 114.727C135.886 59.0978 114.954 24.1951 114.954 24.1951L101.752 17.1057C79.7759 12.9648 57.2229 12.9648 35.2468 17.1057L22.0443 24.1951C22.0443 24.1951 1.11239 59.0852 16.8819 114.705C42.562 114.705 49.8332 122.978 68.4711 122.978V123Z" fill="#D6A676"/>
<path d="M68.66 94.9998H70.6806C73.3301 95.0112 75.9622 94.5728 78.4639 93.7033C86.6083 90.8375 88.2428 82.3456 86.2036 76.5581C84.18 70.8203 76.901 65.3151 76.901 65.3151L76.764 65.1941C74.9481 63.6518 73.4463 61.7766 72.34 59.6703C71.9366 58.8678 71.317 58.193 70.5505 57.7214C69.784 57.2498 68.9009 57 68 57C67.0991 57 66.216 57.2498 65.4495 57.7214C64.683 58.193 64.0634 58.8678 63.66 59.6703C62.5537 61.7766 61.0519 63.6518 59.236 65.1941L59.099 65.3151C59.099 65.3151 51.82 70.8203 49.7964 76.5581C47.7572 82.3456 49.3917 90.8251 57.5361 93.7033C60.0378 94.5728 62.6699 95.0112 65.3194 94.9998H68.6849H68.66Z" fill="#F2DBAD"/>
<path d="M50.5 69C52.433 69 54 67.433 54 65.5C54 63.567 52.433 62 50.5 62C48.567 62 47 63.567 47 65.5C47 67.433 48.567 69 50.5 69Z" fill="#263331"/>
<path d="M86 69C87.6568 69 89 67.433 89 65.5C89 63.567 87.6568 62 86 62C84.3432 62 83 63.567 83 65.5C83 67.433 84.3432 69 86 69Z" fill="#263331"/>
<path d="M62 87C60.144 86.9983 58.3645 86.2548 57.0521 84.9326C55.7397 83.6105 55.0017 81.8177 55 79.9479C55 79.6965 55.0992 79.4554 55.2756 79.2776C55.452 79.0999 55.6913 79 55.9409 79C56.1904 79 56.4297 79.0999 56.6062 79.2776C56.7826 79.4554 56.8817 79.6965 56.8817 79.9479C56.8817 81.3154 57.421 82.627 58.3808 83.594C59.3407 84.561 60.6426 85.1043 62 85.1043C63.3575 85.1043 64.6593 84.561 65.6192 83.594C66.579 82.627 67.1183 81.3154 67.1183 79.9479C67.1183 79.6965 67.2174 79.4554 67.3939 79.2776C67.5703 79.0999 67.8096 79 68.0591 79C68.3087 79 68.548 79.0999 68.7244 79.2776C68.9009 79.4554 69 79.6965 69 79.9479C68.9975 81.8174 68.2592 83.6097 66.947 84.9317C65.6348 86.2537 63.8558 86.9975 62 87Z" fill="#263331"/>
<path d="M73.9984 87C72.1425 86.9975 70.3634 86.2443 69.0514 84.9057C67.7394 83.5671 67.0017 81.7525 67 79.8599V72.9597C67 72.7052 67.0991 72.4611 67.2756 72.2811C67.4521 72.1011 67.6915 72 67.9411 72C68.1907 72 68.43 72.1011 68.6065 72.2811C68.783 72.4611 68.8821 72.7052 68.8821 72.9597V79.8599C68.8652 80.5561 68.9851 81.2488 69.2347 81.8971C69.4843 82.5454 69.8586 83.1362 70.3355 83.6347C70.8124 84.1333 71.3823 84.5295 72.0117 84.8C72.641 85.0705 73.317 85.2098 74 85.2098C74.6829 85.2098 75.359 85.0705 75.9883 84.8C76.6177 84.5295 77.1876 84.1333 77.6645 83.6347C78.1414 83.1362 78.5157 82.5454 78.7653 81.8971C79.0149 81.2488 79.1348 80.5561 79.1179 79.8599C79.1179 79.6054 79.217 79.3613 79.3935 79.1813C79.57 79.0013 79.8093 78.9002 80.0589 78.9002C80.3085 78.9002 80.5479 79.0013 80.7244 79.1813C80.9009 79.3613 81 79.6054 81 79.8599C80.9983 81.753 80.2601 83.5682 78.9475 84.9068C77.6348 86.2455 75.8548 86.9983 73.9984 87Z" fill="#263331"/>
<path d="M75.7314 68.6296L72.4375 68.2357C69.8294 67.9214 67.1889 67.9214 64.5808 68.2357L61.287 68.6296C61.0721 68.6549 60.8659 68.7242 60.683 68.8327C60.5001 68.9412 60.3451 69.0861 60.2291 69.2572C60.113 69.4282 60.0387 69.6212 60.0116 69.8222C59.9845 70.0232 60.0051 70.2274 60.0721 70.4201L60.1741 70.7185C60.6188 72.0319 61.5158 73.1705 62.725 73.9562L66.5163 76.4092C67.0961 76.7936 67.7891 77 68.4996 77C69.2101 77 69.9031 76.7936 70.4829 76.4092L74.2742 73.9562C75.4834 73.1705 76.3805 72.0319 76.8251 70.7185L76.9271 70.4201C76.994 70.2287 77.0152 70.0259 76.9892 69.826C76.9632 69.6261 76.8906 69.434 76.7765 69.2632C76.6625 69.0925 76.5098 68.9472 76.3292 68.8377C76.1486 68.7283 75.9445 68.6572 75.7314 68.6296Z" fill="#263331"/>
<path d="M53 16.1857C53 16.1857 45.9392 8.21608 43.1417 4.79172C39.6956 0.591323 35.9687 -0.705132 31.5682 0.348045C25.624 1.77076 21.9907 6.88267 22 26L53 16.1857Z" fill="#D6A676"/>
<path d="M30.6364 19.898C30.3568 19.9926 30.0598 20.0219 29.7676 19.9837C29.4753 19.9455 29.1952 19.8409 28.9481 19.6774C28.7009 19.514 28.493 19.296 28.3397 19.0396C28.1865 18.7832 28.0918 18.4949 28.0627 18.1962C27.7194 14.6253 28.7433 10.3864 32.1801 9.23288C35.3075 8.18023 38.9144 10.8623 40.724 13.9414C40.8744 14.1994 40.9661 14.4885 40.9922 14.7874C41.0184 15.0863 40.9783 15.3874 40.875 15.6684C40.7717 15.9494 40.6077 16.2032 40.3953 16.4111C40.1828 16.6189 39.9273 16.7755 39.6475 16.8693L30.6364 19.898Z" fill="#F2DBAD"/>
<path d="M92 17.0708C92 17.0708 94.4464 11.4673 97.4355 11.0982C100.86 10.6782 108.818 11.7346 110.54 11.8491C113.798 12.0305 118.174 13.1219 118.716 17.7136C119.259 22.3052 119.805 32.4367 112.378 32.9363C104.95 33.4358 102.915 30.9443 101.4 27.3614C99.7878 23.543 99.8599 19.0023 98.0471 18.91" fill="#D6A676"/>
<path d="M67.9719 236C83.9933 236 99.8401 235.454 119.289 231.584C132.139 146.774 119.289 114 119.289 114H16.7109C16.7109 114 3.86136 146.774 16.7109 231.584C36.1599 235.445 52.0067 236 68.0281 236H67.9719Z" fill="#D6A676"/>
<path d="M16.6901 114C16.6901 114 1.98345 142.393 0.185869 168.701C-0.823138 183.516 2.22871 198.156 10.4995 202.911C11.5949 203.544 12.8183 203.912 14.0753 203.986C15.3324 204.06 16.5893 203.839 17.7492 203.34C18.9091 202.841 19.9409 202.077 20.765 201.107C21.5891 200.137 22.1834 198.986 22.502 197.745C22.502 197.688 22.5299 197.628 22.5454 197.568C23.9798 191.538 24.9174 180.536 25.3955 176.103C26.2027 168.622 26.8485 164.863 29 154.816" fill="#D6A676"/>
<path d="M119.309 114C119.309 114 134.02 142.393 135.814 168.701C136.823 183.516 133.769 198.156 125.499 202.911C124.404 203.544 123.18 203.912 121.924 203.986C120.667 204.06 119.41 203.839 118.251 203.34C117.091 202.841 116.06 202.077 115.236 201.106C114.413 200.136 113.819 198.986 113.5 197.745L113.454 197.568C112.02 191.538 111.082 180.536 110.604 176.103C109.797 168.622 109.151 164.863 107 154.816" fill="#D6A676"/>
<path d="M15.5905 204.995C15.1858 204.991 14.7974 204.838 14.503 204.566C14.2087 204.293 14.0303 203.922 14.0035 203.526C13.9767 203.13 14.1036 202.739 14.3586 202.431C14.6136 202.123 14.978 201.92 15.3787 201.864C16.7336 201.693 18.0048 201.127 19.0283 200.239C20.0517 199.352 20.7803 198.185 21.1201 196.888L21.1618 196.727C22.3717 191.838 23.2574 183.357 23.7869 178.292C23.8961 177.241 23.9923 176.322 24.0726 175.583C24.907 168.165 25.5713 164.374 27.8242 154.253C27.8673 154.05 27.9511 153.857 28.0708 153.685C28.1905 153.513 28.3438 153.367 28.5217 153.254C28.6995 153.14 28.8986 153.063 29.1072 153.026C29.3158 152.988 29.53 152.992 29.7372 153.036C29.9444 153.08 30.1406 153.165 30.3144 153.284C30.4883 153.403 30.6363 153.554 30.75 153.73C30.8637 153.905 30.9408 154.101 30.9767 154.306C31.0127 154.511 31.0069 154.721 30.9596 154.924C28.7388 164.912 28.0713 168.643 27.2626 175.929C27.1823 176.659 27.0861 177.571 26.9769 178.61C26.441 183.756 25.5424 192.37 24.2812 197.485L24.2298 197.687C23.7322 199.591 22.664 201.305 21.163 202.608C19.662 203.911 17.797 204.744 15.8087 204.998C15.736 205.002 15.6631 205 15.5905 204.995Z" fill="#C1864C"/>
<path d="M120.503 204.994C120.435 204.998 120.366 204.998 120.298 204.994C118.426 204.74 116.671 203.907 115.258 202.604C113.846 201.301 112.84 199.586 112.372 197.682L112.324 197.484C111.137 192.381 110.291 183.764 109.783 178.607C109.684 177.569 109.593 176.66 109.518 175.93C108.747 168.641 108.128 164.919 106.038 154.924C105.993 154.721 105.988 154.511 106.022 154.306C106.056 154.101 106.128 153.905 106.235 153.73C106.342 153.554 106.482 153.403 106.645 153.284C106.809 153.165 106.994 153.08 107.189 153.036C107.384 152.992 107.585 152.988 107.781 153.026C107.978 153.063 108.165 153.14 108.333 153.254C108.5 153.367 108.644 153.514 108.757 153.685C108.87 153.857 108.948 154.05 108.989 154.254C111.103 164.375 111.735 168.162 112.52 175.584C112.595 176.323 112.686 177.242 112.789 178.29C113.287 183.355 114.121 191.837 115.259 196.732L115.296 196.886C115.615 198.185 116.301 199.354 117.265 200.242C118.229 201.13 119.426 201.697 120.702 201.87C121.08 201.925 121.422 202.128 121.662 202.436C121.903 202.744 122.022 203.135 121.997 203.531C121.971 203.927 121.804 204.298 121.527 204.571C121.25 204.843 120.884 204.997 120.503 205V204.994Z" fill="#C1864C"/>
<path d="M94.8841 76.9995C94.6569 77.0073 94.4362 76.917 94.2705 76.7484C94.1048 76.5798 94.0076 76.3467 94.0004 76.1005C93.9932 75.8542 94.0766 75.615 94.2321 75.4353C94.3877 75.2557 94.6027 75.1504 94.8299 75.1426C94.8841 75.1426 96.2289 75.0435 98.1247 75.0002C98.3518 74.9949 98.5717 75.0876 98.7358 75.2579C98.8999 75.4283 98.9949 75.6623 98.9998 75.9086C99.0047 76.1548 98.9192 76.3931 98.762 76.571C98.6049 76.7489 98.389 76.8518 98.1618 76.8572C96.3088 76.9005 94.9555 76.9995 94.9412 76.9995H94.8841Z" fill="#F2DBAD"/>
<path d="M101.029 82C98.8004 81.9853 96.9429 81.9804 96.9429 81.9804C96.6928 81.9804 96.453 81.9288 96.2762 81.8368C96.0993 81.7449 96 81.6202 96 81.4902C96 81.3602 96.0993 81.2355 96.2762 81.1436C96.453 81.0516 96.6928 81 96.9429 81C96.9429 81 98.8287 81 101.057 81.0196C101.307 81.0196 101.547 81.0713 101.724 81.1632C101.901 81.2551 102 81.3798 102 81.5098C102 81.6398 101.901 81.7645 101.724 81.8564C101.547 81.9484 101.307 82 101.057 82H101.029Z" fill="#F2DBAD"/>
<path d="M41.9217 76.9995H41.8702C41.8531 76.9995 40.2286 76.9005 38.0044 76.8572C37.8694 76.8543 37.7363 76.8275 37.6128 76.7782C37.4893 76.7289 37.3777 76.6581 37.2845 76.5699C37.1912 76.4817 37.1181 76.3777 37.0694 76.264C37.0206 76.1503 36.9971 76.029 37.0003 75.907C37.0034 75.7851 37.0332 75.6649 37.0877 75.5534C37.1423 75.4418 37.2207 75.3411 37.3184 75.2569C37.4161 75.1727 37.5312 75.1067 37.6571 75.0626C37.7831 75.0186 37.9174 74.9974 38.0524 75.0003C40.3246 75.0436 41.9388 75.1395 42.0039 75.1426C42.2766 75.1504 42.5347 75.2557 42.7214 75.4353C42.9081 75.615 43.0081 75.8542 42.9995 76.1005C42.9908 76.3467 42.8742 76.5798 42.6753 76.7484C42.4764 76.917 42.2115 77.0073 41.9388 76.9995H41.9217Z" fill="#F2DBAD"/>
<path d="M35.9429 82C35.6928 82 35.453 81.9484 35.2762 81.8564C35.0993 81.7645 35 81.6398 35 81.5098C35 81.3798 35.0993 81.2551 35.2762 81.1632C35.453 81.0713 35.6928 81.0196 35.9429 81.0196C38.1807 81.0049 40.0571 81 40.0571 81C40.3072 81 40.547 81.0516 40.7238 81.1436C40.9007 81.2355 41 81.3602 41 81.4902C41 81.6202 40.9007 81.7449 40.7238 81.8368C40.547 81.9288 40.3072 81.9804 40.0571 81.9804C40.0571 81.9804 38.1713 81.9804 35.9712 82H35.9429Z" fill="#F2DBAD"/>
<path d="M111.179 34C104.68 34 102.224 31.4948 100.509 27.5022C99.9039 25.9952 99.4306 24.4394 99.0944 22.8519C98.8575 21.8655 98.5418 20.5409 98.2607 20.0994C97.8704 20.0197 97.5249 19.7967 97.2935 19.475C97.0621 19.1533 96.9619 18.7567 97.0131 18.3648C97.0642 17.9729 97.2629 17.6146 97.5693 17.362C97.8756 17.1093 98.267 16.9808 98.6649 17.0023C100.967 17.1182 101.551 19.5514 102.167 22.1286C102.471 23.5419 102.894 24.9277 103.43 26.2715C104.693 29.212 106.114 31.2537 112.903 30.809C113.828 30.7794 114.723 30.4775 115.474 29.9416C115.809 29.6924 116.23 29.5855 116.644 29.6442C117.059 29.7029 117.433 29.9225 117.684 30.2548C117.935 30.587 118.043 31.0045 117.984 31.4156C117.925 31.8267 117.703 32.1976 117.368 32.4468C116.128 33.3441 114.649 33.8602 113.115 33.9311C112.431 33.977 111.785 34 111.179 34Z" fill="#C1864C"/>
<path d="M68.5278 124H68.4721C60.5101 124 54.571 122.589 48.1772 120.885C47.9758 120.838 47.7863 120.753 47.6202 120.636C47.4541 120.518 47.3147 120.37 47.2102 120.201C47.1058 120.031 47.0385 119.843 47.0123 119.648C46.9862 119.454 47.0017 119.256 47.0579 119.067C47.1142 118.878 47.21 118.702 47.3398 118.548C47.4695 118.395 47.6305 118.268 47.8132 118.175C47.9958 118.082 48.1963 118.025 48.4029 118.006C48.6095 117.988 48.8178 118.009 49.0155 118.069C55.4031 119.77 60.8905 121.072 68.4721 121.072H68.5278C76.1095 121.072 81.5969 119.77 87.9845 118.069C88.1822 118.009 88.3906 117.988 88.5971 118.006C88.8037 118.025 89.0042 118.082 89.1869 118.175C89.3695 118.268 89.5305 118.395 89.6602 118.548C89.79 118.702 89.8858 118.878 89.9421 119.067C89.9983 119.256 90.0138 119.454 89.9876 119.648C89.9615 119.843 89.8942 120.031 89.7898 120.201C89.6854 120.37 89.5459 120.518 89.3798 120.636C89.2137 120.753 89.0243 120.838 88.8228 120.885C82.429 122.58 76.4899 124 68.5278 124Z" fill="#C1864C"/>
<path d="M17 231C19.1609 243.806 23.9988 255.146 27.5733 262.259C28.7523 264.591 30.5384 266.548 32.7356 267.913C34.9328 269.279 37.4562 270.001 40.0291 270C43.5602 270.001 46.9616 268.643 49.5545 266.198C52.1474 263.753 53.741 260.401 54.0173 256.811L56 231" fill="#D6A676"/>
<path d="M120 231C117.837 243.803 113.003 255.14 109.427 262.251C108.249 264.587 106.462 266.546 104.263 267.913C102.064 269.28 99.5378 270.002 96.9626 270C93.433 270.001 90.033 268.643 87.4415 266.199C84.8499 263.755 83.2575 260.403 82.982 256.814L81 231.01" fill="#D6A676"/>
<path d="M68.5265 237H68.4735C68.0827 237 67.7079 236.842 67.4316 236.561C67.1552 236.279 67 235.898 67 235.5C67 235.102 67.1552 234.721 67.4316 234.439C67.7079 234.158 68.0827 234 68.4735 234H68.5265C68.9173 234 69.2921 234.158 69.5684 234.439C69.8448 234.721 70 235.102 70 235.5C70 235.898 69.8448 236.279 69.5684 236.561C69.2921 236.842 68.9173 237 68.5265 237Z" fill="#C1864C"/>
<path d="M68.4992 237C62.8568 237 55.3637 236.949 47.4613 236.562C47.0502 236.542 46.6656 236.388 46.392 236.134C46.1185 235.88 45.9784 235.546 46.0027 235.207C46.027 234.867 46.2135 234.55 46.5214 234.324C46.8292 234.098 47.2331 233.982 47.6442 234.002C55.466 234.386 62.9002 234.437 68.4992 234.437C74.0981 234.437 81.5199 234.386 89.3541 234.002C89.7652 233.982 90.1693 234.097 90.4774 234.323C90.7856 234.549 90.9725 234.866 90.9972 235.205C91.0219 235.545 90.8822 235.879 90.609 236.133C90.3357 236.387 89.9512 236.542 89.5401 236.562C81.6346 236.949 74.1353 237 68.4992 237Z" fill="#C1864C"/>
</svg>
