<svg width="156" height="108" viewBox="0 0 156 108" fill="none" xmlns="http://www.w3.org/2000/svg">
<path d="M95.8697 46.8103C104.745 53.8969 113.482 58.7359 113.85 58.9384C114.299 59.1854 114.814 59.3161 115.335 59.3161C115.855 59.3161 116.367 59.1854 116.816 58.9384C117.184 58.7359 125.921 53.8972 134.796 46.8103C147.135 36.9586 153.39 27.8794 153.39 19.8248C153.39 9.19364 144.169 0.544922 132.835 0.544922C125.498 0.544922 118.974 4.17374 115.333 9.70798C111.692 4.17374 105.168 0.544922 97.831 0.544922C86.4963 0.544922 77.2754 9.19391 77.2754 19.8248C77.2754 27.8791 83.5313 36.9583 95.8697 46.8103ZM97.831 6.03161C105.276 6.03161 111.551 11.2537 112.428 18.1785C112.603 19.5589 113.851 20.5983 115.333 20.5983C116.815 20.5983 118.063 19.5587 118.238 18.1785C119.115 11.2537 125.39 6.03161 132.835 6.03161C140.944 6.03161 147.54 12.2193 147.54 19.8243C147.54 32.1535 125.547 47.455 115.333 53.3692C105.118 47.4545 83.1257 32.1535 83.1257 19.8243C83.1257 12.2187 89.7225 6.03161 97.831 6.03161Z" fill="white"/>
<path d="M115.343 46.2571C115.918 46.2571 116.498 46.0993 117.006 45.7697C120.826 43.2961 124.356 40.7589 127.499 38.2295C128.622 37.325 129.705 36.4126 130.718 35.5181C131.899 34.474 131.956 32.7275 130.845 31.6171C129.734 30.507 127.876 30.4531 126.694 31.4973C125.749 32.3335 124.734 33.1882 123.679 34.0369C120.692 36.4418 117.326 38.8601 113.675 41.2241C112.339 42.0889 112.003 43.8071 112.923 45.0623C113.492 45.8398 114.41 46.2571 115.343 46.2571Z" fill="white"/>
<path d="M133.869 28.6264C134.433 28.9561 135.077 29.1143 135.715 29.1143C136.739 29.1143 137.746 28.7064 138.375 27.9454C138.457 27.8469 138.537 27.7484 138.616 27.651C139.617 26.4051 139.229 24.7117 137.749 23.8684C136.268 23.0257 134.256 23.3521 133.254 24.5977C133.191 24.6762 133.126 24.7551 133.06 24.8346C132.04 26.07 132.402 27.7674 133.869 28.6264Z" fill="white"/>
<path d="M153.366 65.424C149.926 59.8093 142.494 57.8279 136.441 60.9089L115.052 71.5377C115.042 71.5429 115.032 71.5477 115.022 71.5528C112.311 72.9371 109.29 73.7429 106.216 73.9089C107.117 72.3509 107.628 70.5657 107.628 68.6703C107.628 62.6124 102.397 57.6836 95.9662 57.6836H78.5922C66.8368 57.6836 56.8032 61.3764 49.8708 68.0445V64.4835C49.8708 61.1321 46.977 58.4059 43.4198 58.4059H3.35826C1.68272 58.4054 0.324219 59.6855 0.324219 61.2637V104.581C0.324219 106.159 1.68272 107.439 3.35826 107.439L43.4198 107.476C46.977 107.476 49.8708 104.75 49.8708 101.398V98.5621L62.1967 101.591C65.4021 102.379 68.7079 102.779 72.0221 102.779H99.9124C104.394 102.779 108.846 101.716 112.769 99.7161L148.451 81.8178C151.471 80.2758 153.648 77.7119 154.582 74.5982C155.515 71.4845 155.083 68.2262 153.366 65.424ZM25.9907 101.722H6.3923V64.1217H25.9907V101.722ZM43.8027 76.5815C43.7909 76.733 43.7888 76.8853 43.8027 77.0365V94.8625V101.398C43.8027 101.597 43.631 101.759 43.4198 101.759H32.0585V64.1217H43.4198C43.6307 64.1217 43.8027 64.2834 43.8027 64.4827V76.5815ZM148.742 73.0445C148.257 74.6608 147.127 75.9919 145.579 76.782L109.898 94.6797C106.842 96.2382 103.389 97.0622 99.9124 97.0622H72.0221C69.2247 97.0622 66.4345 96.7248 63.7287 96.0597L49.8708 92.6542V77.4995C55.2229 68.5277 65.6424 63.3988 78.5922 63.3988H95.9662C99.0513 63.3988 101.561 65.7628 101.561 68.6692C101.561 71.5756 99.0513 73.9399 95.9662 73.9399H75.2474C73.5722 73.9399 72.2134 75.2197 72.2134 76.7982C72.2134 78.3764 73.5719 79.6565 75.2474 79.6565H95.9662H105.026C109.507 79.6565 113.957 78.5948 117.898 76.5855L139.287 65.9567C139.297 65.9516 139.307 65.9467 139.317 65.9416C142.462 64.3361 146.324 65.3642 148.111 68.2814C149.002 69.7366 149.227 71.4281 148.742 73.0445Z" fill="white"/>
</svg>
