<svg width="136" height="114" viewBox="0 0 136 114" fill="none" xmlns="http://www.w3.org/2000/svg">
<g opacity="0.5">
<path d="M21.2435 67.6289C19.5878 67.6289 18.173 68.102 16.7538 69.0481C15.5712 68.102 13.9155 67.6289 12.2642 67.6289C7.77455 67.6289 4.22656 71.409 4.22656 76.1351C4.22656 81.0979 12.4963 89.6086 15.0981 91.9694C15.5712 92.4425 16.0442 92.679 16.7538 92.679C17.4634 92.679 17.9365 92.4425 18.4096 91.9694C21.007 89.372 29.2811 81.0979 29.2811 76.1351C29.2811 71.409 25.7331 67.6289 21.2435 67.6289ZM16.7538 86.7702C12.7373 82.7536 8.95274 77.7909 8.95274 75.8986C8.95274 73.7698 10.3719 72.1186 12.2597 72.1186C13.2059 72.1186 14.152 72.5916 14.8616 73.5377C15.3347 74.2473 16.0442 74.4839 16.7538 74.4839C17.4634 74.4839 18.173 74.0108 18.6461 73.5377C19.3557 72.5916 20.3018 72.1186 21.248 72.1186C23.1402 72.1186 24.5549 73.7743 24.5549 75.8986C24.5505 77.5543 20.7704 82.5171 16.7538 86.7702Z" fill="white"/>
<path d="M17.4612 56.168C18.1004 56.6132 18.6911 56.7872 19.5043 56.6415C20.3175 56.4958 20.8111 56.1276 21.2561 55.4883C23.6942 51.9789 31.4774 40.7966 30.4585 35.1084C29.4882 29.6913 24.6513 26.0861 19.5011 27.0087C17.6037 27.3486 16.0795 28.1812 14.6474 29.557C13.0979 28.7153 11.1084 28.5121 9.21098 28.852C4.06592 29.7736 0.776103 34.8346 1.74646 40.2517C2.81906 46.2101 13.9948 53.9962 17.4612 56.168ZM10.2299 34.5402C11.3141 34.3459 12.4955 34.6939 13.503 35.6327C14.1899 36.3438 15.0465 36.4702 15.8597 36.3245C16.6729 36.1788 17.3889 35.4909 17.8339 34.8516C18.4528 33.6215 19.44 32.8851 20.5242 32.6908C22.6927 32.3024 24.6539 33.9097 25.0901 36.3446C25.43 38.2424 22.1171 44.7066 18.3822 50.4069C12.9546 46.6277 7.59873 41.7164 7.21022 39.5475C6.7801 37.1168 8.06141 34.9286 10.2299 34.5402Z" fill="white"/>
<path d="M135.079 45.3514C134.843 44.8783 134.37 44.4053 133.897 43.9322L113.809 34.9529C114.282 34.9529 114.755 35.1894 115.228 35.1894C116.411 35.1894 117.594 34.9529 118.772 34.4798C121.374 33.5337 123.261 31.6459 124.444 29.2806C126.809 24.3179 124.444 18.1725 119.481 16.0437C116.648 14.861 110.739 15.0976 106.718 15.5706C104.116 16.0437 101.045 16.7533 98.68 17.6994C97.9704 15.0976 96.5512 12.5002 95.1365 10.1349C92.7711 6.59134 89.2276 2.09723 86.3937 0.919031C84.0284 -0.26363 81.1945 -0.26363 78.5926 0.682499C75.9907 1.62863 74.103 3.51642 72.9203 5.88175C71.7376 8.24707 71.7376 11.081 72.6838 13.6828C73.3934 15.3386 74.3395 16.5168 75.5177 17.6994L55.4303 8.71567C54.9617 8.47914 54.2521 8.47914 53.5425 8.71567C53.0694 8.9522 52.5964 9.42527 52.1233 9.89833L44.7953 26.2057C44.3222 27.3883 44.7953 28.8075 45.9779 29.2761L114.514 60.2351H43.8536C42.4344 60.2351 41.4883 61.1812 41.4883 62.6004V111.049C41.4883 112.469 42.4344 113.415 43.8536 113.415H75.2856H89.7007H121.133C122.552 113.415 123.498 112.469 123.498 111.049V64.0196L124.681 64.4927C124.917 64.7292 125.39 64.7292 125.627 64.7292C126.573 64.7292 127.283 64.2561 127.756 63.31L135.084 47.0026C135.316 46.5296 135.316 45.8245 135.079 45.3514ZM46.2145 64.9657H72.9203V108.688H46.2145V64.9657ZM77.6465 108.688V64.9657H87.3354V108.688H77.6465ZM118.772 108.688H92.066V64.9657H118.772V108.688ZM97.0287 32.5876L91.5929 44.4053L82.8502 40.3887L88.286 28.571L94.1948 31.1728L97.0287 32.5876ZM95.1365 25.023C95.8461 25.9691 96.7922 26.9153 97.9704 27.8569L91.1154 24.7865C92.0615 25.023 93.0077 25.2595 93.9493 25.2595C94.4269 25.023 94.8999 25.023 95.1365 25.023ZM117.353 20.0603C119.954 21.243 121.133 24.5499 119.954 27.1518C119.481 28.571 118.299 29.5171 116.884 29.9857C115.469 30.4543 114.05 30.4588 112.867 29.7492C112.394 29.5127 111.448 29.2761 110.739 28.8031C103.884 25.9691 99.8671 23.8403 99.1575 22.4212C101.282 20.5334 114.046 18.6456 117.353 20.0603ZM77.1734 7.774C77.6465 6.35481 78.8291 5.40868 80.2439 4.94008C80.9535 4.70355 81.4265 4.70355 82.1361 4.70355C82.8457 4.70355 83.5553 4.94008 84.2649 5.17661C87.5719 6.5958 94.6634 17.4674 94.4269 20.3013C93.0077 20.5378 88.7546 19.1186 82.1361 15.8116C81.19 15.3386 80.4804 15.102 80.0073 14.8655C78.5881 14.3924 77.642 13.2098 77.1734 11.7951C76.4683 10.6079 76.4683 9.18873 77.1734 7.774ZM55.4303 13.9149L83.7919 26.6787L78.3561 38.7329L49.9945 25.9691L55.4303 13.9149ZM124.444 59.2934L96.0826 46.5296L101.518 34.4754L129.88 47.2392L124.444 59.2934Z" fill="white"/>
</g>
</svg>
