<svg width="382" height="716" viewBox="0 0 382 716" fill="none" xmlns="http://www.w3.org/2000/svg">
<rect opacity="0.6" width="382" height="716" fill="black"/>
<path opacity="0.35" d="M318.777 30.0448C318.777 28.4866 320.04 27.2234 321.599 27.2234H343.302C344.86 27.2234 346.123 28.4866 346.123 30.0448V37.858C346.123 39.4162 344.86 40.6794 343.302 40.6794H321.599C320.04 40.6794 318.777 39.4162 318.777 37.858V30.0448Z" stroke="#1D232E" stroke-width="1.3022"/>
<path opacity="0.4" d="M348.076 31.3467V36.5555C349.124 36.1143 349.806 35.0881 349.806 33.9511C349.806 32.8141 349.124 31.7878 348.076 31.3467Z" fill="#1D232E"/>
<path d="M320.73 30.913C320.73 29.9541 321.508 29.1768 322.467 29.1768H342.434C343.393 29.1768 344.17 29.9541 344.17 30.913V36.9899C344.17 37.9489 343.393 38.7262 342.434 38.7262H322.467C321.508 38.7262 320.73 37.9489 320.73 36.9899V30.913Z" fill="#1D232E"/>
<path fill-rule="evenodd" clip-rule="evenodd" d="M301.628 29.5339C304.513 29.534 307.289 30.6428 309.38 32.6309C309.537 32.7844 309.789 32.7825 309.944 32.6266L311.45 31.1074C311.528 31.0283 311.572 30.9212 311.571 30.8098C311.571 30.6983 311.526 30.5917 311.446 30.5136C305.957 25.2533 297.298 25.2533 291.809 30.5136C291.729 30.5917 291.684 30.6982 291.684 30.8097C291.683 30.9211 291.727 31.0282 291.805 31.1074L293.311 32.6266C293.466 32.7827 293.718 32.7847 293.875 32.6309C295.967 30.6426 298.742 29.5339 301.628 29.5339ZM301.628 34.4766C303.213 34.4765 304.742 35.0658 305.917 36.13C306.076 36.281 306.326 36.2777 306.481 36.1226L307.985 34.6034C308.064 34.5237 308.108 34.4156 308.107 34.3033C308.106 34.1909 308.06 34.0837 307.979 34.0057C304.4 30.6768 298.858 30.6768 295.279 34.0057C295.199 34.0837 295.153 34.191 295.151 34.3033C295.15 34.4157 295.195 34.5238 295.274 34.6034L296.777 36.1226C296.932 36.2777 297.182 36.281 297.341 36.13C298.516 35.0665 300.043 34.4773 301.628 34.4766ZM304.64 37.8022C304.642 37.9148 304.598 38.0235 304.517 38.1024L301.916 40.7272C301.84 40.8043 301.736 40.8477 301.628 40.8477C301.519 40.8477 301.415 40.8043 301.339 40.7272L298.738 38.1024C298.657 38.0234 298.613 37.9148 298.616 37.8021C298.618 37.6895 298.667 37.5828 298.75 37.5073C300.411 36.1024 302.844 36.1024 304.505 37.5073C304.589 37.5828 304.637 37.6896 304.64 37.8022Z" fill="#1D232E"/>
<path fill-rule="evenodd" clip-rule="evenodd" d="M283.835 27.0059H282.533C281.814 27.0059 281.231 27.5889 281.231 28.3081V39.5938C281.231 40.313 281.814 40.896 282.533 40.896H283.835C284.554 40.896 285.137 40.313 285.137 39.5938V28.3081C285.137 27.5889 284.554 27.0059 283.835 27.0059ZM276.457 30.0443H277.759C278.478 30.0443 279.061 30.6273 279.061 31.3465V39.5937C279.061 40.3129 278.478 40.8959 277.759 40.8959H276.457C275.738 40.8959 275.155 40.3129 275.155 39.5937V31.3465C275.155 30.6273 275.738 30.0443 276.457 30.0443ZM271.682 33.0828H270.38C269.66 33.0828 269.077 33.6658 269.077 34.385V39.5938C269.077 40.313 269.66 40.896 270.38 40.896H271.682C272.401 40.896 272.984 40.313 272.984 39.5938V34.385C272.984 33.6658 272.401 33.0828 271.682 33.0828ZM265.604 35.6871H264.302C263.583 35.6871 263 36.2701 263 36.9893V39.5937C263 40.3129 263.583 40.8959 264.302 40.8959H265.604C266.324 40.8959 266.907 40.3129 266.907 39.5937V36.9893C266.907 36.2701 266.324 35.6871 265.604 35.6871Z" fill="#1D232E"/>
<path d="M22.0358 40.7954C25.5361 40.7954 27.6153 38.0581 27.6153 33.4228C27.6153 31.6774 27.2815 30.2087 26.6425 29.0737C25.7173 27.3092 24.1246 26.3555 22.1121 26.3555C19.1173 26.3555 17 28.3679 17 31.191C17 33.8425 18.9075 35.7691 21.5303 35.7691C23.1422 35.7691 24.4488 35.0156 25.0974 33.7089H25.126C25.126 33.7089 25.1642 33.7089 25.1737 33.7089C25.1928 33.7089 25.2595 33.7089 25.2595 33.7089C25.2595 36.8563 24.0673 38.7352 22.0549 38.7352C20.8723 38.7352 19.9566 38.0867 19.6419 37.0471H17.1908C17.6009 39.3075 19.5179 40.7954 22.0358 40.7954ZM22.1217 33.8139C20.5384 33.8139 19.413 32.6884 19.413 31.1147C19.413 29.5792 20.5957 28.406 22.1312 28.406C23.6668 28.406 24.8494 29.5982 24.8494 31.1529C24.8494 32.6884 23.6954 33.8139 22.1217 33.8139Z" fill="#1D232E"/>
<path d="M31.6406 40.6618C32.5466 40.6618 33.1666 40.0133 33.1666 39.1549C33.1666 38.287 32.5466 37.648 31.6406 37.648C30.744 37.648 30.1145 38.287 30.1145 39.1549C30.1145 40.0133 30.744 40.6618 31.6406 40.6618ZM31.6406 33.5087C32.5466 33.5087 33.1666 32.8696 33.1666 32.0113C33.1666 31.1433 32.5466 30.5043 31.6406 30.5043C30.744 30.5043 30.1145 31.1433 30.1145 32.0113C30.1145 32.8696 30.744 33.5087 31.6406 33.5087Z" fill="#1D232E"/>
<path d="M42.0941 40.4615H44.4499V37.8959H46.3097V35.8167H44.4499V26.6988H40.9782C38.5462 30.3613 36.61 33.4228 35.3701 35.7023V37.8959H42.0941V40.4615ZM37.6496 35.7309C39.2519 32.9078 40.6826 30.6474 41.9988 28.7017H42.1323V35.874H37.6496V35.7309Z" fill="#1D232E"/>
<path d="M51.5558 40.4615H54.0165V26.6988H51.5653L47.9697 29.2167V31.5821L51.3936 29.1786H51.5558V40.4615Z" fill="#1D232E"/>
<rect x="38" y="122" width="312" height="420" rx="16" fill="white"/>
<g clip-path="url(#clip0_135_751)">
<path opacity="0.3" d="M193.495 422.989C230.219 422.989 259.989 393.219 259.989 356.495C259.989 319.771 230.219 290 193.495 290C156.771 290 127 319.771 127 356.495C127 393.219 156.771 422.989 193.495 422.989Z" fill="url(#paint0_linear_135_751)"/>
<g opacity="0.9">
<mask id="mask0_135_751" style="mask-type:alpha" maskUnits="userSpaceOnUse" x="125" y="350" width="151" height="109">
<path d="M216.5 365C250.9 339.8 270.5 352.5 276 362C275 382.834 272.3 425.1 269.5 427.5C266.7 429.9 198.333 454.5 179.5 458.5L129 422L125 359C134.167 369.5 182.1 390.2 216.5 365Z" fill="#F178B6"/>
</mask>
<g mask="url(#mask0_135_751)">
<path d="M195.102 415.871C162.441 415.871 135.964 389.394 135.964 356.733C135.964 324.073 162.441 297.596 195.102 297.596C227.762 297.596 254.239 324.073 254.239 356.733C254.239 389.394 227.762 415.871 195.102 415.871Z" fill="url(#paint1_linear_135_751)"/>
</g>
</g>
<mask id="mask1_135_751" style="mask-type:alpha" maskUnits="userSpaceOnUse" x="125" y="350" width="151" height="109">
<path d="M184.5 365C150.1 339.8 130.5 352.5 125 362C126 382.834 128.7 425.1 131.5 427.5C134.3 429.9 202.667 454.5 221.5 458.5L272 422L276 359C266.833 369.5 218.9 390.2 184.5 365Z" fill="#F178B6"/>
</mask>
<g mask="url(#mask1_135_751)">
<path d="M193.733 415.871C226.394 415.871 252.871 389.394 252.871 356.733C252.871 324.073 226.394 297.596 193.733 297.596C161.073 297.596 134.596 324.073 134.596 356.733C134.596 389.394 161.073 415.871 193.733 415.871Z" fill="url(#paint2_linear_135_751)"/>
</g>
<path d="M169.276 370.969C171.553 370.969 173.399 369.123 173.399 366.846C173.399 364.569 171.553 362.723 169.276 362.723C166.998 362.723 165.152 364.569 165.152 366.846C165.152 369.123 166.998 370.969 169.276 370.969Z" fill="#636B4D"/>
<path d="M209.315 378.424C211.592 378.424 213.438 376.578 213.438 374.301C213.438 372.024 211.592 370.178 209.315 370.178C207.038 370.178 205.191 372.024 205.191 374.301C205.191 376.578 207.038 378.424 209.315 378.424Z" fill="#636B4D"/>
<path d="M161.3 377.524C162.36 380.12 163.71 382.588 165.325 384.881C166.917 387.169 168.795 389.244 170.914 391.055C171.974 391.924 173.082 392.732 174.234 393.475C175.391 394.194 176.59 394.843 177.826 395.417C180.375 396.541 183.091 397.238 185.866 397.479C188.648 397.82 191.461 397.82 194.243 397.479C196.971 397.114 199.63 396.346 202.132 395.2C207.156 392.911 211.507 389.189 215.479 385.033C215.826 384.691 216.29 384.493 216.777 384.479C217.265 384.465 217.739 384.636 218.106 384.957C218.473 385.278 218.704 385.726 218.754 386.211C218.804 386.696 218.669 387.182 218.376 387.572C214.562 392.556 209.615 396.559 203.944 399.247C201.024 400.547 197.92 401.385 194.742 401.732C191.619 402.062 188.467 402.011 185.356 401.58C183.826 401.374 182.307 401.114 180.734 400.777C179.178 400.41 177.648 399.938 176.155 399.367C173.166 398.183 170.422 396.458 168.06 394.278C165.721 392.153 163.706 389.696 162.081 386.986C160.42 384.313 159.152 381.415 158.316 378.381C158.231 378.006 158.288 377.612 158.477 377.276C158.666 376.941 158.973 376.688 159.338 376.566C159.704 376.444 160.101 376.463 160.454 376.618C160.806 376.773 161.088 377.053 161.246 377.405L161.3 377.524Z" fill="#636B4D"/>
</g>
<rect x="58" y="485" width="266" height="4" rx="2" fill="#E8E8E8"/>
<rect x="58" y="485" width="174.236" height="4" rx="2" fill="#00B1B3"/>
<path d="M238.04 469.712C239.208 469.712 239.848 470.528 239.848 472.032C239.848 473.584 239.16 474.352 238.04 474.352C237.032 474.352 236.36 473.744 236.248 472.576H233.976C234.12 474.864 235.624 476.256 238.04 476.256C240.568 476.256 242.12 474.704 242.12 472.048C242.12 469.216 240.632 467.824 238.568 467.824C237.704 467.824 237 468.192 236.68 468.688L236.856 465.28H241.432V463.376H234.744L234.408 470.48H236.632C236.904 470.016 237.384 469.712 238.04 469.712ZM245.88 473.632H243.464V476.032H244.664C244.664 476.736 244.264 477.12 243.464 477.152V478.192C245.08 478.144 245.88 477.248 245.88 476.032V473.632ZM247.393 473.024C247.681 475.136 249.137 476.256 251.233 476.256C254.193 476.256 255.473 474.24 255.473 469.184C255.473 467.216 255.249 465.744 254.497 464.704C253.761 463.68 252.641 463.152 251.281 463.152C248.897 463.152 247.153 464.768 247.153 467.392C247.153 470.016 248.737 471.584 250.897 471.584C251.985 471.584 252.785 471.136 253.137 470.464C253.089 473.136 252.577 474.384 251.249 474.384C250.353 474.384 249.841 473.872 249.713 473.024H247.393ZM249.425 467.392C249.425 465.936 250.129 465.072 251.297 465.072C252.465 465.072 253.169 465.936 253.169 467.392C253.169 468.848 252.465 469.712 251.297 469.712C250.129 469.712 249.425 468.848 249.425 467.392ZM262.657 476.032V463.376H260.721L257.553 464.816V466.928L260.385 465.664V476.032H262.657ZM274.017 469.696C274.017 466.896 273.569 465.328 272.657 464.304C271.969 463.552 270.977 463.152 269.729 463.152C268.465 463.152 267.473 463.552 266.785 464.304C265.873 465.328 265.425 466.896 265.425 469.696C265.425 472.528 265.873 474.096 266.785 475.104C267.473 475.872 268.465 476.256 269.729 476.256C270.977 476.256 271.969 475.872 272.657 475.104C273.569 474.096 274.017 472.528 274.017 469.696ZM271.745 469.696C271.745 471.968 271.585 473.072 271.121 473.696C270.769 474.144 270.321 474.352 269.729 474.352C269.121 474.352 268.673 474.144 268.337 473.696C267.857 473.072 267.697 471.968 267.697 469.696C267.697 467.456 267.857 466.352 268.337 465.712C268.673 465.28 269.121 465.072 269.729 465.072C270.321 465.072 270.769 465.28 271.121 465.712C271.585 466.352 271.745 467.456 271.745 469.696ZM277.618 473.632H275.202V476.032H276.402C276.402 476.736 276.002 477.12 275.202 477.152V478.192C276.818 478.144 277.618 477.248 277.618 476.032V473.632ZM287.386 469.696C287.386 466.896 286.938 465.328 286.026 464.304C285.338 463.552 284.346 463.152 283.098 463.152C281.834 463.152 280.842 463.552 280.154 464.304C279.242 465.328 278.794 466.896 278.794 469.696C278.794 472.528 279.242 474.096 280.154 475.104C280.842 475.872 281.834 476.256 283.098 476.256C284.346 476.256 285.338 475.872 286.026 475.104C286.938 474.096 287.386 472.528 287.386 469.696ZM285.114 469.696C285.114 471.968 284.954 473.072 284.49 473.696C284.138 474.144 283.69 474.352 283.098 474.352C282.49 474.352 282.042 474.144 281.706 473.696C281.226 473.072 281.066 471.968 281.066 469.696C281.066 467.456 281.226 466.352 281.706 465.712C282.042 465.28 282.49 465.072 283.098 465.072C283.69 465.072 284.138 465.28 284.49 465.712C284.954 466.352 285.114 467.456 285.114 469.696ZM296.571 469.696C296.571 466.896 296.123 465.328 295.211 464.304C294.523 463.552 293.531 463.152 292.283 463.152C291.019 463.152 290.027 463.552 289.339 464.304C288.427 465.328 287.979 466.896 287.979 469.696C287.979 472.528 288.427 474.096 289.339 475.104C290.027 475.872 291.019 476.256 292.283 476.256C293.531 476.256 294.523 475.872 295.211 475.104C296.123 474.096 296.571 472.528 296.571 469.696ZM294.299 469.696C294.299 471.968 294.139 473.072 293.675 473.696C293.323 474.144 292.875 474.352 292.283 474.352C291.675 474.352 291.227 474.144 290.891 473.696C290.411 473.072 290.251 471.968 290.251 469.696C290.251 467.456 290.411 466.352 290.891 465.712C291.227 465.28 291.675 465.072 292.283 465.072C292.875 465.072 293.323 465.28 293.675 465.712C294.139 466.352 294.299 467.456 294.299 469.696ZM305.755 469.696C305.755 466.896 305.307 465.328 304.395 464.304C303.707 463.552 302.715 463.152 301.467 463.152C300.203 463.152 299.211 463.552 298.523 464.304C297.611 465.328 297.163 466.896 297.163 469.696C297.163 472.528 297.611 474.096 298.523 475.104C299.211 475.872 300.203 476.256 301.467 476.256C302.715 476.256 303.707 475.872 304.395 475.104C305.307 474.096 305.755 472.528 305.755 469.696ZM303.483 469.696C303.483 471.968 303.323 473.072 302.859 473.696C302.507 474.144 302.059 474.352 301.467 474.352C300.859 474.352 300.411 474.144 300.075 473.696C299.595 473.072 299.435 471.968 299.435 469.696C299.435 467.456 299.595 466.352 300.075 465.712C300.411 465.28 300.859 465.072 301.467 465.072C302.059 465.072 302.507 465.28 302.859 465.712C303.323 466.352 303.483 467.456 303.483 469.696Z" fill="black"/>
<path d="M313.392 466.78C313.392 466.192 313.656 465.748 314.064 465.448C314.592 465.064 315.372 464.884 316.224 464.884C317.064 464.884 317.844 465.064 318.372 465.448C318.792 465.748 319.044 466.192 319.044 466.78C319.044 467.368 318.792 467.812 318.372 468.1C317.844 468.496 317.064 468.676 316.224 468.676C315.372 468.676 314.592 468.496 314.064 468.1C313.656 467.812 313.392 467.368 313.392 466.78ZM314.1 466.78C314.1 467.152 314.268 467.464 314.556 467.656C314.94 467.944 315.54 468.076 316.224 468.076C316.884 468.076 317.496 467.944 317.88 467.656C318.168 467.464 318.336 467.152 318.336 466.78C318.336 466.408 318.168 466.096 317.88 465.892C317.496 465.616 316.884 465.472 316.224 465.472C315.54 465.472 314.94 465.616 314.556 465.892C314.268 466.096 314.1 466.408 314.1 466.78ZM321.876 473.092H321.144V471.976H318.612V471.388H321.144V464.944H321.876V473.092ZM317.352 470.284H316.08V472.468H315.348V470.284H312.924V469.672H317.268C318.324 469.672 319.392 469.6 320.124 469.336V469.924C319.452 470.236 318.42 470.284 317.352 470.284ZM322.092 475.684H314.016V472.852H314.748V475.06H322.092V475.684Z" fill="black"/>
<path d="M65.84 465.586C65.602 463.738 64.328 462.758 62.48 462.758C59.876 462.758 58.784 464.578 58.784 468.96C58.784 470.696 58.966 471.942 59.638 472.866C60.282 473.762 61.234 474.224 62.438 474.224C64.524 474.224 66.064 472.81 66.064 470.528C66.064 468.218 64.678 466.846 62.774 466.846C61.822 466.846 61.136 467.238 60.814 467.84C60.856 465.502 61.304 464.41 62.48 464.41C63.25 464.41 63.698 464.844 63.824 465.586H65.84ZM64.076 470.528C64.076 471.802 63.446 472.558 62.424 472.558C61.416 472.558 60.786 471.802 60.786 470.528C60.786 469.24 61.416 468.498 62.424 468.498C63.446 468.498 64.076 469.24 64.076 470.528ZM70.4463 468.498C71.4683 468.498 72.0283 469.212 72.0283 470.528C72.0283 471.886 71.4263 472.558 70.4463 472.558C69.5643 472.558 68.9763 472.026 68.8783 471.004H66.8903C67.0163 473.006 68.3323 474.224 70.4463 474.224C72.6583 474.224 74.0163 472.866 74.0163 470.542C74.0163 468.064 72.7143 466.846 70.9083 466.846C70.1523 466.846 69.5363 467.168 69.2563 467.602L69.4103 464.62H73.4143V462.954H67.5623L67.2683 469.17H69.2143C69.4523 468.764 69.8723 468.498 70.4463 468.498ZM78.8547 473.987L83.0277 463.795H82.0917L77.9187 473.987H78.8547ZM79.6737 466.369C79.6737 464.536 78.9197 463.626 77.6197 463.626C76.3067 463.626 75.5527 464.536 75.5527 466.369C75.5527 468.202 76.3067 469.125 77.6197 469.125C78.9197 469.125 79.6737 468.202 79.6737 466.369ZM78.7377 466.369C78.7377 467.838 78.3347 468.332 77.6197 468.332C76.8917 468.332 76.4887 467.838 76.4887 466.369C76.4887 464.913 76.8917 464.419 77.6197 464.419C78.3347 464.419 78.7377 464.913 78.7377 466.369ZM81.2727 471.413C81.2727 473.246 82.0267 474.156 83.3397 474.156C84.6397 474.156 85.3937 473.246 85.3937 471.413C85.3937 469.58 84.6397 468.657 83.3397 468.657C82.0267 468.657 81.2727 469.58 81.2727 471.413ZM82.2087 471.413C82.2087 469.944 82.6117 469.45 83.3397 469.45C84.0547 469.45 84.4577 469.944 84.4577 471.413C84.4577 472.869 84.0547 473.363 83.3397 473.363C82.6117 473.363 82.2087 472.869 82.2087 471.413Z" fill="#00B1B3"/>
<path d="M102.23 196.327H108.379V197.029H105.701V201.02C105.701 203.867 107.131 205.44 108.496 206.116V206.831C106.975 206.207 105.753 204.829 105.311 203.321C104.869 204.842 103.582 206.246 102.1 206.831V206.116C103.439 205.479 104.908 203.867 104.908 201.02V197.029H102.23V196.327ZM111.317 196.106V201.059H113.254V201.735H111.317V207.624H110.524V196.106H111.317ZM123.355 198.732V196.964H119.819V196.275H124.148V198.706C124.148 199.837 124.044 201.046 123.888 201.904H123.082C123.251 201.033 123.355 199.824 123.355 198.732ZM118.805 196.275V198.693C118.805 199.772 118.649 201.059 118.415 201.904H117.622C117.869 201.033 118.012 199.746 118.012 198.719V196.964H115.035V196.275H118.805ZM114.528 203.945V203.256H124.785V203.945H120.04V207.832H119.247V203.945H114.528ZM127.189 196.327H133.338V197.029H130.66V201.02C130.66 203.867 132.09 205.44 133.455 206.116V206.831C131.934 206.207 130.712 204.829 130.27 203.321C129.828 204.842 128.541 206.246 127.059 206.831V206.116C128.398 205.479 129.867 203.867 129.867 201.02V197.029H127.189V196.327ZM136.276 196.106V201.059H138.213V201.735H136.276V207.624H135.483V196.106H136.276ZM148.314 198.732V196.964H144.778V196.275H149.107V198.706C149.107 199.837 149.003 201.046 148.847 201.904H148.041C148.21 201.033 148.314 199.824 148.314 198.732ZM143.764 196.275V198.693C143.764 199.772 143.608 201.059 143.374 201.904H142.581C142.828 201.033 142.971 199.746 142.971 198.719V196.964H139.994V196.275H143.764ZM139.487 203.945V203.256H149.744V203.945H144.999V207.832H144.206V203.945H139.487ZM165.344 196.951H157.154V200.916H165.474V201.618H156.361V196.262H165.344V196.951ZM155.724 204.543V203.841H165.981V204.543H161.236V207.832H160.443V204.543H155.724ZM177.72 196.938H169.738V199.447H177.785V200.11H168.945V196.262H177.72V196.938ZM168.139 202.476V201.8H178.526V202.476H173.729V204.53H177.72V207.832H176.927V205.232H168.854V204.53H172.936V202.476H168.139ZM185.675 198.29H180.8V197.588H182.867V195.729H183.66V197.588H185.675V198.29ZM181.827 203.308C181.827 204.738 182.061 205.622 182.49 206.038C182.698 206.259 182.971 206.35 183.27 206.35C183.569 206.35 183.829 206.259 184.05 206.038C184.466 205.622 184.713 204.738 184.713 203.308C184.713 201.878 184.466 201.007 184.05 200.578C183.829 200.357 183.569 200.266 183.27 200.266C182.971 200.266 182.698 200.357 182.49 200.578C182.061 201.007 181.827 201.878 181.827 203.308ZM181.06 203.308C181.06 201.644 181.398 200.552 182.048 200.006C182.386 199.72 182.789 199.577 183.27 199.577C183.751 199.577 184.167 199.72 184.492 200.006C185.142 200.552 185.48 201.644 185.48 203.308C185.48 204.985 185.142 206.064 184.492 206.623C184.167 206.896 183.751 207.026 183.27 207.026C182.789 207.026 182.386 206.896 182.048 206.623C181.398 206.064 181.06 204.985 181.06 203.308ZM190.407 207.624H189.64V201.683H187.807V207.494H187.04V196.171H187.807V200.968H189.64V196.106H190.407V207.624ZM193.475 196.327H199.624V197.029H196.92V201.02C196.92 203.867 198.35 205.44 199.715 206.116V206.831C198.207 206.207 196.972 204.829 196.53 203.321C196.101 204.842 194.801 206.246 193.332 206.831V206.116C194.671 205.479 196.127 203.867 196.127 201.02V197.029H193.475V196.327ZM201.912 207.611V196.106H202.705V207.611H201.912ZM207.176 196.184V199.291H215.236V199.967H206.383V196.184H207.176ZM205.577 202.801V202.099H215.964V202.801H205.577ZM207.176 204.244V207H215.392V207.689H206.383V204.244H207.176ZM226.858 198.745V197.042H222.321V196.327H227.651V198.667C227.651 203.035 225.909 205.921 222.243 206.883V206.168C225.298 205.245 226.858 202.671 226.858 198.745ZM230.628 207.611V196.106H231.421V207.611H230.628ZM235.789 198.251H243.186V196.262H243.979V202.008H234.996V196.262H235.789V198.251ZM243.186 201.306V198.927H235.789V201.306H243.186ZM234.359 204.66V203.945H244.616V204.66H239.871V207.832H239.078V204.66H234.359ZM254.391 201.995H256.679V202.684H252.389V206.428H257.095V207.091H246.838V206.428H251.596V202.684H247.241V201.995H249.1V197.029H247.475V196.327H256.458V197.029H254.833V199.096C254.833 200.11 254.703 201.306 254.391 201.995ZM249.893 197.029V201.995H253.611C253.936 201.267 254.04 200.11 254.04 199.161V197.029H249.893ZM259.487 199.304C259.487 198.199 259.838 197.328 260.436 196.756C260.93 196.288 261.632 196.041 262.464 196.041C263.296 196.041 263.985 196.288 264.479 196.756C265.09 197.328 265.428 198.199 265.428 199.304C265.428 200.422 265.09 201.293 264.479 201.865C263.985 202.333 263.296 202.593 262.464 202.593C261.632 202.593 260.93 202.333 260.436 201.865C259.838 201.293 259.487 200.422 259.487 199.304ZM260.267 199.304C260.267 200.175 260.501 200.877 260.956 201.319C261.32 201.696 261.84 201.904 262.464 201.904C263.088 201.904 263.595 201.696 263.972 201.319C264.414 200.877 264.648 200.175 264.648 199.304C264.648 198.446 264.414 197.744 263.972 197.302C263.595 196.925 263.088 196.73 262.464 196.73C261.84 196.73 261.32 196.925 260.956 197.302C260.501 197.744 260.267 198.446 260.267 199.304ZM268.912 204.114H268.119V196.106H268.912V204.114ZM269.146 207.689H260.397V204.036H261.19V207H269.146V207.689ZM281.417 197.029H273.227V199.642H281.261V200.331H273.227V202.931H281.56V203.633H272.434V196.327H281.417V197.029ZM271.797 207.091V206.428H282.054V207.091H271.797ZM285.46 204.01L285.538 198.615V196.847H284.706V198.615L284.771 204.01H285.46ZM285.551 205.635H284.68V206.948H285.551V205.635Z" fill="#333333"/>
<path d="M199.802 224.28V222.64H193.482V220.26H202.522V223.96C202.522 230.94 200.002 235.64 193.382 237.3V234.7C197.942 233.38 199.802 229.7 199.802 224.28ZM208.262 238.3H205.522V219.94H208.262V238.3ZM224.361 222.72V220.16H227.101V229.74H212.621V220.16H215.361V222.72H224.361ZM224.361 225.08H215.361V227.38H224.361V225.08ZM211.701 231.54H228.021V233.94H221.201V238.6H218.461V233.94H211.701V231.54ZM236.399 223.92C236.399 222.74 236.819 221.76 237.619 221.06C238.459 220.28 239.779 219.84 241.399 219.84C243.019 219.84 244.339 220.28 245.179 221.06C245.979 221.76 246.399 222.74 246.399 223.92C246.399 225.1 245.979 226.08 245.179 226.78C244.599 227.32 243.779 227.7 242.799 227.88V229.18H245.119C246.639 229.18 247.519 228.98 248.139 228.54V219.94H250.879V225.22H253.479V227.58H250.879V233.36H248.139V230.78C247.499 231.3 246.419 231.56 244.379 231.56H235.859V229.18H240.059V227.88C239.039 227.72 238.219 227.34 237.619 226.78C236.819 226.08 236.399 225.1 236.399 223.92ZM239.019 223.92C239.019 224.44 239.199 224.84 239.519 225.14C239.919 225.5 240.539 225.68 241.399 225.68C242.259 225.68 242.879 225.5 243.279 225.14C243.599 224.84 243.779 224.44 243.779 223.92C243.779 223.4 243.599 223 243.279 222.7C242.879 222.34 242.259 222.16 241.399 222.16C240.539 222.16 239.919 222.34 239.519 222.7C239.199 223 239.019 223.4 239.019 223.92ZM237.219 238.5V232.78H239.959V236.12H251.199V238.5H237.219ZM258.439 229.74H270.379V232.12H267.639V235.12H271.099V237.5H254.779V235.12H258.339V232.12H255.699V224.96H267.439V222.64H255.699V220.26H270.179V227.34H258.439V229.74ZM264.939 232.12H261.059V235.12H264.939V232.12Z" fill="#333333"/>
<path d="M122.524 229.14C123.984 229.14 124.784 230.16 124.784 232.04C124.784 233.98 123.924 234.94 122.524 234.94C121.264 234.94 120.424 234.18 120.284 232.72H117.444C117.624 235.58 119.504 237.32 122.524 237.32C125.684 237.32 127.624 235.38 127.624 232.06C127.624 228.52 125.764 226.78 123.184 226.78C122.104 226.78 121.224 227.24 120.824 227.86L121.044 223.6H126.764V221.22H118.404L117.984 230.1H120.764C121.104 229.52 121.704 229.14 122.524 229.14ZM132.924 234.04H129.904V237.04H131.404C131.404 237.92 130.904 238.4 129.904 238.44V239.74C131.924 239.68 132.924 238.56 132.924 237.04V234.04ZM145.735 229.12C145.735 225.62 145.175 223.66 144.035 222.38C143.175 221.44 141.935 220.94 140.375 220.94C138.795 220.94 137.555 221.44 136.695 222.38C135.555 223.66 134.995 225.62 134.995 229.12C134.995 232.66 135.555 234.62 136.695 235.88C137.555 236.84 138.795 237.32 140.375 237.32C141.935 237.32 143.175 236.84 144.035 235.88C145.175 234.62 145.735 232.66 145.735 229.12ZM142.895 229.12C142.895 231.96 142.695 233.34 142.115 234.12C141.675 234.68 141.115 234.94 140.375 234.94C139.615 234.94 139.055 234.68 138.635 234.12C138.035 233.34 137.835 231.96 137.835 229.12C137.835 226.32 138.035 224.94 138.635 224.14C139.055 223.6 139.615 223.34 140.375 223.34C141.115 223.34 141.675 223.6 142.115 224.14C142.695 224.94 142.895 226.32 142.895 229.12ZM157.815 229.12C157.815 225.62 157.255 223.66 156.115 222.38C155.255 221.44 154.015 220.94 152.455 220.94C150.875 220.94 149.635 221.44 148.775 222.38C147.635 223.66 147.075 225.62 147.075 229.12C147.075 232.66 147.635 234.62 148.775 235.88C149.635 236.84 150.875 237.32 152.455 237.32C154.015 237.32 155.255 236.84 156.115 235.88C157.255 234.62 157.815 232.66 157.815 229.12ZM154.975 229.12C154.975 231.96 154.775 233.34 154.195 234.12C153.755 234.68 153.195 234.94 152.455 234.94C151.695 234.94 151.135 234.68 150.715 234.12C150.115 233.34 149.915 231.96 149.915 229.12C149.915 226.32 150.115 224.94 150.715 224.14C151.135 223.6 151.695 223.34 152.455 223.34C153.195 223.34 153.755 223.6 154.195 224.14C154.775 224.94 154.975 226.32 154.975 229.12ZM169.896 229.12C169.896 225.62 169.336 223.66 168.196 222.38C167.336 221.44 166.096 220.94 164.536 220.94C162.956 220.94 161.716 221.44 160.856 222.38C159.716 223.66 159.156 225.62 159.156 229.12C159.156 232.66 159.716 234.62 160.856 235.88C161.716 236.84 162.956 237.32 164.536 237.32C166.096 237.32 167.336 236.84 168.196 235.88C169.336 234.62 169.896 232.66 169.896 229.12ZM167.056 229.12C167.056 231.96 166.856 233.34 166.276 234.12C165.836 234.68 165.276 234.94 164.536 234.94C163.776 234.94 163.216 234.68 162.796 234.12C162.196 233.34 161.996 231.96 161.996 229.12C161.996 226.32 162.196 224.94 162.796 224.14C163.216 223.6 163.776 223.34 164.536 223.34C165.276 223.34 165.836 223.6 166.276 224.14C166.856 224.94 167.056 226.32 167.056 229.12Z" fill="#00B1B3"/>
<path d="M176.678 228.16V222.82H180.278C182.498 222.82 183.578 223.66 183.578 225.5C183.578 227.32 182.498 228.16 180.278 228.16H176.678ZM180.918 236.98C184.138 236.98 185.758 235.54 185.758 232.66C185.758 230.62 184.718 229.2 182.818 228.86C184.318 228.52 185.298 227.28 185.298 225.38C185.298 222.76 183.738 221.3 180.658 221.3H174.938V236.98H180.918ZM184.018 232.58C184.018 234.5 183.038 235.48 180.518 235.48H176.678V229.68H180.518C183.038 229.68 184.018 230.64 184.018 232.58Z" fill="#00B1B3"/>
<path d="M321 152.41L319.59 151L314 156.59L308.41 151L307 152.41L312.59 158L307 163.59L308.41 165L314 159.41L319.59 165L321 163.59L315.41 158L321 152.41Z" fill="black"/>
<defs>
<linearGradient id="paint0_linear_135_751" x1="135.735" y1="326.394" x2="253.696" y2="387.865" gradientUnits="userSpaceOnUse">
<stop stop-color="#D3F991"/>
<stop offset="0.98" stop-color="#89EF9E"/>
</linearGradient>
<linearGradient id="paint1_linear_135_751" x1="246.471" y1="329.963" x2="141.561" y2="384.633" gradientUnits="userSpaceOnUse">
<stop stop-color="#F3FFDF"/>
<stop offset="0.98" stop-color="#C8FFD3"/>
</linearGradient>
<linearGradient id="paint2_linear_135_751" x1="142.364" y1="329.963" x2="247.274" y2="384.633" gradientUnits="userSpaceOnUse">
<stop stop-color="#D3F991"/>
<stop offset="0.98" stop-color="#89EF9E"/>
</linearGradient>
<clipPath id="clip0_135_751">
<rect width="133" height="133" fill="white" transform="translate(127 290)"/>
</clipPath>
</defs>
</svg>
