<svg width="208" height="174" viewBox="0 0 208 174" fill="none" xmlns="http://www.w3.org/2000/svg">
<g opacity="0.6">
<path d="M32.5919 103.756C30.0517 103.756 27.8812 104.482 25.7039 105.933C23.8895 104.482 21.3493 103.756 18.8159 103.756C11.9279 103.756 6.48462 109.555 6.48462 116.806C6.48462 124.42 19.1719 137.477 23.1637 141.099C23.8895 141.825 24.6152 142.188 25.7039 142.188C26.7925 142.188 27.5183 141.825 28.2441 141.099C32.229 137.114 44.9232 124.42 44.9232 116.806C44.9232 109.555 39.4799 103.756 32.5919 103.756ZM25.7039 133.122C19.5417 126.96 13.7355 119.346 13.7355 116.443C13.7355 113.177 15.9128 110.644 18.8091 110.644C20.2606 110.644 21.7121 111.37 22.8008 112.821C23.5266 113.91 24.6152 114.273 25.7039 114.273C26.7925 114.273 27.8812 113.547 28.607 112.821C29.6956 111.37 31.1472 110.644 32.5987 110.644C35.5018 110.644 37.6723 113.184 37.6723 116.443C37.6654 118.983 31.8661 126.597 25.7039 133.122Z" fill="#00B1B3"/>
<path d="M26.7889 86.1717C27.7696 86.8546 28.6758 87.1215 29.9234 86.898C31.171 86.6745 31.9282 86.1096 32.6109 85.1287C36.3515 79.7447 48.2925 62.5889 46.7293 53.8621C45.2406 45.5513 37.8198 40.0202 29.9184 41.4355C27.0074 41.957 24.6691 43.2344 22.472 45.3451C20.0946 44.0539 17.0424 43.7421 14.1314 44.2635C6.23791 45.6775 1.19069 53.442 2.67941 61.7529C4.32498 70.8942 21.4707 82.8396 26.7889 86.1717ZM15.6946 52.9903C17.3581 52.6923 19.1705 53.2262 20.7162 54.6665C21.77 55.7575 23.0842 55.9513 24.3318 55.7278C25.5794 55.5043 26.678 54.449 27.3607 53.4681C28.3102 51.5809 29.8247 50.4511 31.4881 50.1531C34.815 49.5571 37.8239 52.0231 38.493 55.7587C39.0145 58.6702 33.9318 68.5875 28.2019 77.3329C19.8749 71.5349 11.6579 64 11.0619 60.6725C10.402 56.9434 12.3678 53.5863 15.6946 52.9903Z" fill="#00B1B3"/>
<path d="M207.237 69.5778C206.874 68.852 206.148 68.1262 205.422 67.4005L174.604 53.6245C175.33 53.6245 176.056 53.9874 176.782 53.9874C178.596 53.9874 180.41 53.6245 182.218 52.8987C186.21 51.4472 189.106 48.5509 190.92 44.9221C194.549 37.3083 190.92 27.8801 183.307 24.6141C178.959 22.7997 169.894 23.1626 163.725 23.8884C159.733 24.6141 155.022 25.7028 151.393 27.1544C150.305 23.1626 148.127 19.1777 145.957 15.5488C142.328 10.1124 136.892 3.21756 132.544 1.40997C128.915 -0.404459 124.567 -0.404459 120.575 1.04709C116.584 2.49863 113.687 5.39487 111.873 9.02373C110.058 12.6526 110.058 17.0004 111.51 20.9921C112.599 23.5323 114.05 25.3399 115.858 27.1544L85.0399 13.3715C84.321 13.0086 83.2323 13.0086 82.1436 13.3715C81.4179 13.7344 80.6921 14.4602 79.9663 15.186L68.7237 40.2046C67.9979 42.019 68.7237 44.1963 70.5381 44.9152L175.686 92.4122H67.279C65.1017 92.4122 63.6501 93.8638 63.6501 96.0411V170.371C63.6501 172.548 65.1017 174 67.279 174H115.502H137.617H185.84C188.017 174 189.469 172.548 189.469 170.371V98.2184L191.283 98.9442C191.646 99.3071 192.372 99.3071 192.735 99.3071C194.186 99.3071 195.275 98.5813 196.001 97.1298L207.244 72.1111C207.6 71.3854 207.6 70.3036 207.237 69.5778ZM70.901 99.67H111.873V166.749H70.901V99.67ZM119.124 166.749V99.67H133.988V166.749H119.124ZM182.218 166.749H141.246V99.67H182.218V166.749ZM148.86 49.9956L140.52 68.1263L127.107 61.964L135.447 43.8334L144.512 47.8252L148.86 49.9956ZM145.957 38.3901C147.045 39.8417 148.497 41.2932 150.305 42.7379L139.788 38.0272C141.239 38.3901 142.691 38.753 144.136 38.753C144.868 38.3901 145.594 38.3901 145.957 38.3901ZM180.041 30.7764C184.032 32.5908 185.84 37.6644 184.032 41.6561C183.307 43.8334 181.492 45.285 179.322 46.0039C177.151 46.7228 174.974 46.7297 173.16 45.641C172.434 45.2781 170.982 44.9152 169.894 44.1895C159.377 39.8417 153.215 36.5757 152.126 34.3984C155.385 31.5021 174.967 28.6059 180.041 30.7764ZM118.398 11.9268C119.124 9.74951 120.938 8.29796 123.109 7.57904C124.197 7.21615 124.923 7.21615 126.012 7.21615C127.1 7.21615 128.189 7.57904 129.278 7.94192C134.351 10.1192 145.231 26.7983 144.868 31.1461C142.691 31.509 136.166 29.3317 126.012 24.2581C124.56 23.5323 123.472 23.1694 122.746 22.8066C120.568 22.0808 119.117 20.2664 118.398 18.0959C117.316 16.2746 117.316 14.0973 118.398 11.9268ZM85.0399 21.3482L128.552 40.9303L120.212 59.4238L76.7004 39.8417L85.0399 21.3482ZM190.92 90.9675L147.408 71.3854L155.748 52.8919L199.26 72.474L190.92 90.9675Z" fill="#00B1B3"/>
</g>
</svg>
