<svg width="186" height="149" viewBox="0 0 186 149" fill="none" xmlns="http://www.w3.org/2000/svg">
<path opacity="0.6" d="M108.692 61.4383C120.478 70.8489 132.081 77.2749 132.569 77.5438C133.165 77.8719 133.849 78.0453 134.541 78.0453C135.232 78.0453 135.912 77.8719 136.508 77.5438C136.996 77.2749 148.599 70.8493 160.385 61.4383C176.77 48.3556 185.077 36.2989 185.077 25.6028C185.077 11.4851 172.832 0 157.78 0C148.038 0 139.374 4.8189 134.539 12.1681C129.704 4.8189 121.04 0 111.297 0C96.245 0 84 11.4855 84 25.6028C84 36.2986 92.3075 48.3553 108.692 61.4383ZM111.297 7.28606C121.183 7.28606 129.516 14.2208 130.681 23.4166C130.913 25.2497 132.57 26.6299 134.539 26.6299C136.507 26.6299 138.164 25.2493 138.396 23.4166C139.561 14.2208 147.894 7.28606 157.78 7.28606C168.548 7.28606 177.308 15.503 177.308 25.6021C177.308 41.9747 148.102 62.2944 134.539 70.1481C120.974 62.2937 91.7689 41.9747 91.7689 25.6021C91.7689 15.5023 100.529 7.28606 111.297 7.28606Z" fill="#00B1B3"/>
<path opacity="0.6" d="M175.058 93.2599C171.123 85.8177 162.623 83.1913 155.699 87.2752L131.233 101.364C131.221 101.371 131.21 101.377 131.198 101.384C128.098 103.219 124.641 104.287 121.125 104.507C122.155 102.442 122.741 100.075 122.741 97.563C122.741 89.5331 116.756 83 109.401 83H89.5275C76.081 83 64.604 87.8948 56.6743 96.7335V92.0134C56.6743 87.571 53.3641 83.9575 49.2952 83.9575H3.47052C1.55394 83.9567 0 85.6535 0 87.7454V145.162C0 147.254 1.55394 148.951 3.47052 148.951L49.2952 149C53.3641 149 56.6743 145.386 56.6743 140.944V137.185L70.7734 141.2C74.4399 142.245 78.2213 142.774 82.0122 142.774H113.915C119.041 142.774 124.134 141.366 128.621 138.714L169.436 114.99C172.89 112.946 175.381 109.548 176.449 105.42C177.517 101.293 177.023 96.9743 175.058 93.2599ZM29.3589 141.373H6.94103V91.5337H29.3589V141.373ZM49.7332 108.049C49.7197 108.25 49.7173 108.452 49.7332 108.652V132.281V140.944C49.7332 141.208 49.5369 141.422 49.2952 141.422H36.2995V91.5337H49.2952C49.5365 91.5337 49.7332 91.7481 49.7332 92.0123V108.049ZM169.769 103.361C169.215 105.503 167.922 107.268 166.151 108.315L125.337 132.039C121.841 134.105 117.891 135.197 113.915 135.197H82.0122C78.8124 135.197 75.6209 134.749 72.5258 133.868L56.6743 129.354V109.266C62.7963 97.3739 74.7148 90.5755 89.5275 90.5755H109.401C112.93 90.5755 115.8 93.709 115.8 97.5615C115.8 101.414 112.93 104.548 109.401 104.548H85.7016C83.7853 104.548 82.2311 106.244 82.2311 108.337C82.2311 110.428 83.785 112.125 85.7016 112.125H109.401H119.764C124.889 112.125 129.98 110.718 134.488 108.055L158.954 93.966C158.966 93.9592 158.977 93.9528 158.989 93.946C162.585 91.8179 167.003 93.1807 169.048 97.0475C170.067 98.9764 170.323 101.218 169.769 103.361Z" fill="#00B1B3"/>
</svg>
