<svg width="227" height="155" viewBox="0 0 227 155" fill="none" xmlns="http://www.w3.org/2000/svg">
<path opacity="0.6" d="M225.033 53.2329L202.543 10.0884C200.975 7.10267 198.304 4.84681 195.098 3.80097C191.891 2.75513 188.404 3.00191 185.377 4.48877L163.621 15.4126H147.74L117.08 1.55127C114.295 0.238297 111.121 0.00922737 108.176 0.908689L62.8281 14.1274L41.623 3.479C38.5922 2.01585 35.113 1.78162 31.9135 2.82532C28.7139 3.86902 26.042 6.10977 24.457 9.07861L1.96678 52.3149C1.14971 53.8195 0.646106 55.4741 0.486392 57.1787C0.326679 58.8834 0.514168 60.6027 1.03753 62.2329C1.5609 63.863 2.40928 65.3702 3.53143 66.6633C4.65357 67.9564 6.0262 69.0086 7.56638 69.7563L29.7812 80.8638L79.5351 119.694C80.9221 120.845 82.5554 121.662 84.3086 122.081L137.551 135.391C138.539 135.649 139.558 135.772 140.58 135.758C143.987 135.749 147.252 134.396 149.668 131.995L183.449 98.2134H183.816L197.769 81.5981L219.434 70.7661C220.969 69.9892 222.336 68.916 223.454 67.6083C224.573 66.3006 225.421 64.7843 225.951 63.147C226.465 61.5165 226.649 59.7998 226.491 58.0974C226.334 56.3951 225.838 54.7413 225.033 53.2329ZM178.676 86.8306L142.416 60.4849C141.461 59.8046 140.314 59.4466 139.142 59.4631C137.97 59.4796 136.834 59.8697 135.898 60.5767L124.148 69.3892C120.011 72.4736 114.989 74.1398 109.828 74.1398C104.668 74.1398 99.645 72.4736 95.5078 69.3892L90.5507 65.6255C90.3183 65.4806 90.128 65.2771 89.9991 65.0354C89.8702 64.7937 89.8072 64.5223 89.8164 64.2485C89.7945 63.992 89.833 63.7339 89.9286 63.4948C90.0242 63.2557 90.1744 63.0423 90.3672 62.8716L126.26 26.8872C126.629 26.602 127.079 26.4413 127.545 26.4282H161.602L187.672 76.3657L178.676 86.8306ZM11.6054 58.8325C11.5062 58.5972 11.4629 58.3422 11.4788 58.0874C11.4947 57.8325 11.5695 57.5848 11.6972 57.3638L34.2793 14.1274C34.4456 13.839 34.6872 13.6012 34.9782 13.4395C35.2693 13.2778 35.5988 13.1983 35.9316 13.2095C36.1909 13.1731 36.4543 13.239 36.666 13.3931L54.6582 22.2974L30.332 68.8384L12.5234 59.8423C12.3039 59.7545 12.1072 59.618 11.9482 59.4431C11.7892 59.2681 11.672 59.0594 11.6054 58.8325ZM141.957 124.192C141.73 124.412 141.451 124.57 141.145 124.65C140.84 124.731 140.518 124.731 140.213 124.651L86.9707 111.432L86.3281 111.065L39.6953 74.6216L65.7656 24.6841L111.297 11.4653C111.724 11.3613 112.174 11.3934 112.582 11.5571L122.955 16.2388C121.269 16.8974 119.738 17.8975 118.457 19.1763L82.5644 55.0688C81.2482 56.3633 80.2285 57.928 79.5758 59.6549C78.923 61.3817 78.6528 63.2297 78.7837 65.0711C78.9146 66.9126 79.4436 68.7037 80.334 70.3209C81.2245 71.9381 82.4552 73.3427 83.9414 74.438L88.8984 78.2017C94.9599 82.6745 102.295 85.0878 109.828 85.0878C117.361 85.0878 124.696 82.6745 130.758 78.2017L139.295 71.7759L171.148 95.0005L141.957 124.192ZM215.394 59.7505C215.334 59.9913 215.22 60.2153 215.061 60.406C214.902 60.5967 214.702 60.7492 214.477 60.8521L196.668 69.7563L172.342 23.3071L190.334 14.311C190.762 14.1172 191.248 14.0948 191.692 14.2485C192.136 14.4022 192.504 14.7203 192.721 15.1372L215.303 58.3735C215.43 58.578 215.504 58.8105 215.52 59.0506C215.536 59.2907 215.493 59.531 215.394 59.7505ZM104.137 150.721C103.835 151.911 103.15 152.969 102.188 153.732C101.226 154.495 100.04 154.921 98.8125 154.944L97.4355 154.76L69.8047 147.784C67.8313 147.315 66.0031 146.37 64.4804 145.03L43.8261 127.038C43.1784 126.603 42.6304 126.035 42.2185 125.372C41.8067 124.71 41.5403 123.967 41.4371 123.194C41.3338 122.42 41.3961 121.634 41.6197 120.886C41.8434 120.139 42.2233 119.447 42.7343 118.858C43.2453 118.268 43.8757 117.794 44.5838 117.466C45.292 117.139 46.0616 116.965 46.8418 116.957C47.622 116.95 48.395 117.108 49.1095 117.421C49.824 117.735 50.4637 118.197 50.9863 118.776L71.7324 136.768C71.9463 136.944 72.1974 137.07 72.4668 137.135L100.189 144.02C101.6 144.387 102.808 145.299 103.548 146.555C104.288 147.811 104.5 149.309 104.137 150.721Z" fill="white"/>
</svg>
