<svg width="182" height="125" viewBox="0 0 182 125" fill="none" xmlns="http://www.w3.org/2000/svg">
<path opacity="0.6" d="M180.782 42.7499L162.68 7.8604C161.418 5.44596 159.268 3.62173 156.687 2.77599C154.107 1.93026 151.299 2.12982 148.863 3.33219L131.352 12.1659H118.569L93.8908 0.956735C91.649 -0.105019 89.094 -0.29026 86.7237 0.437104L50.2234 11.1267L33.1554 2.51563C30.7159 1.33243 27.9155 1.14301 25.3401 1.98702C22.7648 2.83102 20.6142 4.64304 19.3384 7.04384L1.23602 42.0076C0.578365 43.2242 0.173016 44.5623 0.0444627 45.9407C-0.084091 47.3192 0.0668191 48.7096 0.488077 50.0278C0.909334 51.3461 1.5922 52.5649 2.49541 53.6106C3.39863 54.6562 4.50346 55.5071 5.74315 56.1118L23.6239 65.094L63.6709 96.4945C64.7873 97.4255 66.1019 98.0859 67.513 98.4246L110.368 109.188C111.163 109.397 111.984 109.497 112.806 109.485C115.548 109.477 118.176 108.384 120.121 106.442L147.311 79.124H147.607L158.838 65.6879L176.275 56.9284C177.511 56.3001 178.611 55.4322 179.511 54.3747C180.412 53.3172 181.095 52.0911 181.521 50.7671C181.935 49.4485 182.083 48.0603 181.956 46.6837C181.829 45.307 181.43 43.9697 180.782 42.7499V42.7499ZM143.469 69.9191L114.284 48.6143C113.515 48.0641 112.592 47.7747 111.649 47.788C110.705 47.8014 109.79 48.1169 109.038 48.6885L99.5801 55.8149C96.25 58.3092 92.2074 59.6565 88.0537 59.6565C83.9 59.6565 79.8573 58.3092 76.5273 55.8149L72.5373 52.7713C72.3502 52.6542 72.1971 52.4896 72.0933 52.2942C71.9895 52.0987 71.9388 51.8792 71.9462 51.6578C71.9287 51.4504 71.9596 51.2417 72.0366 51.0483C72.1136 50.855 72.2344 50.6824 72.3896 50.5443L101.28 21.445C101.577 21.2144 101.939 21.0845 102.314 21.0739H129.726L150.71 61.4566L143.469 69.9191ZM8.9942 47.2781C8.91434 47.0878 8.87945 46.8816 8.89227 46.6755C8.90509 46.4694 8.96527 46.2691 9.06809 46.0904L27.2444 11.1267C27.3782 10.8934 27.5727 10.7011 27.807 10.5703C28.0412 10.4395 28.3065 10.3753 28.5744 10.3843C28.7831 10.3549 28.995 10.4082 29.1654 10.5328L43.6474 17.7334L24.0672 55.3695L9.73307 48.0947C9.5564 48.0237 9.39808 47.9133 9.27008 47.7718C9.14209 47.6304 9.04775 47.4615 8.9942 47.2781V47.2781ZM113.914 100.132C113.732 100.31 113.507 100.438 113.261 100.503C113.015 100.568 112.756 100.568 112.51 100.503L69.6557 89.8136L69.1385 89.5167L31.6037 60.0462L52.5877 19.6634L89.2359 8.97389C89.58 8.88975 89.9416 8.91571 90.2703 9.04813L98.6196 12.834C97.2627 13.3666 96.03 14.1754 94.9991 15.2095L66.1091 44.2345C65.0497 45.2813 64.229 46.5466 63.7036 47.9431C63.1782 49.3396 62.9607 50.8339 63.066 52.3231C63.1714 53.8122 63.5971 55.2606 64.3139 56.5684C65.0306 57.8761 66.0213 59.012 67.2175 59.8977L71.2074 62.9413C76.0863 66.5583 81.9903 68.5098 88.0537 68.5098C94.1171 68.5098 100.021 66.5583 104.9 62.9413L111.772 57.7449L137.41 76.5259L113.914 100.132ZM173.024 48.0204C172.976 48.2151 172.884 48.3963 172.756 48.5505C172.628 48.7048 172.467 48.828 172.285 48.9112L157.951 56.1118L138.371 18.5499L152.853 11.2751C153.197 11.1184 153.589 11.1003 153.946 11.2246C154.303 11.3488 154.6 11.606 154.774 11.9432L172.95 46.9069C173.052 47.0722 173.113 47.2603 173.125 47.4544C173.138 47.6486 173.104 47.8429 173.024 48.0204V48.0204ZM83.4727 121.585C83.2298 122.548 82.6788 123.403 81.9044 124.02C81.1301 124.637 80.1754 124.982 79.1872 125L78.0789 124.852L55.8388 119.21C54.2504 118.831 52.7789 118.066 51.5533 116.983L34.9287 102.433C34.4073 102.081 33.9662 101.622 33.6347 101.087C33.3032 100.551 33.0888 99.9502 33.0057 99.3247C32.9226 98.6993 32.9727 98.0633 33.1527 97.4588C33.3327 96.8544 33.6385 96.2952 34.0498 95.8184C34.4611 95.3416 34.9686 94.958 35.5385 94.6931C36.1085 94.4282 36.728 94.2879 37.356 94.2817C37.984 94.2754 38.6061 94.4033 39.1812 94.6568C39.7563 94.9103 40.2712 95.2837 40.6919 95.7522L57.3904 110.302C57.5626 110.444 57.7647 110.546 57.9815 110.599L80.2955 116.166C81.4311 116.463 82.4032 117.2 82.9988 118.216C83.5943 119.232 83.7647 120.443 83.4727 121.585V121.585Z" fill="#00B1B3"/>
</svg>
