<svg width="382" height="716" viewBox="0 0 382 716" fill="none" xmlns="http://www.w3.org/2000/svg">
<g clip-path="url(#clip0_135_627)">
<rect width="382" height="716" fill="white"/>
<path opacity="0.35" d="M332.776 26.0448C332.776 24.4866 334.039 23.2234 335.598 23.2234H357.301C358.859 23.2234 360.122 24.4866 360.122 26.0448V33.858C360.122 35.4162 358.859 36.6794 357.301 36.6794H335.598C334.039 36.6794 332.776 35.4162 332.776 33.858V26.0448Z" stroke="#1D232E" stroke-width="1.3022"/>
<path opacity="0.4" d="M362.076 27.3467V32.5555C363.124 32.1143 363.806 31.0881 363.806 29.9511C363.806 28.8141 363.124 27.7878 362.076 27.3467Z" fill="#1D232E"/>
<path d="M334.729 26.913C334.729 25.9541 335.506 25.1768 336.465 25.1768H356.432C357.391 25.1768 358.168 25.9541 358.168 26.913V32.9899C358.168 33.9489 357.391 34.7262 356.432 34.7262H336.465C335.506 34.7262 334.729 33.9489 334.729 32.9899V26.913Z" fill="#1D232E"/>
<path fill-rule="evenodd" clip-rule="evenodd" d="M315.628 25.5339C318.513 25.534 321.289 26.6428 323.38 28.6309C323.537 28.7844 323.789 28.7825 323.944 28.6266L325.45 27.1074C325.528 27.0283 325.572 26.9212 325.571 26.8098C325.571 26.6983 325.526 26.5917 325.446 26.5136C319.957 21.2533 311.298 21.2533 305.809 26.5136C305.729 26.5917 305.684 26.6982 305.684 26.8097C305.683 26.9211 305.727 27.0282 305.805 27.1074L307.311 28.6266C307.466 28.7827 307.718 28.7847 307.875 28.6309C309.967 26.6426 312.742 25.5339 315.628 25.5339ZM315.628 30.4766C317.213 30.4765 318.742 31.0658 319.917 32.13C320.076 32.281 320.326 32.2777 320.481 32.1226L321.985 30.6034C322.064 30.5237 322.108 30.4156 322.107 30.3033C322.106 30.1909 322.06 30.0837 321.979 30.0057C318.4 26.6768 312.858 26.6768 309.279 30.0057C309.199 30.0837 309.153 30.191 309.151 30.3033C309.15 30.4157 309.195 30.5238 309.274 30.6034L310.777 32.1226C310.932 32.2777 311.182 32.281 311.341 32.13C312.516 31.0665 314.043 30.4773 315.628 30.4766ZM318.64 33.8022C318.642 33.9148 318.598 34.0235 318.517 34.1024L315.916 36.7272C315.84 36.8043 315.736 36.8477 315.628 36.8477C315.519 36.8477 315.415 36.8043 315.339 36.7272L312.738 34.1024C312.657 34.0234 312.613 33.9148 312.616 33.8021C312.618 33.6895 312.667 33.5828 312.75 33.5073C314.411 32.1024 316.844 32.1024 318.505 33.5073C318.589 33.5828 318.637 33.6896 318.64 33.8022Z" fill="#1D232E"/>
<path fill-rule="evenodd" clip-rule="evenodd" d="M297.835 23.0059H296.533C295.814 23.0059 295.231 23.5889 295.231 24.3081V35.5938C295.231 36.313 295.814 36.896 296.533 36.896H297.835C298.554 36.896 299.137 36.313 299.137 35.5938V24.3081C299.137 23.5889 298.554 23.0059 297.835 23.0059ZM290.457 26.0443H291.759C292.478 26.0443 293.061 26.6273 293.061 27.3465V35.5937C293.061 36.3129 292.478 36.8959 291.759 36.8959H290.457C289.738 36.8959 289.155 36.3129 289.155 35.5937V27.3465C289.155 26.6273 289.738 26.0443 290.457 26.0443ZM285.682 29.0828H284.38C283.66 29.0828 283.077 29.6658 283.077 30.385V35.5938C283.077 36.313 283.66 36.896 284.38 36.896H285.682C286.401 36.896 286.984 36.313 286.984 35.5938V30.385C286.984 29.6658 286.401 29.0828 285.682 29.0828ZM279.604 31.6871H278.302C277.583 31.6871 277 32.2701 277 32.9893V35.5937C277 36.3129 277.583 36.8959 278.302 36.8959H279.604C280.324 36.8959 280.907 36.3129 280.907 35.5937V32.9893C280.907 32.2701 280.324 31.6871 279.604 31.6871Z" fill="#1D232E"/>
<path d="M36.0358 36.7954C39.5361 36.7954 41.6153 34.0581 41.6153 29.4228C41.6153 27.6774 41.2815 26.2087 40.6425 25.0737C39.7173 23.3092 38.1246 22.3555 36.1121 22.3555C33.1173 22.3555 31 24.3679 31 27.191C31 29.8425 32.9075 31.7691 35.5303 31.7691C37.1422 31.7691 38.4488 31.0156 39.0974 29.7089H39.126C39.126 29.7089 39.1642 29.7089 39.1737 29.7089C39.1928 29.7089 39.2595 29.7089 39.2595 29.7089C39.2595 32.8563 38.0673 34.7352 36.0549 34.7352C34.8723 34.7352 33.9566 34.0867 33.6419 33.0471H31.1908C31.6009 35.3075 33.5179 36.7954 36.0358 36.7954ZM36.1217 29.8139C34.5384 29.8139 33.413 28.6884 33.413 27.1147C33.413 25.5792 34.5957 24.406 36.1312 24.406C37.6668 24.406 38.8494 25.5982 38.8494 27.1529C38.8494 28.6884 37.6954 29.8139 36.1217 29.8139Z" fill="#1D232E"/>
<path d="M45.6406 36.6618C46.5466 36.6618 47.1666 36.0133 47.1666 35.1549C47.1666 34.287 46.5466 33.648 45.6406 33.648C44.744 33.648 44.1145 34.287 44.1145 35.1549C44.1145 36.0133 44.744 36.6618 45.6406 36.6618ZM45.6406 29.5087C46.5466 29.5087 47.1666 28.8696 47.1666 28.0113C47.1666 27.1433 46.5466 26.5043 45.6406 26.5043C44.744 26.5043 44.1145 27.1433 44.1145 28.0113C44.1145 28.8696 44.744 29.5087 45.6406 29.5087Z" fill="#1D232E"/>
<path d="M56.0941 36.4615H58.4499V33.8959H60.3097V31.8167H58.4499V22.6988H54.9782C52.5462 26.3613 50.61 29.4228 49.3701 31.7023V33.8959H56.0941V36.4615ZM51.6496 31.7309C53.2519 28.9078 54.6826 26.6474 55.9988 24.7017H56.1323V31.874H51.6496V31.7309Z" fill="#1D232E"/>
<path d="M65.5558 36.4615H68.0165V22.6988H65.5653L61.9697 25.2167V27.5821L65.3936 25.1786H65.5558V36.4615Z" fill="#1D232E"/>
<g filter="url(#filter0_d_135_627)">
<rect x="29" y="608" width="312" height="52" rx="8" fill="#01C2AC"/>
<path d="M135.162 628.696V627.352H142.036V628.696H139.334V632.112C139.334 635.5 140.678 636.872 142.148 637.572V638.972C140.566 638.426 139.194 637.194 138.592 635.85C137.976 637.194 136.576 638.44 135.022 638.972V637.572C136.464 636.886 137.822 635.5 137.822 632.112V628.696H135.162ZM145.228 627.128V632.308H147.216V633.638H145.228V639.826H143.702V627.128H145.228ZM159.017 628.612H150.589V632.126H159.157V633.442H149.063V627.282H159.017V628.612ZM148.405 636.62V635.276H159.675V636.62H154.775V640.036H153.263V636.62H148.405ZM162.195 630.992C162.195 629.718 162.615 628.612 163.343 627.968C163.889 627.464 164.687 627.198 165.597 627.198C166.535 627.198 167.319 627.464 167.879 627.968C168.593 628.612 168.999 629.718 168.999 630.992C168.999 632.266 168.593 633.372 167.879 634.016C167.473 634.394 166.955 634.618 166.353 634.73V637.796H168.047C169.181 637.796 170.063 637.572 170.581 637.138V627.128H172.107V632.308H174.095V633.638H172.107V639.826H170.581V638.384C170.063 638.86 169.027 639.098 167.753 639.098H161.887V637.796H164.827V634.716C164.239 634.618 163.735 634.38 163.343 634.016C162.615 633.372 162.195 632.266 162.195 630.992ZM163.721 630.992C163.721 631.804 163.903 632.518 164.267 632.938C164.575 633.288 165.065 633.47 165.597 633.47C166.143 633.47 166.633 633.288 166.927 632.938C167.305 632.518 167.487 631.804 167.487 630.992C167.487 630.194 167.305 629.452 166.927 629.046C166.633 628.71 166.143 628.528 165.597 628.528C165.065 628.528 164.575 628.71 164.267 629.046C163.903 629.452 163.721 630.194 163.721 630.992ZM186.316 629.228H179.092V627.982H181.99V626.764H183.502V627.982H186.316V629.228ZM180.94 632.238C180.94 632.574 181.108 632.84 181.374 633.036C181.71 633.274 182.172 633.4 182.718 633.4C183.292 633.4 183.782 633.26 184.118 633.008C184.356 632.812 184.496 632.56 184.496 632.238C184.496 631.916 184.342 631.636 184.09 631.44C183.754 631.188 183.264 631.076 182.718 631.076C182.186 631.076 181.71 631.202 181.374 631.44C181.108 631.636 180.94 631.916 180.94 632.238ZM179.47 632.238C179.47 631.496 179.82 630.908 180.38 630.502C180.968 630.082 181.794 629.872 182.718 629.872C183.67 629.872 184.482 630.096 185.042 630.502C185.616 630.908 185.952 631.51 185.952 632.238C185.952 633.008 185.616 633.582 185.014 633.988C184.44 634.38 183.642 634.59 182.718 634.59C181.766 634.59 180.926 634.366 180.338 633.932C179.806 633.526 179.47 632.966 179.47 632.238ZM189.62 627.128V630.236H191.468V631.566H189.62V634.716H188.094V627.128H189.62ZM180.254 639.952V635.514H189.62V639.952H180.254ZM188.094 636.844H181.766V638.664H188.094V636.844ZM203.704 639.826H202.234V627.128H203.704V639.826ZM198.51 627.352V632.154H199.742V627.198H201.198V639.672H199.742V633.484H198.51V634.128C198.51 637.11 197.6 638.72 195.542 639.448V638.048C196.508 637.502 197.068 636.452 197.068 634.016V628.696H195.78V633.372C195.78 636.424 194.954 637.908 192.84 638.72V637.32C193.862 636.746 194.31 635.808 194.31 633.274L194.324 628.696H192.91V627.352H198.51ZM212.971 628.584V626.764H214.497V628.584H217.367V629.9H210.129V628.584H212.971ZM212.159 635.052C212.159 636.256 212.355 637.11 212.831 637.558C213.083 637.782 213.405 637.908 213.797 637.908C214.175 637.908 214.469 637.782 214.707 637.572C215.211 637.124 215.435 636.256 215.435 635.052C215.435 633.75 215.169 632.882 214.651 632.462C214.427 632.28 214.147 632.196 213.797 632.196C213.405 632.196 213.097 632.294 212.859 632.518C212.369 632.966 212.159 633.806 212.159 635.052ZM210.647 635.052C210.647 633.358 211.081 632.112 211.963 631.426C212.453 631.076 213.055 630.88 213.797 630.88C214.441 630.88 215.001 631.02 215.449 631.328C216.429 631.972 216.947 633.274 216.947 635.052C216.947 636.83 216.443 638.104 215.491 638.748C215.029 639.056 214.469 639.21 213.797 639.21C213.083 639.21 212.481 639.028 212.005 638.678C211.095 638.02 210.647 636.774 210.647 635.052ZM220.573 627.128V632.308H222.561V633.638H220.573V639.826H219.047V627.128H220.573ZM228.777 630.096V628.696H224.185V627.352H230.275V629.914C230.275 634.744 228.483 637.964 224.101 639.084V637.642C227.321 636.704 228.777 634.058 228.777 630.096ZM234.321 627.128V639.826H232.795V627.128H234.321Z" fill="white"/>
<rect x="119" y="582" width="130" height="5" rx="2.5" fill="#E7E7E7"/>
<g clip-path="url(#clip1_135_627)">
<path d="M62.3085 214.32C72.9722 214.32 81.6169 205.675 81.6169 195.012C81.6169 184.348 72.9722 175.703 62.3085 175.703C51.6447 175.703 43 184.348 43 195.012C43 205.675 51.6447 214.32 62.3085 214.32Z" fill="#25C1A7"/>
<path d="M55.2755 199.215C55.9367 199.215 56.4728 198.679 56.4728 198.018C56.4728 197.356 55.9367 196.82 55.2755 196.82C54.6142 196.82 54.0781 197.356 54.0781 198.018C54.0781 198.679 54.6142 199.215 55.2755 199.215Z" fill="white"/>
<path d="M66.9024 201.379C67.5637 201.379 68.0997 200.843 68.0997 200.182C68.0997 199.52 67.5637 198.984 66.9024 198.984C66.2411 198.984 65.7051 199.52 65.7051 200.182C65.7051 200.843 66.2411 201.379 66.9024 201.379Z" fill="white"/>
<path d="M52.9592 201.117C53.267 201.871 53.6592 202.588 54.1282 203.254C54.5895 203.918 55.1349 204.519 55.7509 205.043C56.0578 205.298 56.3798 205.534 56.7151 205.749C57.0513 205.958 57.3996 206.146 57.758 206.313C58.4981 206.64 59.2869 206.842 60.0928 206.912C60.9006 207.011 61.7174 207.011 62.5252 206.912C63.3172 206.803 64.089 206.579 64.8159 206.247C66.2748 205.582 67.5383 204.501 68.6915 203.295C68.7888 203.183 68.9265 203.115 69.0742 203.105C69.222 203.095 69.3676 203.144 69.4792 203.241C69.5907 203.338 69.6591 203.476 69.6691 203.624C69.6791 203.772 69.6301 203.917 69.5327 204.029C68.4305 205.48 66.9953 206.645 65.3484 207.425C64.5011 207.805 63.5995 208.05 62.6765 208.15C61.7695 208.247 60.8541 208.231 59.951 208.103C59.5067 208.046 59.0656 207.971 58.6087 207.87C58.1566 207.765 57.7123 207.63 57.2791 207.463C56.4119 207.118 55.6152 206.617 54.9285 205.986C54.2501 205.368 53.6653 204.654 53.1924 203.868C52.7114 203.091 52.3433 202.25 52.099 201.37C52.0743 201.26 52.091 201.146 52.1459 201.049C52.2008 200.951 52.2899 200.878 52.396 200.842C52.502 200.807 52.6175 200.812 52.7198 200.857C52.8222 200.902 52.9041 200.984 52.9498 201.086L52.9592 201.117Z" fill="white"/>
</g>
<g filter="url(#filter1_d_135_627)">
<rect x="48" y="272" width="274" height="85" rx="8" fill="white"/>
</g>
<path d="M91.616 193.38V191.808H87.428V191.148H92.348V193.308C92.348 197.34 90.74 200.004 87.356 200.892V200.232C90.176 199.38 91.616 197.004 91.616 193.38ZM95.096 201.564V190.944H95.828V201.564H95.096ZM99.6195 192.924H106.448V191.088H107.18V196.392H98.8875V191.088H99.6195V192.924ZM106.448 195.744V193.548H99.6195V195.744H106.448ZM98.2995 198.84V198.18H107.768V198.84H103.388V201.768H102.656V198.84H98.2995ZM117.643 192.984V191.736H110.179V191.088H118.375V192.96C118.375 193.548 118.315 194.268 118.171 194.796H117.451C117.595 194.268 117.643 193.56 117.643 192.984ZM109.519 196.332V195.696H119.107V196.332H109.519ZM118.363 201.708H110.263V198.108H118.363V201.708ZM117.631 201.096V198.732H110.995V201.096H117.631ZM129.055 195.972C129.055 194.1 128.851 192.756 128.251 192.084C127.963 191.76 127.567 191.58 127.075 191.58C126.595 191.58 126.199 191.76 125.899 192.084C125.311 192.756 125.107 194.1 125.107 195.972C125.107 197.856 125.311 199.212 125.899 199.884C126.199 200.196 126.595 200.364 127.075 200.364C127.567 200.364 127.963 200.196 128.251 199.884C128.851 199.212 129.055 197.856 129.055 195.972ZM124.375 195.972C124.375 193.932 124.627 192.444 125.371 191.64C125.779 191.184 126.367 190.944 127.075 190.944C127.783 190.944 128.359 191.184 128.779 191.64C129.535 192.444 129.787 193.932 129.787 195.972C129.787 198.012 129.535 199.512 128.779 200.316C128.359 200.784 127.783 200.976 127.075 200.976C126.367 200.976 125.779 200.784 125.371 200.316C124.627 199.512 124.375 198.012 124.375 195.972ZM132.163 201.564V190.944H132.895V201.564H132.163ZM135.523 196.656V191.088H140.551V196.656H135.523ZM139.819 191.724H136.243V196.032H139.819V191.724ZM143.923 190.944V194.04H145.603V194.676H143.923V198.336H143.191V190.944H143.923ZM136.903 198.264V201H144.127V201.636H136.171V198.264H136.903ZM154.71 191.7H147.33V191.076H155.442V193.128C155.442 193.86 155.37 194.676 155.214 195.24H154.494C154.59 194.856 154.662 194.352 154.686 193.848C153.822 194.04 152.49 194.1 151.254 194.1H147.33V193.488H151.254C152.454 193.488 153.846 193.452 154.71 193.236V191.7ZM146.586 196.692V196.068H156.174V196.692H146.586ZM155.43 201.708H147.33V198.324H155.43V201.708ZM154.698 201.096V198.96H148.062V201.096H154.698ZM170.035 196.98H166.279V200.472H170.623V201.084H161.155V200.472H165.547V196.98H161.743V191.148H170.035V196.98ZM169.303 196.332V191.796H162.475V196.332H169.303ZM172.59 193.596C172.59 192.72 172.89 192 173.406 191.532C173.886 191.112 174.546 190.884 175.326 190.884C176.106 190.884 176.766 191.112 177.234 191.532C177.438 191.712 177.606 191.928 177.738 192.168H180.558V190.944H181.29V196.884H180.558V195.06H177.726C177.594 195.3 177.426 195.504 177.234 195.684C176.766 196.104 176.106 196.332 175.326 196.332C174.546 196.332 173.886 196.104 173.406 195.684C172.89 195.204 172.59 194.496 172.59 193.596ZM177.966 192.792C178.026 193.044 178.062 193.308 178.062 193.596C178.062 193.896 178.026 194.184 177.966 194.436H180.558V192.792H177.966ZM173.31 193.596C173.31 194.268 173.514 194.796 173.886 195.168C174.234 195.504 174.738 195.696 175.326 195.696C175.914 195.696 176.406 195.504 176.754 195.168C177.126 194.796 177.342 194.268 177.342 193.596C177.342 192.936 177.126 192.408 176.754 192.048C176.406 191.7 175.914 191.52 175.326 191.52C174.738 191.52 174.234 191.7 173.886 192.048C173.514 192.408 173.31 192.936 173.31 193.596ZM177.402 201.72C176.538 201.348 175.674 200.52 175.326 199.74C174.978 200.52 173.994 201.372 172.878 201.72V201.072C173.898 200.7 174.942 199.62 174.942 198.288V197.748H175.674V198.276C175.674 199.476 176.538 200.544 177.39 201.024C178.266 200.544 179.142 199.476 179.142 198.276V197.748H179.874V198.288C179.874 199.62 180.87 200.676 181.95 201.072V201.72C180.834 201.372 179.85 200.532 179.49 199.74C179.154 200.52 178.314 201.3 177.402 201.72ZM188.682 195.972C188.682 194.1 188.478 192.756 187.878 192.084C187.59 191.76 187.194 191.58 186.702 191.58C186.222 191.58 185.826 191.76 185.526 192.084C184.938 192.756 184.734 194.1 184.734 195.972C184.734 197.856 184.938 199.212 185.526 199.884C185.826 200.196 186.222 200.364 186.702 200.364C187.194 200.364 187.59 200.196 187.878 199.884C188.478 199.212 188.682 197.856 188.682 195.972ZM184.002 195.972C184.002 193.932 184.254 192.444 184.998 191.64C185.406 191.184 185.994 190.944 186.702 190.944C187.41 190.944 187.986 191.184 188.406 191.64C189.09 192.372 189.366 193.656 189.402 195.408H191.79V190.944H192.522V201.576H191.79V196.056H189.414C189.402 198.048 189.15 199.524 188.406 200.316C187.986 200.784 187.41 200.976 186.702 200.976C185.994 200.976 185.406 200.784 184.998 200.316C184.254 199.512 184.002 198.012 184.002 195.972ZM195.341 194.124C195.341 193.212 195.701 192.48 196.349 191.952C197.105 191.328 198.269 191.016 199.733 191.016C201.197 191.016 202.361 191.328 203.117 191.952C203.765 192.48 204.125 193.212 204.125 194.124C204.125 195.036 203.765 195.768 203.117 196.296C202.853 196.524 202.529 196.704 202.157 196.848V200.472H204.461V201.084H194.993V200.472H197.357V196.872C196.973 196.728 196.625 196.536 196.349 196.296C195.701 195.768 195.341 195.036 195.341 194.124ZM201.425 197.076C200.921 197.184 200.357 197.244 199.733 197.244C199.133 197.244 198.581 197.196 198.089 197.088V200.472H201.425V197.076ZM196.073 194.124C196.073 194.832 196.361 195.384 196.853 195.804C197.489 196.332 198.485 196.596 199.733 196.596C200.981 196.596 201.977 196.332 202.625 195.804C203.117 195.384 203.393 194.832 203.393 194.124C203.393 193.428 203.117 192.864 202.625 192.444C201.977 191.916 200.981 191.664 199.733 191.664C198.485 191.664 197.489 191.916 196.853 192.444C196.361 192.864 196.073 193.428 196.073 194.124ZM207.365 198.24L207.437 193.26V191.628H206.669V193.26L206.729 198.24H207.365ZM207.449 199.74H206.645V200.952H207.449V199.74ZM217.443 193.38V191.808H213.255V191.148H218.175V193.308C218.175 197.34 216.567 200.004 213.183 200.892V200.232C216.003 199.38 217.443 197.004 217.443 193.38ZM220.923 201.564V190.944H221.656V201.564H220.923ZM225.447 192.924H232.275V191.088H233.007V196.392H224.715V191.088H225.447V192.924ZM232.275 195.744V193.548H225.447V195.744H232.275ZM224.127 198.84V198.18H233.595V198.84H229.215V201.768H228.483V198.84H224.127ZM243.471 192.984V191.736H236.007V191.088H244.203V192.96C244.203 193.548 244.143 194.268 243.999 194.796H243.279C243.423 194.268 243.471 193.56 243.471 192.984ZM235.347 196.332V195.696H244.935V196.332H235.347ZM244.191 201.708H236.091V198.108H244.191V201.708ZM243.459 201.096V198.732H236.823V201.096H243.459ZM254.883 195.972C254.883 194.1 254.679 192.756 254.079 192.084C253.791 191.76 253.395 191.58 252.903 191.58C252.423 191.58 252.027 191.76 251.727 192.084C251.139 192.756 250.935 194.1 250.935 195.972C250.935 197.856 251.139 199.212 251.727 199.884C252.027 200.196 252.423 200.364 252.903 200.364C253.395 200.364 253.791 200.196 254.079 199.884C254.679 199.212 254.883 197.856 254.883 195.972ZM250.203 195.972C250.203 193.932 250.455 192.444 251.199 191.64C251.607 191.184 252.195 190.944 252.903 190.944C253.611 190.944 254.187 191.184 254.607 191.64C255.363 192.444 255.615 193.932 255.615 195.972C255.615 198.012 255.363 199.512 254.607 200.316C254.187 200.784 253.611 200.976 252.903 200.976C252.195 200.976 251.607 200.784 251.199 200.316C250.455 199.512 250.203 198.012 250.203 195.972ZM257.991 201.564V190.944H258.723V201.564H257.991ZM261.35 196.656V191.088H266.378V196.656H261.35ZM265.646 191.724H262.07V196.032H265.646V191.724ZM269.75 190.944V194.04H271.43V194.676H269.75V198.336H269.018V190.944H269.75ZM262.73 198.264V201H269.954V201.636H261.998V198.264H262.73ZM280.538 191.7H273.158V191.076H281.27V193.128C281.27 193.86 281.198 194.676 281.042 195.24H280.322C280.418 194.856 280.49 194.352 280.514 193.848C279.65 194.04 278.318 194.1 277.082 194.1H273.158V193.488H277.082C278.282 193.488 279.674 193.452 280.538 193.236V191.7ZM272.414 196.692V196.068H282.002V196.692H272.414ZM281.258 201.708H273.158V198.324H281.258V201.708ZM280.526 201.096V198.96H273.89V201.096H280.526ZM295.862 196.98H292.106V200.472H296.45V201.084H286.982V200.472H291.374V196.98H287.57V191.148H295.862V196.98ZM295.13 196.332V191.796H288.302V196.332H295.13ZM298.418 193.596C298.418 192.72 298.718 192 299.234 191.532C299.714 191.112 300.374 190.884 301.154 190.884C301.934 190.884 302.594 191.112 303.062 191.532C303.266 191.712 303.434 191.928 303.566 192.168H306.386V190.944H307.118V196.884H306.386V195.06H303.554C303.422 195.3 303.254 195.504 303.062 195.684C302.594 196.104 301.934 196.332 301.154 196.332C300.374 196.332 299.714 196.104 299.234 195.684C298.718 195.204 298.418 194.496 298.418 193.596ZM303.794 192.792C303.854 193.044 303.89 193.308 303.89 193.596C303.89 193.896 303.854 194.184 303.794 194.436H306.386V192.792H303.794ZM299.138 193.596C299.138 194.268 299.342 194.796 299.714 195.168C300.062 195.504 300.566 195.696 301.154 195.696C301.742 195.696 302.234 195.504 302.582 195.168C302.954 194.796 303.17 194.268 303.17 193.596C303.17 192.936 302.954 192.408 302.582 192.048C302.234 191.7 301.742 191.52 301.154 191.52C300.566 191.52 300.062 191.7 299.714 192.048C299.342 192.408 299.138 192.936 299.138 193.596ZM303.23 201.72C302.366 201.348 301.502 200.52 301.154 199.74C300.806 200.52 299.822 201.372 298.706 201.72V201.072C299.726 200.7 300.77 199.62 300.77 198.288V197.748H301.502V198.276C301.502 199.476 302.366 200.544 303.218 201.024C304.094 200.544 304.97 199.476 304.97 198.276V197.748H305.702V198.288C305.702 199.62 306.698 200.676 307.778 201.072V201.72C306.662 201.372 305.678 200.532 305.318 199.74C304.982 200.52 304.142 201.3 303.23 201.72ZM314.509 195.972C314.509 194.1 314.305 192.756 313.705 192.084C313.417 191.76 313.021 191.58 312.529 191.58C312.049 191.58 311.653 191.76 311.353 192.084C310.765 192.756 310.561 194.1 310.561 195.972C310.561 197.856 310.765 199.212 311.353 199.884C311.653 200.196 312.049 200.364 312.529 200.364C313.021 200.364 313.417 200.196 313.705 199.884C314.305 199.212 314.509 197.856 314.509 195.972ZM309.829 195.972C309.829 193.932 310.081 192.444 310.825 191.64C311.233 191.184 311.821 190.944 312.529 190.944C313.237 190.944 313.813 191.184 314.233 191.64C314.917 192.372 315.193 193.656 315.229 195.408H317.617V190.944H318.349V201.576H317.617V196.056H315.241C315.229 198.048 314.977 199.524 314.233 200.316C313.813 200.784 313.237 200.976 312.529 200.976C311.821 200.976 311.233 200.784 310.825 200.316C310.081 199.512 309.829 198.012 309.829 195.972ZM321.169 194.124C321.169 193.212 321.529 192.48 322.177 191.952C322.933 191.328 324.097 191.016 325.561 191.016C327.025 191.016 328.189 191.328 328.945 191.952C329.593 192.48 329.953 193.212 329.953 194.124C329.953 195.036 329.593 195.768 328.945 196.296C328.681 196.524 328.357 196.704 327.985 196.848V200.472H330.289V201.084H320.821V200.472H323.185V196.872C322.801 196.728 322.453 196.536 322.177 196.296C321.529 195.768 321.169 195.036 321.169 194.124ZM327.253 197.076C326.749 197.184 326.185 197.244 325.561 197.244C324.961 197.244 324.409 197.196 323.917 197.088V200.472H327.253V197.076ZM321.901 194.124C321.901 194.832 322.189 195.384 322.681 195.804C323.317 196.332 324.313 196.596 325.561 196.596C326.809 196.596 327.805 196.332 328.453 195.804C328.945 195.384 329.221 194.832 329.221 194.124C329.221 193.428 328.945 192.864 328.453 192.444C327.805 191.916 326.809 191.664 325.561 191.664C324.313 191.664 323.317 191.916 322.681 192.444C322.189 192.864 321.901 193.428 321.901 194.124ZM333.192 198.24L333.264 193.26V191.628H332.496V193.26L332.556 198.24H333.192ZM333.276 199.74H332.472V200.952H333.276V199.74Z" fill="black" fill-opacity="0.6"/>
<path d="M60.093 131.556V129.178H50.929V125.727H64.037V131.092C64.037 141.213 60.383 148.028 50.784 150.435V146.665C57.396 144.751 60.093 139.415 60.093 131.556ZM72.36 151.885H68.387V125.263H72.36V151.885ZM95.7039 129.294V125.582H99.6769V139.473H78.6809V125.582H82.6539V129.294H95.7039ZM95.7039 132.716H82.6539V136.051H95.7039V132.716ZM77.3469 142.083H101.011V145.563H91.1219V152.32H87.1489V145.563H77.3469V142.083ZM122.76 129.004H105.969V125.582H126.733V130.744C126.733 132.31 126.617 133.905 126.269 135.065H122.383C122.673 133.905 122.76 132.368 122.76 130.918V129.004ZM104.461 136.312H128.415V139.763H104.461V136.312ZM106.143 152.175V141.851H126.733V152.175H106.143ZM122.76 145.215H110.116V148.811H122.76V145.215ZM140.65 150.116V125.727H153.758V150.116H140.65ZM149.814 129.178H144.594V146.665H149.814V129.178ZM162.081 151.885H158.108V125.263H162.081V151.885ZM171.853 146.665H180.785C182.931 146.665 184.526 146.317 185.367 145.592V125.263H189.34V151.885H185.367V148.811C184.497 149.681 182.525 150.116 180.031 150.116H167.909V136.051H176.754V129.178H167.909V125.727H180.698V139.502H171.853V146.665ZM212.684 130.657V125.727H216.657V142.025H208.189V147.274H217.991V150.725H194.327V147.274H204.245V142.025H195.661V125.727H199.634V130.657H212.684ZM212.684 134.137H199.634V138.545H212.684V134.137ZM231.591 131.556V129.178H222.427V125.727H235.535V131.092C235.535 141.213 231.881 148.028 222.282 150.435V146.665C228.894 144.751 231.591 139.415 231.591 131.556ZM243.858 151.885H239.885V125.263H243.858V151.885Z" fill="#333333"/>
<path d="M63.0535 461.92C63.0535 463.013 62.8902 463.997 62.5635 464.87C62.2369 465.743 61.7769 466.487 61.1835 467.1C60.5902 467.713 59.8802 468.183 59.0535 468.51C58.2269 468.837 57.3102 469 56.3035 469H51.1435V454.85H56.3035C57.3102 454.85 58.2269 455.013 59.0535 455.34C59.8802 455.667 60.5902 456.137 61.1835 456.75C61.7769 457.363 62.2369 458.107 62.5635 458.98C62.8902 459.853 63.0535 460.833 63.0535 461.92ZM61.9935 461.92C61.9935 460.933 61.8569 460.053 61.5835 459.28C61.3102 458.507 60.9235 457.853 60.4235 457.32C59.9302 456.787 59.3335 456.38 58.6335 456.1C57.9335 455.82 57.1569 455.68 56.3035 455.68H52.1735V468.17H56.3035C57.1569 468.17 57.9335 468.03 58.6335 467.75C59.3335 467.47 59.9302 467.063 60.4235 466.53C60.9235 465.997 61.3102 465.343 61.5835 464.57C61.8569 463.797 61.9935 462.913 61.9935 461.92ZM71.8089 469C71.6089 469 71.4855 468.907 71.4389 468.72L71.2989 467.45C71.0255 467.717 70.7522 467.957 70.4789 468.17C70.2122 468.383 69.9322 468.563 69.6389 468.71C69.3455 468.857 69.0289 468.967 68.6889 469.04C68.3489 469.12 67.9755 469.16 67.5689 469.16C67.2289 469.16 66.8989 469.11 66.5789 469.01C66.2589 468.91 65.9755 468.757 65.7289 468.55C65.4822 468.343 65.2822 468.08 65.1289 467.76C64.9822 467.433 64.9089 467.043 64.9089 466.59C64.9089 466.17 65.0289 465.78 65.2689 465.42C65.5089 465.06 65.8822 464.747 66.3889 464.48C66.9022 464.213 67.5589 464 68.3589 463.84C69.1655 463.68 70.1322 463.587 71.2589 463.56V462.52C71.2589 461.6 71.0589 460.893 70.6589 460.4C70.2655 459.9 69.6789 459.65 68.8989 459.65C68.4189 459.65 68.0089 459.717 67.6689 459.85C67.3355 459.983 67.0522 460.13 66.8189 460.29C66.5855 460.45 66.3955 460.597 66.2489 460.73C66.1022 460.863 65.9789 460.93 65.8789 460.93C65.7455 460.93 65.6455 460.87 65.5789 460.75L65.4089 460.46C65.9289 459.94 66.4755 459.547 67.0489 459.28C67.6222 459.013 68.2722 458.88 68.9989 458.88C69.5322 458.88 69.9989 458.967 70.3989 459.14C70.7989 459.307 71.1289 459.55 71.3889 459.87C71.6555 460.183 71.8555 460.567 71.9889 461.02C72.1222 461.467 72.1889 461.967 72.1889 462.52V469H71.8089ZM67.8089 468.47C68.1955 468.47 68.5489 468.43 68.8689 468.35C69.1955 468.263 69.4955 468.147 69.7689 468C70.0489 467.847 70.3089 467.667 70.5489 467.46C70.7889 467.253 71.0255 467.03 71.2589 466.79V464.2C70.3122 464.227 69.4955 464.3 68.8089 464.42C68.1289 464.533 67.5655 464.69 67.1189 464.89C66.6789 465.09 66.3522 465.33 66.1389 465.61C65.9322 465.883 65.8289 466.197 65.8289 466.55C65.8289 466.883 65.8822 467.173 65.9889 467.42C66.1022 467.66 66.2489 467.86 66.4289 468.02C66.6089 468.173 66.8189 468.287 67.0589 468.36C67.2989 468.433 67.5489 468.47 67.8089 468.47ZM76.7015 472.2C76.6615 472.293 76.6082 472.37 76.5415 472.43C76.4815 472.49 76.3915 472.52 76.2715 472.52H75.5915L77.3415 468.63L73.1315 459.05H73.9215C74.0215 459.05 74.0982 459.077 74.1515 459.13C74.2115 459.177 74.2548 459.23 74.2815 459.29L77.6315 467.03C77.6715 467.13 77.7048 467.233 77.7315 467.34C77.7648 467.44 77.7948 467.543 77.8215 467.65C77.8548 467.543 77.8882 467.44 77.9215 467.34C77.9615 467.233 78.0015 467.13 78.0415 467.03L81.3515 459.29C81.3848 459.217 81.4315 459.16 81.4915 459.12C81.5515 459.073 81.6182 459.05 81.6915 459.05H82.4215L76.7015 472.2Z" fill="#333333"/>
<path d="M143.634 469H142.604V462.22H133.744V469H132.714V454.85H133.744V461.45H142.604V454.85H143.634V469ZM150.741 458.89C151.455 458.89 152.091 459.013 152.651 459.26C153.218 459.5 153.695 459.843 154.081 460.29C154.468 460.737 154.761 461.277 154.961 461.91C155.168 462.537 155.271 463.24 155.271 464.02C155.271 464.8 155.168 465.503 154.961 466.13C154.761 466.757 154.468 467.293 154.081 467.74C153.695 468.187 153.218 468.53 152.651 468.77C152.091 469.01 151.455 469.13 150.741 469.13C150.028 469.13 149.388 469.01 148.821 468.77C148.261 468.53 147.785 468.187 147.391 467.74C147.005 467.293 146.708 466.757 146.501 466.13C146.301 465.503 146.201 464.8 146.201 464.02C146.201 463.24 146.301 462.537 146.501 461.91C146.708 461.277 147.005 460.737 147.391 460.29C147.785 459.843 148.261 459.5 148.821 459.26C149.388 459.013 150.028 458.89 150.741 458.89ZM150.741 468.38C151.335 468.38 151.851 468.28 152.291 468.08C152.738 467.873 153.108 467.58 153.401 467.2C153.701 466.82 153.925 466.363 154.071 465.83C154.218 465.29 154.291 464.687 154.291 464.02C154.291 463.36 154.218 462.76 154.071 462.22C153.925 461.68 153.701 461.22 153.401 460.84C153.108 460.453 152.738 460.157 152.291 459.95C151.851 459.743 151.335 459.64 150.741 459.64C150.148 459.64 149.628 459.743 149.181 459.95C148.741 460.157 148.371 460.453 148.071 460.84C147.778 461.22 147.555 461.68 147.401 462.22C147.255 462.76 147.181 463.36 147.181 464.02C147.181 464.687 147.255 465.29 147.401 465.83C147.555 466.363 147.778 466.82 148.071 467.2C148.371 467.58 148.741 467.873 149.181 468.08C149.628 468.28 150.148 468.38 150.741 468.38ZM158.082 459.05V465.41C158.082 466.343 158.295 467.077 158.722 467.61C159.148 468.137 159.798 468.4 160.672 468.4C161.318 468.4 161.922 468.237 162.482 467.91C163.042 467.577 163.545 467.117 163.992 466.53V459.05H164.952V469H164.422C164.235 469 164.138 468.913 164.132 468.74L164.042 467.26C163.582 467.833 163.048 468.293 162.442 468.64C161.842 468.987 161.172 469.16 160.432 469.16C159.878 469.16 159.395 469.073 158.982 468.9C158.568 468.727 158.225 468.477 157.952 468.15C157.678 467.823 157.472 467.43 157.332 466.97C157.192 466.51 157.122 465.99 157.122 465.41V459.05H158.082ZM167.792 469V459.05H168.292C168.405 459.05 168.485 459.073 168.532 459.12C168.585 459.167 168.615 459.247 168.622 459.36L168.702 461.46C169.022 460.653 169.449 460.023 169.982 459.57C170.515 459.11 171.172 458.88 171.952 458.88C172.252 458.88 172.529 458.913 172.782 458.98C173.035 459.04 173.275 459.13 173.502 459.25L173.372 459.91C173.352 460.017 173.285 460.07 173.172 460.07C173.132 460.07 173.075 460.057 173.002 460.03C172.929 460.003 172.835 459.973 172.722 459.94C172.615 459.907 172.482 459.877 172.322 459.85C172.162 459.823 171.979 459.81 171.772 459.81C171.019 459.81 170.399 460.043 169.912 460.51C169.432 460.977 169.042 461.65 168.742 462.53V469H167.792Z" fill="#333333"/>
<path d="M225.816 464.88C225.916 465.067 226.002 465.267 226.076 465.48C226.116 465.373 226.156 465.27 226.196 465.17C226.242 465.063 226.292 464.963 226.346 464.87L231.906 455.04C231.959 454.953 232.012 454.9 232.066 454.88C232.119 454.86 232.192 454.85 232.286 454.85H232.996V469H232.096V456.94C232.096 456.767 232.106 456.583 232.126 456.39L226.556 466.28C226.462 466.453 226.329 466.54 226.156 466.54H225.996C225.829 466.54 225.696 466.453 225.596 466.28L219.876 456.38C219.896 456.573 219.906 456.76 219.906 456.94V469H219.016V454.85H219.716C219.809 454.85 219.882 454.86 219.936 454.88C219.996 454.9 220.052 454.953 220.106 455.04L225.816 464.88ZM237.549 459.05V469H236.599V459.05H237.549ZM237.969 455.62C237.969 455.74 237.943 455.853 237.889 455.96C237.843 456.06 237.779 456.15 237.699 456.23C237.619 456.31 237.526 456.373 237.419 456.42C237.313 456.467 237.199 456.49 237.079 456.49C236.959 456.49 236.846 456.467 236.739 456.42C236.633 456.373 236.539 456.31 236.459 456.23C236.379 456.15 236.316 456.06 236.269 455.96C236.223 455.853 236.199 455.74 236.199 455.62C236.199 455.5 236.223 455.387 236.269 455.28C236.316 455.167 236.379 455.07 236.459 454.99C236.539 454.91 236.633 454.847 236.739 454.8C236.846 454.753 236.959 454.73 237.079 454.73C237.199 454.73 237.313 454.753 237.419 454.8C237.526 454.847 237.619 454.91 237.699 454.99C237.779 455.07 237.843 455.167 237.889 455.28C237.943 455.387 237.969 455.5 237.969 455.62ZM240.665 469V459.05H241.185C241.359 459.05 241.459 459.133 241.485 459.3L241.575 460.8C242.029 460.227 242.555 459.767 243.155 459.42C243.762 459.067 244.435 458.89 245.175 458.89C245.722 458.89 246.202 458.977 246.615 459.15C247.035 459.323 247.382 459.573 247.655 459.9C247.929 460.227 248.135 460.62 248.275 461.08C248.415 461.54 248.485 462.06 248.485 462.64V469H247.535V462.64C247.535 461.707 247.322 460.977 246.895 460.45C246.469 459.917 245.815 459.65 244.935 459.65C244.282 459.65 243.675 459.82 243.115 460.16C242.555 460.493 242.055 460.953 241.615 461.54V469H240.665Z" fill="#333333"/>
<path d="M305.549 456.57C305.489 456.683 305.402 456.74 305.289 456.74C305.202 456.74 305.089 456.68 304.949 456.56C304.816 456.433 304.632 456.297 304.399 456.15C304.166 455.997 303.872 455.857 303.519 455.73C303.172 455.603 302.742 455.54 302.229 455.54C301.716 455.54 301.262 455.613 300.869 455.76C300.482 455.907 300.156 456.107 299.889 456.36C299.629 456.613 299.429 456.907 299.289 457.24C299.156 457.573 299.089 457.923 299.089 458.29C299.089 458.77 299.189 459.167 299.389 459.48C299.596 459.793 299.866 460.06 300.199 460.28C300.532 460.5 300.909 460.687 301.329 460.84C301.756 460.987 302.192 461.133 302.639 461.28C303.086 461.427 303.519 461.59 303.939 461.77C304.366 461.943 304.746 462.163 305.079 462.43C305.412 462.697 305.679 463.027 305.879 463.42C306.086 463.807 306.189 464.29 306.189 464.87C306.189 465.463 306.086 466.023 305.879 466.55C305.679 467.07 305.386 467.523 304.999 467.91C304.612 468.297 304.139 468.603 303.579 468.83C303.019 469.05 302.379 469.16 301.659 469.16C300.726 469.16 299.922 468.997 299.249 468.67C298.576 468.337 297.986 467.883 297.479 467.31L297.759 466.87C297.839 466.77 297.932 466.72 298.039 466.72C298.099 466.72 298.176 466.76 298.269 466.84C298.362 466.92 298.476 467.02 298.609 467.14C298.742 467.253 298.902 467.38 299.089 467.52C299.276 467.653 299.492 467.78 299.739 467.9C299.986 468.013 300.269 468.11 300.589 468.19C300.909 468.27 301.272 468.31 301.679 468.31C302.239 468.31 302.739 468.227 303.179 468.06C303.619 467.887 303.989 467.653 304.289 467.36C304.596 467.067 304.829 466.72 304.989 466.32C305.149 465.913 305.229 465.48 305.229 465.02C305.229 464.52 305.126 464.11 304.919 463.79C304.719 463.463 304.452 463.193 304.119 462.98C303.786 462.76 303.406 462.577 302.979 462.43C302.559 462.283 302.126 462.14 301.679 462C301.232 461.86 300.796 461.703 300.369 461.53C299.949 461.357 299.572 461.137 299.239 460.87C298.906 460.597 298.636 460.26 298.429 459.86C298.229 459.453 298.129 458.947 298.129 458.34C298.129 457.867 298.219 457.41 298.399 456.97C298.579 456.53 298.842 456.143 299.189 455.81C299.536 455.47 299.962 455.2 300.469 455C300.982 454.793 301.566 454.69 302.219 454.69C302.952 454.69 303.609 454.807 304.189 455.04C304.776 455.273 305.309 455.63 305.789 456.11L305.549 456.57ZM312.028 458.89C312.588 458.89 313.105 458.987 313.578 459.18C314.058 459.373 314.472 459.657 314.818 460.03C315.172 460.397 315.445 460.85 315.638 461.39C315.838 461.93 315.938 462.55 315.938 463.25C315.938 463.397 315.915 463.497 315.868 463.55C315.828 463.603 315.762 463.63 315.668 463.63H308.478V463.82C308.478 464.567 308.565 465.223 308.738 465.79C308.912 466.357 309.158 466.833 309.478 467.22C309.798 467.6 310.185 467.887 310.638 468.08C311.092 468.273 311.598 468.37 312.158 468.37C312.658 468.37 313.092 468.317 313.458 468.21C313.825 468.097 314.132 467.973 314.378 467.84C314.632 467.7 314.832 467.577 314.978 467.47C315.125 467.357 315.232 467.3 315.298 467.3C315.385 467.3 315.452 467.333 315.498 467.4L315.758 467.72C315.598 467.92 315.385 468.107 315.118 468.28C314.858 468.453 314.565 468.603 314.238 468.73C313.918 468.85 313.572 468.947 313.198 469.02C312.832 469.093 312.462 469.13 312.088 469.13C311.408 469.13 310.788 469.013 310.228 468.78C309.668 468.54 309.188 468.193 308.788 467.74C308.388 467.287 308.078 466.733 307.858 466.08C307.645 465.42 307.538 464.667 307.538 463.82C307.538 463.107 307.638 462.45 307.838 461.85C308.045 461.243 308.338 460.723 308.718 460.29C309.105 459.85 309.575 459.507 310.128 459.26C310.688 459.013 311.322 458.89 312.028 458.89ZM312.038 459.6C311.525 459.6 311.065 459.68 310.658 459.84C310.252 460 309.898 460.23 309.598 460.53C309.305 460.83 309.065 461.19 308.878 461.61C308.698 462.03 308.578 462.5 308.518 463.02H315.078C315.078 462.487 315.005 462.01 314.858 461.59C314.712 461.163 314.505 460.803 314.238 460.51C313.972 460.217 313.652 459.993 313.278 459.84C312.905 459.68 312.492 459.6 312.038 459.6ZM324.643 460.38C324.61 460.413 324.577 460.443 324.543 460.47C324.517 460.49 324.477 460.5 324.423 460.5C324.357 460.5 324.263 460.457 324.143 460.37C324.03 460.277 323.877 460.177 323.683 460.07C323.49 459.963 323.247 459.867 322.953 459.78C322.667 459.687 322.317 459.64 321.903 459.64C321.33 459.64 320.82 459.743 320.373 459.95C319.933 460.15 319.56 460.44 319.253 460.82C318.953 461.2 318.723 461.66 318.563 462.2C318.403 462.74 318.323 463.347 318.323 464.02C318.323 464.72 318.403 465.34 318.563 465.88C318.73 466.42 318.963 466.877 319.263 467.25C319.563 467.617 319.927 467.897 320.353 468.09C320.78 468.283 321.253 468.38 321.773 468.38C322.253 468.38 322.653 468.323 322.973 468.21C323.3 468.097 323.567 467.973 323.773 467.84C323.987 467.707 324.153 467.583 324.273 467.47C324.4 467.357 324.5 467.3 324.573 467.3C324.66 467.3 324.727 467.333 324.773 467.4L325.033 467.72C324.88 467.92 324.687 468.107 324.453 468.28C324.22 468.453 323.957 468.603 323.663 468.73C323.37 468.857 323.05 468.953 322.703 469.02C322.363 469.093 322.007 469.13 321.633 469.13C321 469.13 320.42 469.017 319.893 468.79C319.373 468.557 318.923 468.223 318.543 467.79C318.17 467.35 317.877 466.813 317.663 466.18C317.457 465.547 317.353 464.827 317.353 464.02C317.353 463.26 317.453 462.567 317.653 461.94C317.853 461.313 318.143 460.773 318.523 460.32C318.91 459.867 319.38 459.517 319.933 459.27C320.493 459.017 321.133 458.89 321.853 458.89C322.5 458.89 323.073 458.993 323.573 459.2C324.08 459.407 324.52 459.687 324.893 460.04L324.643 460.38Z" fill="#333333"/>
<path d="M61.6399 500.417C60.5199 500.417 59.5199 500.137 58.6399 499.577C57.7599 499.003 57.0666 498.177 56.5599 497.097C56.0533 496.003 55.7999 494.71 55.7999 493.217C55.7999 491.723 56.0533 490.437 56.5599 489.357C57.0666 488.263 57.7599 487.437 58.6399 486.877C59.5199 486.303 60.5199 486.017 61.6399 486.017C62.7599 486.017 63.7599 486.303 64.6399 486.877C65.5333 487.437 66.2333 488.263 66.7399 489.357C67.2466 490.437 67.4999 491.723 67.4999 493.217C67.4999 494.71 67.2466 496.003 66.7399 497.097C66.2333 498.177 65.5333 499.003 64.6399 499.577C63.7599 500.137 62.7599 500.417 61.6399 500.417ZM61.6399 498.157C62.6399 498.157 63.4266 497.743 63.9999 496.917C64.5866 496.09 64.8799 494.857 64.8799 493.217C64.8799 491.577 64.5866 490.343 63.9999 489.517C63.4266 488.69 62.6399 488.277 61.6399 488.277C60.6533 488.277 59.8666 488.69 59.2799 489.517C58.7066 490.343 58.4199 491.577 58.4199 493.217C58.4199 494.857 58.7066 496.09 59.2799 496.917C59.8666 497.743 60.6533 498.157 61.6399 498.157ZM73.5993 486.217V500.217H70.9993V488.397H68.0393V486.217H73.5993Z" fill="black" fill-opacity="0.85"/>
<path d="M106.412 487.997H103.932V490.657H106.412V487.997ZM106.412 496.537H103.932V499.197H106.412V496.537Z" fill="black" fill-opacity="0.3"/>
<path d="M147.273 486.217V500.217H144.673V488.397H141.713V486.217H147.273ZM154.49 486.217V500.217H151.89V488.397H148.93V486.217H154.49Z" fill="black" fill-opacity="0.85"/>
<path d="M193.965 487.997H191.485V490.657H193.965V487.997ZM193.965 496.537H191.485V499.197H193.965V496.537Z" fill="black" fill-opacity="0.3"/>
<path d="M235.02 498.017V500.217H224.7V498.477L230.26 493.197C230.887 492.597 231.307 492.077 231.52 491.637C231.747 491.183 231.86 490.737 231.86 490.297C231.86 489.643 231.64 489.143 231.2 488.797C230.76 488.45 230.113 488.277 229.26 488.277C227.833 488.277 226.74 488.763 225.98 489.737L224.16 488.337C224.707 487.603 225.44 487.037 226.36 486.637C227.293 486.223 228.333 486.017 229.48 486.017C231 486.017 232.213 486.377 233.12 487.097C234.027 487.817 234.48 488.797 234.48 490.037C234.48 490.797 234.32 491.51 234 492.177C233.68 492.843 233.067 493.603 232.16 494.457L228.42 498.017H235.02ZM248.308 497.037H245.828V500.217H243.308V497.037H235.628V495.237L242.528 486.217H245.308L238.808 494.837H243.388V492.017H245.828V494.837H248.308V497.037Z" fill="black" fill-opacity="0.85"/>
<path d="M275.033 487.997H272.553V490.657H275.033V487.997ZM275.033 496.537H272.553V499.197H275.033V496.537Z" fill="black" fill-opacity="0.3"/>
<path d="M306.72 500.417C305.6 500.417 304.6 500.137 303.72 499.577C302.84 499.003 302.147 498.177 301.64 497.097C301.133 496.003 300.88 494.71 300.88 493.217C300.88 491.723 301.133 490.437 301.64 489.357C302.147 488.263 302.84 487.437 303.72 486.877C304.6 486.303 305.6 486.017 306.72 486.017C307.84 486.017 308.84 486.303 309.72 486.877C310.613 487.437 311.313 488.263 311.82 489.357C312.327 490.437 312.58 491.723 312.58 493.217C312.58 494.71 312.327 496.003 311.82 497.097C311.313 498.177 310.613 499.003 309.72 499.577C308.84 500.137 307.84 500.417 306.72 500.417ZM306.72 498.157C307.72 498.157 308.507 497.743 309.08 496.917C309.667 496.09 309.96 494.857 309.96 493.217C309.96 491.577 309.667 490.343 309.08 489.517C308.507 488.69 307.72 488.277 306.72 488.277C305.733 488.277 304.947 488.69 304.36 489.517C303.787 490.343 303.5 491.577 303.5 493.217C303.5 494.857 303.787 496.09 304.36 496.917C304.947 497.743 305.733 498.157 306.72 498.157ZM324.399 486.217V487.957L318.959 500.217H316.179L321.439 488.417H315.939V490.797H313.519V486.217H324.399Z" fill="black" fill-opacity="0.85"/>
<path d="M143.229 335.64H147.429V324.615C147.429 324.075 147.444 323.51 147.474 322.92L144.999 324.975C144.839 325.105 144.679 325.2 144.519 325.26C144.359 325.31 144.204 325.335 144.054 325.335C143.794 325.335 143.559 325.28 143.349 325.17C143.149 325.05 142.999 324.925 142.899 324.795L141.429 322.845L148.239 317.13H152.079V335.64H155.679V339H143.229V335.64ZM173.652 328.065C173.652 329.975 173.447 331.63 173.037 333.03C172.627 334.43 172.057 335.59 171.327 336.51C170.607 337.43 169.747 338.115 168.747 338.565C167.757 339.015 166.682 339.24 165.522 339.24C164.362 339.24 163.287 339.015 162.297 338.565C161.317 338.115 160.467 337.43 159.747 336.51C159.027 335.59 158.462 334.43 158.052 333.03C157.652 331.63 157.452 329.975 157.452 328.065C157.452 326.155 157.652 324.5 158.052 323.1C158.462 321.7 159.027 320.54 159.747 319.62C160.467 318.7 161.317 318.02 162.297 317.58C163.287 317.13 164.362 316.905 165.522 316.905C166.682 316.905 167.757 317.13 168.747 317.58C169.747 318.02 170.607 318.7 171.327 319.62C172.057 320.54 172.627 321.7 173.037 323.1C173.447 324.5 173.652 326.155 173.652 328.065ZM168.852 328.065C168.852 326.555 168.757 325.32 168.567 324.36C168.377 323.39 168.122 322.63 167.802 322.08C167.492 321.53 167.137 321.155 166.737 320.955C166.337 320.745 165.932 320.64 165.522 320.64C165.112 320.64 164.707 320.745 164.307 320.955C163.917 321.155 163.567 321.53 163.257 322.08C162.957 322.63 162.712 323.39 162.522 324.36C162.342 325.32 162.252 326.555 162.252 328.065C162.252 329.585 162.342 330.825 162.522 331.785C162.712 332.745 162.957 333.505 163.257 334.065C163.567 334.615 163.917 334.995 164.307 335.205C164.707 335.405 165.112 335.505 165.522 335.505C165.932 335.505 166.337 335.405 166.737 335.205C167.137 334.995 167.492 334.615 167.802 334.065C168.122 333.505 168.377 332.745 168.567 331.785C168.757 330.825 168.852 329.585 168.852 328.065ZM175.274 336.36C175.274 336.04 175.334 335.745 175.454 335.475C175.574 335.195 175.744 334.955 175.964 334.755C176.194 334.545 176.459 334.38 176.759 334.26C177.069 334.14 177.414 334.08 177.794 334.08C178.244 334.08 178.634 334.16 178.964 334.32C179.294 334.47 179.569 334.68 179.789 334.95C180.009 335.21 180.169 335.515 180.269 335.865C180.379 336.205 180.434 336.565 180.434 336.945C180.434 337.445 180.354 337.98 180.194 338.55C180.034 339.11 179.794 339.675 179.474 340.245C179.164 340.815 178.774 341.375 178.304 341.925C177.834 342.475 177.294 342.975 176.684 343.425L175.874 342.705C175.764 342.595 175.679 342.49 175.619 342.39C175.569 342.3 175.544 342.185 175.544 342.045C175.544 341.945 175.579 341.835 175.649 341.715C175.719 341.605 175.804 341.505 175.904 341.415C176.024 341.295 176.164 341.15 176.324 340.98C176.484 340.81 176.644 340.62 176.804 340.41C176.964 340.2 177.109 339.97 177.239 339.72C177.379 339.47 177.484 339.205 177.554 338.925C177.204 338.895 176.889 338.81 176.609 338.67C176.329 338.53 176.089 338.345 175.889 338.115C175.699 337.885 175.549 337.625 175.439 337.335C175.329 337.035 175.274 336.71 175.274 336.36ZM190.794 316.905C191.874 316.905 192.834 317.06 193.674 317.37C194.514 317.67 195.224 318.08 195.804 318.6C196.384 319.12 196.824 319.725 197.124 320.415C197.424 321.095 197.574 321.815 197.574 322.575C197.574 323.265 197.504 323.875 197.364 324.405C197.224 324.925 197.014 325.38 196.734 325.77C196.464 326.15 196.124 326.475 195.714 326.745C195.314 327.015 194.854 327.24 194.334 327.42C196.754 328.26 197.964 329.905 197.964 332.355C197.964 333.515 197.754 334.525 197.334 335.385C196.914 336.245 196.349 336.96 195.639 337.53C194.939 338.1 194.124 338.53 193.194 338.82C192.264 339.1 191.294 339.24 190.284 339.24C189.244 339.24 188.319 339.13 187.509 338.91C186.699 338.68 185.979 338.33 185.349 337.86C184.719 337.38 184.164 336.77 183.684 336.03C183.214 335.29 182.804 334.41 182.454 333.39L184.524 332.55C184.704 332.47 184.879 332.415 185.049 332.385C185.229 332.355 185.404 332.34 185.574 332.34C185.894 332.34 186.179 332.405 186.429 332.535C186.689 332.655 186.884 332.835 187.014 333.075C187.464 333.905 187.939 334.51 188.439 334.89C188.949 335.26 189.544 335.445 190.224 335.445C190.744 335.445 191.194 335.36 191.574 335.19C191.964 335.01 192.284 334.785 192.534 334.515C192.794 334.235 192.989 333.92 193.119 333.57C193.249 333.22 193.314 332.865 193.314 332.505C193.314 332.035 193.279 331.615 193.209 331.245C193.149 330.865 192.969 330.54 192.669 330.27C192.369 330 191.914 329.795 191.304 329.655C190.704 329.505 189.864 329.43 188.784 329.43V326.22C189.694 326.22 190.429 326.15 190.989 326.01C191.549 325.87 191.979 325.68 192.279 325.44C192.589 325.19 192.794 324.89 192.894 324.54C192.994 324.19 193.044 323.805 193.044 323.385C193.044 322.525 192.834 321.865 192.414 321.405C192.004 320.935 191.374 320.7 190.524 320.7C190.174 320.7 189.854 320.75 189.564 320.85C189.274 320.95 189.014 321.085 188.784 321.255C188.554 321.425 188.354 321.625 188.184 321.855C188.024 322.085 187.894 322.335 187.794 322.605C187.634 323.055 187.429 323.38 187.179 323.58C186.939 323.78 186.609 323.88 186.189 323.88C186.089 323.88 185.979 323.875 185.859 323.865C185.749 323.855 185.634 323.84 185.514 323.82L183.054 323.385C183.214 322.295 183.519 321.345 183.969 320.535C184.429 319.725 184.994 319.05 185.664 318.51C186.344 317.97 187.119 317.57 187.989 317.31C188.859 317.04 189.794 316.905 190.794 316.905ZM202.526 335.64H206.726V324.615C206.726 324.075 206.741 323.51 206.771 322.92L204.296 324.975C204.136 325.105 203.976 325.2 203.816 325.26C203.656 325.31 203.501 325.335 203.351 325.335C203.091 325.335 202.856 325.28 202.646 325.17C202.446 325.05 202.296 324.925 202.196 324.795L200.726 322.845L207.536 317.13H211.376V335.64H214.976V339H202.526V335.64ZM232.948 328.065C232.948 329.975 232.743 331.63 232.333 333.03C231.923 334.43 231.353 335.59 230.623 336.51C229.903 337.43 229.043 338.115 228.043 338.565C227.053 339.015 225.978 339.24 224.818 339.24C223.658 339.24 222.583 339.015 221.593 338.565C220.613 338.115 219.763 337.43 219.043 336.51C218.323 335.59 217.758 334.43 217.348 333.03C216.948 331.63 216.748 329.975 216.748 328.065C216.748 326.155 216.948 324.5 217.348 323.1C217.758 321.7 218.323 320.54 219.043 319.62C219.763 318.7 220.613 318.02 221.593 317.58C222.583 317.13 223.658 316.905 224.818 316.905C225.978 316.905 227.053 317.13 228.043 317.58C229.043 318.02 229.903 318.7 230.623 319.62C231.353 320.54 231.923 321.7 232.333 323.1C232.743 324.5 232.948 326.155 232.948 328.065ZM228.148 328.065C228.148 326.555 228.053 325.32 227.863 324.36C227.673 323.39 227.418 322.63 227.098 322.08C226.788 321.53 226.433 321.155 226.033 320.955C225.633 320.745 225.228 320.64 224.818 320.64C224.408 320.64 224.003 320.745 223.603 320.955C223.213 321.155 222.863 321.53 222.553 322.08C222.253 322.63 222.008 323.39 221.818 324.36C221.638 325.32 221.548 326.555 221.548 328.065C221.548 329.585 221.638 330.825 221.818 331.785C222.008 332.745 222.253 333.505 222.553 334.065C222.863 334.615 223.213 334.995 223.603 335.205C224.003 335.405 224.408 335.505 224.818 335.505C225.228 335.505 225.633 335.405 226.033 335.205C226.433 334.995 226.788 334.615 227.098 334.065C227.418 333.505 227.673 332.745 227.863 331.785C228.053 330.825 228.148 329.585 228.148 328.065Z" fill="#333333"/>
<line x1="157" y1="391.502" x2="185.087" y2="391.502" stroke="#D6D6D6" stroke-width="2"/>
<path d="M170.418 297.084C171.153 297.325 171.736 297.73 172.166 298.3C172.597 298.857 172.812 299.554 172.812 300.39C172.812 301.543 172.369 302.436 171.482 303.069C170.596 303.69 169.304 304 167.606 304H160.994V290.7H167.226C168.797 290.7 170.007 291.01 170.855 291.631C171.704 292.239 172.128 293.081 172.128 294.158C172.128 294.817 171.976 295.399 171.672 295.906C171.368 296.413 170.95 296.805 170.418 297.084ZM163.464 292.638V296.305H166.96C167.822 296.305 168.48 296.153 168.936 295.849C169.405 295.532 169.639 295.076 169.639 294.481C169.639 293.873 169.405 293.417 168.936 293.113C168.48 292.796 167.822 292.638 166.96 292.638H163.464ZM167.454 302.062C169.367 302.062 170.323 301.422 170.323 300.143C170.323 298.864 169.367 298.224 167.454 298.224H163.464V302.062H167.454ZM177.101 295.336C177.785 294.272 178.989 293.74 180.711 293.74V296.001C180.509 295.963 180.325 295.944 180.16 295.944C179.236 295.944 178.514 296.216 177.994 296.761C177.475 297.293 177.215 298.066 177.215 299.079V304H174.84V293.854H177.101V295.336ZM182.346 293.854H184.721V304H182.346V293.854ZM183.543 292.182C183.112 292.182 182.751 292.049 182.46 291.783C182.169 291.504 182.023 291.162 182.023 290.757C182.023 290.352 182.169 290.016 182.46 289.75C182.751 289.471 183.112 289.332 183.543 289.332C183.974 289.332 184.335 289.465 184.626 289.731C184.917 289.984 185.063 290.307 185.063 290.7C185.063 291.118 184.917 291.473 184.626 291.764C184.347 292.043 183.986 292.182 183.543 292.182ZM193.918 304L191.315 300.485L188.693 304H186.071L190.023 298.851L186.242 293.854H188.883L191.372 297.179L193.861 293.854H196.426L192.626 298.813L196.597 304H193.918Z" fill="#25C1A7"/>
<path d="M36.9629 76.8696L29.1864 84.6461L28.8329 84.9996L29.1864 85.3532L36.9629 93.1296L35.9 94.1925L26.7071 84.9996L35.9 75.8067L36.9629 76.8696Z" fill="black" stroke="#303132"/>
</g>
</g>
<defs>
<filter id="filter0_d_135_627" x="-24" y="17" width="435" height="707" filterUnits="userSpaceOnUse" color-interpolation-filters="sRGB">
<feFlood flood-opacity="0" result="BackgroundImageFix"/>
<feColorMatrix in="SourceAlpha" type="matrix" values="0 0 0 0 0 0 0 0 0 0 0 0 0 0 0 0 0 0 127 0" result="hardAlpha"/>
<feMorphology radius="10" operator="dilate" in="SourceAlpha" result="effect1_dropShadow_135_627"/>
<feOffset dx="10" dy="4"/>
<feGaussianBlur stdDeviation="25"/>
<feComposite in2="hardAlpha" operator="out"/>
<feColorMatrix type="matrix" values="0 0 0 0 0 0 0 0 0 0 0 0 0 0 0 0 0 0 0.07 0"/>
<feBlend mode="normal" in2="BackgroundImageFix" result="effect1_dropShadow_135_627"/>
<feBlend mode="normal" in="SourceGraphic" in2="effect1_dropShadow_135_627" result="shape"/>
</filter>
<filter id="filter1_d_135_627" x="-2" y="216" width="394" height="205" filterUnits="userSpaceOnUse" color-interpolation-filters="sRGB">
<feFlood flood-opacity="0" result="BackgroundImageFix"/>
<feColorMatrix in="SourceAlpha" type="matrix" values="0 0 0 0 0 0 0 0 0 0 0 0 0 0 0 0 0 0 127 0" result="hardAlpha"/>
<feMorphology radius="10" operator="dilate" in="SourceAlpha" result="effect1_dropShadow_135_627"/>
<feOffset dx="10" dy="4"/>
<feGaussianBlur stdDeviation="25"/>
<feComposite in2="hardAlpha" operator="out"/>
<feColorMatrix type="matrix" values="0 0 0 0 0 0 0 0 0 0 0 0 0 0 0 0 0 0 0.07 0"/>
<feBlend mode="normal" in2="BackgroundImageFix" result="effect1_dropShadow_135_627"/>
<feBlend mode="normal" in="SourceGraphic" in2="effect1_dropShadow_135_627" result="shape"/>
</filter>
<clipPath id="clip0_135_627">
<rect width="382" height="716" fill="white"/>
</clipPath>
<clipPath id="clip1_135_627">
<rect width="38.6201" height="38.6201" fill="white" transform="translate(43 175.703)"/>
</clipPath>
</defs>
</svg>
