<svg width="206" height="143" viewBox="0 0 206 143" fill="none" xmlns="http://www.w3.org/2000/svg">
<g opacity="0.8">
<path d="M126.88 62.2313C138.666 71.6419 150.268 78.0678 150.757 78.3367C151.353 78.6648 152.037 78.8383 152.728 78.8383C153.42 78.8383 154.099 78.6648 154.696 78.3367C155.184 78.0678 166.787 71.6422 178.572 62.2313C194.957 49.1486 203.265 37.0919 203.265 26.3958C203.265 12.2781 191.019 0.792969 175.968 0.792969C166.225 0.792969 157.561 5.61187 152.726 12.9611C147.891 5.61187 139.227 0.792969 129.484 0.792969C114.433 0.792969 102.188 12.2784 102.188 26.3958C102.187 37.0915 110.495 49.1482 126.88 62.2313ZM129.484 8.07903C139.371 8.07903 147.704 15.0138 148.869 24.2095C149.101 26.0427 150.758 27.4229 152.726 27.4229C154.694 27.4229 156.351 26.0423 156.583 24.2095C157.749 15.0138 166.082 8.07903 175.968 8.07903C186.736 8.07903 195.496 16.296 195.496 26.3951C195.496 42.7677 166.29 63.0874 152.726 70.9411C139.162 63.0867 109.956 42.7677 109.956 26.3951C109.956 16.2953 118.717 8.07903 129.484 8.07903Z" fill="white"/>
<path d="M203.232 86.9497C198.664 79.4937 188.795 76.8626 180.757 80.9539L152.354 95.0685C152.34 95.0754 152.327 95.0818 152.313 95.0886C148.714 96.9269 144.701 97.9969 140.619 98.2173C141.815 96.1484 142.495 93.7777 142.495 91.2608C142.495 83.2161 135.547 76.6709 127.008 76.6709H103.936C88.3256 76.6709 75.0015 81.5748 65.7955 90.4297V85.7009C65.7955 81.2504 61.9526 77.6301 57.2289 77.6301H4.02907C1.80403 77.6294 0 79.3293 0 81.425V138.948C0 141.044 1.80403 142.743 4.02907 142.743L57.2289 142.793C61.9526 142.793 65.7955 139.172 65.7955 134.722V130.956L82.1638 134.978C86.4204 136.025 90.8103 136.555 95.2114 136.555H132.248C138.199 136.555 144.112 135.144 149.321 132.488L196.705 108.72C200.716 106.672 203.607 103.268 204.847 99.1327C206.086 94.9978 205.513 90.6709 203.232 86.9497ZM34.0839 135.152H8.05813V85.2203H34.0839V135.152ZM57.7374 101.766C57.7217 101.968 57.7189 102.17 57.7374 102.371V126.043V134.722C57.7374 134.986 57.5094 135.201 57.2289 135.201H42.1416V85.2203H57.2289C57.509 85.2203 57.7374 85.4351 57.7374 85.6998V101.766ZM197.092 97.0694C196.448 99.2159 194.948 100.983 192.892 102.033L145.509 125.8C141.45 127.87 136.865 128.964 132.248 128.964H95.2114C91.4966 128.964 87.7914 128.516 84.1982 127.633L65.7955 123.11V102.985C72.9028 91.0713 86.7395 84.2604 103.936 84.2604H127.008C131.105 84.2604 134.437 87.3997 134.437 91.2593C134.437 95.1188 131.105 98.2585 127.008 98.2585H99.4945C97.2699 98.2585 95.4655 99.9581 95.4655 102.054C95.4655 104.15 97.2695 105.85 99.4945 105.85H127.008H139.039C144.989 105.85 150.899 104.44 156.133 101.772L184.536 87.6572C184.55 87.6504 184.563 87.6439 184.576 87.6371C188.752 85.5051 193.881 86.8703 196.254 90.7443C197.437 92.6767 197.735 94.923 197.092 97.0694Z" fill="white"/>
</g>
</svg>
