<svg width="317" height="317" viewBox="0 0 317 317" fill="none" xmlns="http://www.w3.org/2000/svg">
<path d="M158.026 316.899C245.302 316.899 316.053 246.148 316.053 158.872C316.053 71.5965 245.302 0.845703 158.026 0.845703C70.7508 0.845703 0 71.5965 0 158.872C0 246.148 70.7508 316.899 158.026 316.899Z" fill="url(#paint0_linear_214_607)"/>
<path d="M100.467 193.272C105.879 193.272 110.267 188.885 110.267 183.473C110.267 178.061 105.879 173.674 100.467 173.674C95.0553 173.674 90.668 178.061 90.668 183.473C90.668 188.885 95.0553 193.272 100.467 193.272Z" fill="#4C685F"/>
<path d="M195.625 210.99C201.037 210.99 205.425 206.603 205.425 201.191C205.425 195.779 201.037 191.392 195.625 191.392C190.213 191.392 185.826 195.779 185.826 201.191C185.826 206.603 190.213 210.99 195.625 210.99Z" fill="#4C685F"/>
<path d="M81.5161 208.849C84.035 215.02 87.2446 220.885 91.0833 226.333C94.8587 231.769 99.3227 236.692 104.364 240.98C106.876 243.063 109.511 244.992 112.255 246.757C115.007 248.462 117.857 250.003 120.791 251.373C126.848 254.045 133.304 255.7 139.899 256.273C146.51 257.085 153.196 257.085 159.807 256.273C166.289 255.385 172.605 253.552 178.555 250.831C190.494 245.39 200.835 236.545 210.274 226.668C211.07 225.755 212.197 225.196 213.406 225.114C214.615 225.032 215.807 225.433 216.72 226.23C217.634 227.027 218.193 228.154 218.275 229.363C218.357 230.572 217.956 231.764 217.159 232.677C208.137 244.555 196.392 254.089 182.913 260.476C175.979 263.585 168.6 265.586 161.045 266.407C153.622 267.196 146.13 267.066 138.739 266.02C135.103 265.556 131.492 264.937 127.753 264.112C124.053 263.258 120.416 262.147 116.871 260.785C109.774 257.962 103.254 253.863 97.6333 248.691C92.081 243.635 87.2945 237.797 83.4243 231.362C79.488 225.003 76.4751 218.118 74.476 210.912C74.2737 210.02 74.4104 209.084 74.8596 208.287C75.3087 207.49 76.0382 206.888 76.9063 206.598C77.7744 206.309 78.719 206.353 79.5567 206.721C80.3943 207.089 81.0651 207.756 81.4387 208.591L81.5161 208.849Z" fill="#4C685F"/>
<defs>
<linearGradient id="paint0_linear_214_607" x1="26.8191" y1="63.1486" x2="269.713" y2="240.361" gradientUnits="userSpaceOnUse">
<stop stop-color="#BFFFBA"/>
<stop offset="0.98" stop-color="#7FEFCD"/>
</linearGradient>
</defs>
</svg>
