<svg width="172" height="173" viewBox="0 0 172 173" fill="none" xmlns="http://www.w3.org/2000/svg">
<path d="M85.9476 172.343C133.348 172.343 171.774 133.917 171.774 86.516C171.774 39.1153 133.348 0.689453 85.9476 0.689453C38.5469 0.689453 0.121094 39.1153 0.121094 86.516C0.121094 133.917 38.5469 172.343 85.9476 172.343Z" fill="url(#paint0_linear_214_615)"/>
<path d="M118.212 123.429C120.842 123.429 122.973 121.298 122.973 118.668C122.973 116.039 120.842 113.907 118.212 113.907C115.583 113.907 113.451 116.039 113.451 118.668C113.451 121.298 115.583 123.429 118.212 123.429Z" fill="white"/>
<path d="M53.6262 116.954C56.2244 116.954 58.3307 114.847 58.3307 112.249C58.3307 109.651 56.2244 107.545 53.6262 107.545C51.0281 107.545 48.9219 109.651 48.9219 112.249C48.9219 114.847 51.0281 116.954 53.6262 116.954Z" fill="white"/>
<path d="M69.3977 123.741C72.0812 123.468 74.7772 123.335 77.4746 123.344C80.1527 123.344 82.8307 123.344 85.5088 123.528C90.8813 123.754 96.2366 124.284 101.549 125.115C102.002 125.189 102.413 125.426 102.702 125.782C102.992 126.139 103.14 126.589 103.119 127.047C103.098 127.506 102.909 127.941 102.588 128.269C102.267 128.598 101.837 128.796 101.379 128.828C96.0157 129.18 90.6367 129.227 85.268 128.97C82.5899 128.87 79.9118 128.686 77.2478 128.445C74.5839 128.204 71.9058 127.864 69.2419 127.326C68.8148 127.244 68.4314 127.01 68.1618 126.669C67.8922 126.328 67.7543 125.901 67.7732 125.466C67.7921 125.032 67.9666 124.618 68.2648 124.302C68.563 123.985 68.9651 123.786 69.3977 123.741Z" fill="white"/>
<defs>
<linearGradient id="paint0_linear_214_615" x1="25.1025" y1="35.5897" x2="149.542" y2="139.738" gradientUnits="userSpaceOnUse">
<stop stop-color="#FFCCAF"/>
<stop offset="0.98" stop-color="#FA4671"/>
</linearGradient>
</defs>
</svg>
