<svg width="229" height="229" viewBox="0 0 229 229" fill="none" xmlns="http://www.w3.org/2000/svg">
<path d="M114.407 229C177.396 229 228.458 177.938 228.458 114.949C228.458 51.96 177.396 0.897461 114.407 0.897461C51.418 0.897461 0.355469 51.96 0.355469 114.949C0.355469 177.938 51.418 229 114.407 229Z" fill="url(#paint0_linear_214_602)"/>
<path d="M165.604 132.084C169.098 132.084 171.931 129.252 171.931 125.757C171.931 122.263 169.098 119.431 165.604 119.431C162.11 119.431 159.277 122.263 159.277 125.757C159.277 129.252 162.11 132.084 165.604 132.084Z" fill="white"/>
<path d="M108.853 156.96C112.306 156.96 115.104 154.161 115.104 150.708C115.104 147.256 112.306 144.457 108.853 144.457C105.4 144.457 102.602 147.256 102.602 150.708C102.602 154.161 105.4 156.96 108.853 156.96Z" fill="white"/>
<path d="M181.233 146.188C181.59 153.706 179.567 161.145 175.452 167.447C171.306 173.794 165.34 178.742 158.336 181.644C151.422 184.512 143.849 185.411 136.456 184.243C132.871 183.763 129.34 182.943 125.911 181.795C122.314 180.665 118.96 178.87 116.025 176.504C115.753 176.28 115.528 176.004 115.364 175.693C115.2 175.381 115.1 175.039 115.07 174.688C115.04 174.337 115.081 173.984 115.19 173.649C115.299 173.314 115.474 173.004 115.705 172.738C116.122 172.252 116.698 171.932 117.33 171.835C117.963 171.739 118.609 171.872 119.151 172.21L119.264 172.305C121.892 173.857 124.753 174.976 127.737 175.619C130.829 176.376 133.978 176.874 137.152 177.106C140.259 177.344 143.382 177.268 146.473 176.88C149.494 176.453 152.449 175.643 155.266 174.47C158.064 173.269 160.701 171.726 163.118 169.876C165.504 167.983 167.626 165.779 169.426 163.323C173.027 158.29 175.112 152.331 175.433 146.15V146.15C175.491 145.429 175.819 144.756 176.351 144.265C176.883 143.774 177.581 143.502 178.305 143.502C179.028 143.502 179.726 143.774 180.258 144.265C180.79 144.756 181.118 145.429 181.176 146.15L181.233 146.188Z" fill="white"/>
<defs>
<linearGradient id="paint0_linear_214_602" x1="35.7643" y1="71.6828" x2="226.171" y2="178.426" gradientUnits="userSpaceOnUse">
<stop offset="0.05" stop-color="#AEB6FF"/>
<stop offset="0.823003" stop-color="#8E8AFF"/>
</linearGradient>
</defs>
</svg>
