<svg width="104" height="103" viewBox="0 0 104 103" fill="none" xmlns="http://www.w3.org/2000/svg">
<path d="M52.039 102.531C80.3521 102.531 103.304 79.5787 103.304 51.2655C103.304 22.9524 80.3521 0 52.039 0C23.7258 0 0.773438 22.9524 0.773438 51.2655C0.773438 79.5787 23.7258 102.531 52.039 102.531Z" fill="url(#paint0_linear_214_612)"/>
<path d="M69.4062 75.5017C69.4684 76.8524 69.0539 78.182 68.235 79.2579C67.5554 80.1833 66.7238 80.9867 65.7754 81.6338C64.0382 82.8172 62.1275 83.7232 60.1118 84.3192C56.2231 85.459 52.1711 85.9397 48.1236 85.7414C44.121 85.5709 40.1567 84.8877 36.3279 83.7085C34.3375 83.0951 32.4467 82.1962 30.7144 81.0398C29.7934 80.4116 28.9655 79.6569 28.2549 78.7978C27.4677 77.8471 26.9402 76.7086 26.7239 75.4933C26.5257 74.219 26.7305 72.9146 27.3095 71.7622C27.8953 70.6634 28.7799 69.7528 29.8611 69.1353C31.747 68.1361 33.8161 67.5299 35.943 67.3534C39.8739 66.9945 43.8307 67.0253 47.7555 67.4455C51.5703 67.7801 55.3935 67.8888 59.3338 68.282C61.418 68.449 63.4639 68.9372 65.399 69.7293C66.5192 70.236 67.4901 71.0225 68.2183 72.0132C68.9153 73.0507 69.3252 74.2544 69.4062 75.5017V75.5017ZM66.1937 75.7359C66.1944 75.0349 65.9958 74.3481 65.6211 73.7556C65.2464 73.1631 64.7109 72.6894 64.0772 72.3896C62.4623 71.638 60.7307 71.1683 58.9573 71.0009C55.2513 70.5073 51.3612 70.3902 47.5046 70.0472C43.7638 69.6982 39.9978 69.7178 36.2609 70.1058C34.5398 70.2686 32.8694 70.778 31.3502 71.6032C30.7484 71.9495 30.2579 72.4603 29.9364 73.0756C29.6646 73.6663 29.5799 74.3261 29.6938 74.9663C29.9029 76.2295 31.0574 77.476 32.4712 78.3879C33.9776 79.3199 35.6007 80.0485 37.2983 80.5546C40.856 81.5892 44.5293 82.1738 48.2324 82.2947C51.8998 82.4984 55.5755 82.0884 59.1079 81.0817C60.7948 80.6035 62.3996 79.873 63.868 78.9149C65.2735 78.0198 66.2857 76.6896 66.1937 75.7359Z" fill="#4C685F"/>
<defs>
<linearGradient id="paint0_linear_214_612" x1="15.8235" y1="20.8894" x2="81.8379" y2="76.2625" gradientUnits="userSpaceOnUse">
<stop offset="0.05" stop-color="#FBF7A5"/>
<stop offset="0.98" stop-color="#FFC876"/>
</linearGradient>
</defs>
</svg>
