<svg width="104" height="103" viewBox="0 0 104 103" fill="none" xmlns="http://www.w3.org/2000/svg">
<path d="M52.039 102.531C80.3521 102.531 103.304 79.5787 103.304 51.2655C103.304 22.9524 80.3521 0 52.039 0C23.7258 0 0.773438 22.9524 0.773438 51.2655C0.773438 79.5787 23.7258 102.531 52.039 102.531Z" fill="url(#paint0_linear_265_648)"/>
<path d="M69.4082 75.5017C69.4704 76.8524 69.0558 78.182 68.2369 79.2579C67.5574 80.1833 66.7257 80.9867 65.7774 81.6338C64.0402 82.8172 62.1295 83.7232 60.1138 84.3192C56.2251 85.459 52.173 85.9397 48.1256 85.7414C44.1229 85.5709 40.1586 84.8877 36.3298 83.7085C34.3395 83.0951 32.4486 82.1962 30.7164 81.0398C29.7954 80.4116 28.9674 79.6569 28.2568 78.7978C27.4696 77.8471 26.9422 76.7086 26.7259 75.4933C26.5277 74.219 26.7324 72.9146 27.3115 71.7622C27.8972 70.6634 28.7818 69.7528 29.8631 69.1353C31.749 68.1361 33.818 67.5299 35.945 67.3534C39.8759 66.9945 43.8327 67.0253 47.7575 67.4455C51.5723 67.7801 55.3954 67.8888 59.3357 68.282C61.42 68.449 63.4659 68.9372 65.4009 69.7293C66.5212 70.236 67.4921 71.0225 68.2202 72.0132C68.9173 73.0507 69.3272 74.2544 69.4082 75.5017V75.5017ZM66.1957 75.7359C66.1964 75.0349 65.9978 74.3481 65.6231 73.7556C65.2483 73.1631 64.7129 72.6894 64.0791 72.3896C62.4642 71.638 60.7326 71.1683 58.9593 71.0009C55.2532 70.5073 51.3631 70.3902 47.5065 70.0472C43.7658 69.6982 39.9998 69.7178 36.2629 70.1058C34.5417 70.2686 32.8713 70.778 31.3522 71.6032C30.7504 71.9495 30.2599 72.4603 29.9384 73.0756C29.6665 73.6663 29.5819 74.3261 29.6958 74.9663C29.9049 76.2295 31.0594 77.476 32.4732 78.3879C33.9796 79.3199 35.6027 80.0485 37.3003 80.5546C40.8579 81.5892 44.5312 82.1738 48.2343 82.2947C51.9018 82.4984 55.5774 82.0884 59.1099 81.0817C60.7967 80.6035 62.4016 79.873 63.87 78.9149C65.2754 78.0198 66.2877 76.6896 66.1957 75.7359Z" fill="#4C685F"/>
<defs>
<linearGradient id="paint0_linear_265_648" x1="15.8235" y1="20.8894" x2="81.8379" y2="76.2625" gradientUnits="userSpaceOnUse">
<stop offset="0.05" stop-color="#FBF7A5"/>
<stop offset="0.98" stop-color="#FFC876"/>
</linearGradient>
</defs>
</svg>
