<svg xmlns="http://www.w3.org/2000/svg" viewBox="0 0 289.63 260.33"><defs><style>.cls-1{fill:#b4ffc6;}.cls-2{fill:#4c685f;}</style></defs><g id="레이어_2" data-name="레이어 2"><g id="Layer_1" data-name="Layer 1"><path class="cls-1" d="M130.4,260.33H117.66a4.05,4.05,0,0,1-3.86-5.28c11.76-36.67,3.43-74,3.35-74.33A4,4,0,0,1,125,178.9c.35,1.53,8.17,36.38-2,73.34h7.32a4,4,0,1,1,0,8.09Z"/><path class="cls-1" d="M190.09,239.83h-.24a4,4,0,0,1-3.8-4.28l.45-7.79a11.4,11.4,0,0,1,8.09-10.2c7.91-2.37,20.78-3.84,21.32-3.9h.19c4.13-.28,15.85-2.16,20.37-7.43a6.82,6.82,0,0,0,1.72-5.29c-1.12-13.23-30.7-16.85-41-17.08a4,4,0,0,1,.09-8.09h.09a118.44,118.44,0,0,1,22.71,3.08c11.34,2.79,25.08,8.78,26.15,21.41a15,15,0,0,1-3.65,11.25c-3.32,3.85-8.76,6.75-16.17,8.6a61.63,61.63,0,0,1-9.69,1.61c-1.08.12-12.91,1.53-19.82,3.6a3.27,3.27,0,0,0-2.34,2.92l-.46,7.79A4,4,0,0,1,190.09,239.83Z"/><path class="cls-1" d="M28.4,171.46A45.24,45.24,0,0,1,16.93,170c-9.23-2.54-15-8-16.56-15.7-2.58-12.42,8.89-22.07,19-28a116.51,116.51,0,0,1,20.9-9.42,4,4,0,0,1,2.47,7.7c-9.78,3.16-37.11,15.08-34.41,28.05,2.37,11.45,20.66,10.77,20.85,10.76a4,4,0,0,1,.39,8.08C29.47,171.44,29.07,171.46,28.4,171.46Z"/><path class="cls-1" d="M261.23,164c-.66,0-1.06,0-1.12,0a4,4,0,1,1,.39-8.08c.18,0,18.47.7,20.84-10.75,2.7-13-24.63-24.9-34.41-28a4,4,0,0,1,2.48-7.7,116.92,116.92,0,0,1,20.89,9.42c10.07,5.91,21.54,15.56,19,28-1.61,7.74-7.34,13.17-16.56,15.71A45.35,45.35,0,0,1,261.23,164Z"/><ellipse class="cls-1" cx="143.18" cy="98.17" rx="110.25" ry="98.17"/><path class="cls-2" d="M163.31,114.53a3,3,0,0,1-1.64-.49l-10.39-6.74a3,3,0,0,1,3.3-5.09l7.84,5.09,5.09-7.84a3,3,0,0,1,5.09,3.3l-6.74,10.39A3,3,0,0,1,163.31,114.53Z"/><circle class="cls-2" cx="130.6" cy="97.04" r="5.29"/><circle class="cls-2" cx="184.32" cy="91.75" r="5.29"/></g></g></svg>